  0
SECTION
  2
HEADER
  9
$ACADVER
  1
AC1015
  9
$ACADMAINTVER
 70
     6
  9
$DWGCODEPAGE
  3
ANSI_932
  9
$INSBASE
 10
0.0
 20
0.0
 30
0.0
  9
$EXTMIN
 10
-211.2160423707
 20
-280.4981463946
 30
0.0
  9
$EXTMAX
 10
211.2160423707
 20
74.6211283424
 30
0.0
  9
$LIMMIN
 10
0.0
 20
0.0
  9
$LIMMAX
 10
420.0
 20
297.0
  9
$ORTHOMODE
 70
     0
  9
$REGENMODE
 70
     1
  9
$FILLMODE
 70
     1
  9
$QTEXTMODE
 70
     0
  9
$MIRRTEXT
 70
     1
  9
$LTSCALE
 40
1.0
  9
$ATTMODE
 70
     1
  9
$TEXTSIZE
 40
3.5
  9
$TRACEWID
 40
1.0
  9
$TEXTSTYLE
  7
Standard
  9
$CLAYER
  8
0
  9
$CELTYPE
  6
ByLayer
  9
$CECOLOR
 62
   256
  9
$CELTSCALE
 40
1.0
  9
$DISPSILH
 70
     0
  9
$DIMSCALE
 40
1.0
  9
$DIMASZ
 40
3.302
  9
$DIMEXO
 40
1.0
  9
$DIMDLI
 40
3.75
  9
$DIMRND
 40
0.0
  9
$DIMDLE
 40
0.0
  9
$DIMEXE
 40
1.0
  9
$DIMTP
 40
0.0
  9
$DIMTM
 40
0.0
  9
$DIMTXT
 40
3.5
  9
$DIMCEN
 40
2.5
  9
$DIMTSZ
 40
0.0
  9
$DIMTOL
 70
     0
  9
$DIMLIM
 70
     0
  9
$DIMTIH
 70
     1
  9
$DIMTOH
 70
     1
  9
$DIMSE1
 70
     0
  9
$DIMSE2
 70
     0
  9
$DIMTAD
 70
     1
  9
$DIMZIN
 70
     0
  9
$DIMBLK
  1

  9
$DIMASO
 70
     1
  9
$DIMSHO
 70
     1
  9
$DIMPOST
  1

  9
$DIMAPOST
  1

  9
$DIMALT
 70
     0
  9
$DIMALTD
 70
     3
  9
$DIMALTF
 40
0.0393700787
  9
$DIMLFAC
 40
1.0
  9
$DIMTOFL
 70
     1
  9
$DIMTVP
 40
0.0
  9
$DIMTIX
 70
     0
  9
$DIMSOXD
 70
     0
  9
$DIMSAH
 70
     0
  9
$DIMBLK1
  1

  9
$DIMBLK2
  1

  9
$DIMSTYLE
  2
ISO-25
  9
$DIMCLRD
 70
     0
  9
$DIMCLRE
 70
     0
  9
$DIMCLRT
 70
     0
  9
$DIMTFAC
 40
1.0
  9
$DIMGAP
 40
1.524
  9
$DIMJUST
 70
     0
  9
$DIMSD1
 70
     0
  9
$DIMSD2
 70
     0
  9
$DIMTOLJ
 70
     0
  9
$DIMTZIN
 70
     0
  9
$DIMALTZ
 70
     0
  9
$DIMALTTZ
 70
     0
  9
$DIMUPT
 70
     0
  9
$DIMDEC
 70
     2
  9
$DIMTDEC
 70
     2
  9
$DIMALTU
 70
     2
  9
$DIMALTTD
 70
     3
  9
$DIMTXSTY
  7
Standard
  9
$DIMAUNIT
 70
     0
  9
$DIMADEC
 70
     2
  9
$DIMALTRND
 40
0.0
  9
$DIMAZIN
 70
     0
  9
$DIMDSEP
 70
    44
  9
$DIMATFIT
 70
     3
  9
$DIMFRAC
 70
     0
  9
$DIMLDRBLK
  1

  9
$DIMLUNIT
 70
     2
  9
$DIMLWD
 70
    -2
  9
$DIMLWE
 70
    -2
  9
$DIMTMOVE
 70
     0
  9
$LUNITS
 70
     2
  9
$LUPREC
 70
     2
  9
$SKETCHINC
 40
1.0
  9
$FILLETRAD
 40
10.0
  9
$AUNITS
 70
     0
  9
$AUPREC
 70
     2
  9
$MENU
  1
.
  9
$ELEVATION
 40
0.0
  9
$PELEVATION
 40
0.0
  9
$THICKNESS
 40
0.0
  9
$LIMCHECK
 70
     0
  9
$CHAMFERA
 40
0.0
  9
$CHAMFERB
 40
0.0
  9
$CHAMFERC
 40
0.0
  9
$CHAMFERD
 40
0.0
  9
$SKPOLY
 70
     0
  9
$TDCREATE
 40
2461002.448835532
  9
$TDUCREATE
 40
2461002.157168866
  9
$TDUPDATE
 40
2461002.448920139
  9
$TDUUPDATE
 40
2461002.157253472
  9
$TDINDWG
 40
0.0000000116
  9
$TDUSRTIMER
 40
0.0000000116
  9
$USRTIMER
 70
     1
  9
$ANGBASE
 50
0.0
  9
$ANGDIR
 70
     0
  9
$PDMODE
 70
     0
  9
$PDSIZE
 40
-1.0
  9
$PLINEWID
 40
0.0
  9
$SPLFRAME
 70
     0
  9
$SPLINETYPE
 70
     6
  9
$SPLINESEGS
 70
     8
  9
$HANDSEED
  5
1CB
  9
$SURFTAB1
 70
     6
  9
$SURFTAB2
 70
     6
  9
$SURFTYPE
 70
     6
  9
$SURFU
 70
     6
  9
$SURFV
 70
     6
  9
$UCSBASE
  2

  9
$UCSNAME
  2

  9
$UCSORG
 10
0.0
 20
0.0
 30
0.0
  9
$UCSXDIR
 10
1.0
 20
0.0
 30
0.0
  9
$UCSYDIR
 10
0.0
 20
1.0
 30
0.0
  9
$UCSORTHOREF
  2

  9
$UCSORTHOVIEW
 70
     0
  9
$UCSORGTOP
 10
0.0
 20
0.0
 30
0.0
  9
$UCSORGBOTTOM
 10
0.0
 20
0.0
 30
0.0
  9
$UCSORGLEFT
 10
0.0
 20
0.0
 30
0.0
  9
$UCSORGRIGHT
 10
0.0
 20
0.0
 30
0.0
  9
$UCSORGFRONT
 10
0.0
 20
0.0
 30
0.0
  9
$UCSORGBACK
 10
0.0
 20
0.0
 30
0.0
  9
$PUCSBASE
  2

  9
$PUCSNAME
  2

  9
$PUCSORG
 10
0.0
 20
0.0
 30
0.0
  9
$PUCSXDIR
 10
1.0
 20
0.0
 30
0.0
  9
$PUCSYDIR
 10
0.0
 20
1.0
 30
0.0
  9
$PUCSORTHOREF
  2

  9
$PUCSORTHOVIEW
 70
     0
  9
$PUCSORGTOP
 10
0.0
 20
0.0
 30
0.0
  9
$PUCSORGBOTTOM
 10
0.0
 20
0.0
 30
0.0
  9
$PUCSORGLEFT
 10
0.0
 20
0.0
 30
0.0
  9
$PUCSORGRIGHT
 10
0.0
 20
0.0
 30
0.0
  9
$PUCSORGFRONT
 10
0.0
 20
0.0
 30
0.0
  9
$PUCSORGBACK
 10
0.0
 20
0.0
 30
0.0
  9
$USERI1
 70
     0
  9
$USERI2
 70
     0
  9
$USERI3
 70
     0
  9
$USERI4
 70
     0
  9
$USERI5
 70
     0
  9
$USERR1
 40
0.0
  9
$USERR2
 40
0.0
  9
$USERR3
 40
0.0
  9
$USERR4
 40
0.0
  9
$USERR5
 40
0.0
  9
$WORLDVIEW
 70
     1
  9
$SHADEDGE
 70
     3
  9
$SHADEDIF
 70
    70
  9
$TILEMODE
 70
     1
  9
$MAXACTVP
 70
    64
  9
$PINSBASE
 10
0.0
 20
0.0
 30
0.0
  9
$PLIMCHECK
 70
     0
  9
$PEXTMIN
 10
-237.5
 20
-300.0
 30
0.0
  9
$PEXTMAX
 10
237.5
 20
0.0
 30
0.0
  9
$PLIMMIN
 10
-274.4649805447
 20
-313.8618677043
  9
$PLIMMAX
 10
274.4649805447
 20
74.2704280156
  9
$UNITMODE
 70
     0
  9
$VISRETAIN
 70
     1
  9
$PLINEGEN
 70
     0
  9
$PSLTSCALE
 70
     1
  9
$TREEDEPTH
 70
  3020
  9
$CMLSTYLE
  2
Standard
  9
$CMLJUST
 70
     0
  9
$CMLSCALE
 40
20.0
  9
$PROXYGRAPHICS
 70
     1
  9
$MEASUREMENT
 70
     1
  9
$CELWEIGHT
370
    -1
  9
$ENDCAPS
280
     0
  9
$JOINSTYLE
280
     0
  9
$LWDISPLAY
290
     1
  9
$INSUNITS
 70
     4
  9
$HYPERLINKBASE
  1

  9
$STYLESHEET
  1

  9
$XEDIT
290
     1
  9
$CEPSNTYPE
380
     0
  9
$PSTYLEMODE
290
     1
  9
$FINGERPRINTGUID
  2
{F31D222B-416B-41FE-92D0-3D86E42D4BD7}
  9
$VERSIONGUID
  2
{FAEB1C32-E019-11D5-929B-00C0DF256EC4}
  9
$EXTNAMES
290
     1
  9
$PSVPSCALE
 40
0.0
  9
$OLESTARTUP
290
     0
  0
ENDSEC
  0
SECTION
  2
CLASSES
  0
CLASS
  1
ACDBDICTIONARYWDFLT
  2
AcDbDictionaryWithDefault
  3
ObjectDBX Classes
 90
        0
280
     0
281
     0
  0
CLASS
  1
VISUALSTYLE
  2
AcDbVisualStyle
  3
ObjectDBX Classes
 90
     4095
280
     0
281
     0
  0
CLASS
  1
MATERIAL
  2
AcDbMaterial
  3
ObjectDBX Classes
 90
     1153
280
     0
281
     0
  0
CLASS
  1
SCALE
  2
AcDbScale
  3
ObjectDBX Classes
 90
     1153
280
     0
281
     0
  0
CLASS
  1
TABLESTYLE
  2
AcDbTableStyle
  3
ObjectDBX Classes
 90
     4095
280
     0
281
     0
  0
CLASS
  1
MLEADERSTYLE
  2
AcDbMLeaderStyle
  3
ACDB_MLEADERSTYLE_CLASS
 90
     4095
280
     0
281
     0
  0
CLASS
  1
SUN
  2
AcDbSun
  3
SCENEOE
 90
     1153
280
     0
281
     0
  0
CLASS
  1
ACDBPLACEHOLDER
  2
AcDbPlaceHolder
  3
ObjectDBX Classes
 90
        0
280
     0
281
     0
  0
CLASS
  1
LAYOUT
  2
AcDbLayout
  3
ObjectDBX Classes
 90
        0
280
     0
281
     0
  0
ENDSEC
  0
SECTION
  2
TABLES
  0
TABLE
  2
VPORT
  5
8
330
0
100
AcDbSymbolTable
 70
     1
  0
VPORT
  5
29
330
8
100
AcDbSymbolTableRecord
100
AcDbViewportTableRecord
  2
*Active
 70
     0
 10
0.0
 20
0.0
 11
1.0
 21
1.0
 12
0.0
 22
-102.9385090261
 13
0.0
 23
0.0
 14
10.0
 24
10.0
 15
10.0
 25
10.0
 16
0.0
 26
0.0
 36
1.0
 17
0.0
 27
0.0
 37
0.0
 40
362.2216602317
 41
1.1895498634
 42
50.0
 43
0.0
 44
0.0
 50
0.0
 51
0.0
 71
     0
 72
   100
 73
     1
 74
     3
 75
     0
 76
     0
 77
     0
 78
     0
281
     0
 65
     1
110
0.0
120
0.0
130
0.0
111
1.0
121
0.0
131
0.0
112
0.0
122
1.0
132
0.0
 79
     0
146
0.0
  0
ENDTAB
  0
TABLE
  2
LTYPE
  5
5
330
0
100
AcDbSymbolTable
 70
     6
  0
LTYPE
  5
14
330
5
100
AcDbSymbolTableRecord
100
AcDbLinetypeTableRecord
  2
ByBlock
 70
     0
  3

 72
    65
 73
     0
 40
0.0
  0
LTYPE
  5
15
330
5
100
AcDbSymbolTableRecord
100
AcDbLinetypeTableRecord
  2
ByLayer
 70
     0
  3

 72
    65
 73
     0
 40
0.0
  0
LTYPE
  5
16
330
5
100
AcDbSymbolTableRecord
100
AcDbLinetypeTableRecord
  2
Continuous
 70
     0
  3
Solid line
 72
    65
 73
     0
 40
0.0
  0
LTYPE
  5
6E
330
5
100
AcDbSymbolTableRecord
100
AcDbLinetypeTableRecord
  2
HIDDEN
 70
     0
  3
Hidden __ __ __ __ __ __ __ __ __ __ __ __ __ __
 72
    65
 73
     2
 40
1.905
 49
1.27
 74
     0
 49
-0.635
 74
     0
  0
LTYPE
  5
6F
330
5
100
AcDbSymbolTableRecord
100
AcDbLinetypeTableRecord
  2
PHANTOM
 70
     0
  3
Phantom ______  __  __  ______  __  __  ______
 72
    65
 73
     6
 40
12.7
 49
6.35
 74
     0
 49
-1.27
 74
     0
 49
1.27
 74
     0
 49
-1.27
 74
     0
 49
1.27
 74
     0
 49
-1.27
 74
     0
  0
LTYPE
  5
70
330
5
100
AcDbSymbolTableRecord
100
AcDbLinetypeTableRecord
  2
CENTER
 70
     0
  3
Center ____ _ ____ _ ____ _ ____ _ ____ _ ____
 72
    65
 73
     4
 40
10.16
 49
6.35
 74
     0
 49
-1.27
 74
     0
 49
1.27
 74
     0
 49
-1.27
 74
     0
  0
LTYPE
  5
71
330
5
100
AcDbSymbolTableRecord
100
AcDbLinetypeTableRecord
  2
CENTERX2
 70
     0
  3
Center (2x) ________  __  ________  __  _____
 72
    65
 73
     4
 40
20.32
 49
12.7
 74
     0
 49
-2.54
 74
     0
 49
2.54
 74
     0
 49
-2.54
 74
     0
  0
LTYPE
  5
72
330
5
100
AcDbSymbolTableRecord
100
AcDbLinetypeTableRecord
  2
DOT2
 70
     0
  3
Dot (.5x) ........................................
 72
    65
 73
     2
 40
0.635
 49
0.0
 74
     0
 49
-0.635
 74
     0
  0
ENDTAB
  0
TABLE
  2
LAYER
  5
2
330
0
100
AcDbSymbolTable
 70
     1
  0
LAYER
  5
10
330
2
100
AcDbSymbolTableRecord
100
AcDbLayerTableRecord
  2
0
 70
     0
 62
     7
  6
Continuous
370
    -3
390
F
  0
ENDTAB
  0
TABLE
  2
STYLE
  5
3
330
0
100
AcDbSymbolTable
 70
     1
  0
STYLE
  5
11
330
3
100
AcDbSymbolTableRecord
100
AcDbTextStyleTableRecord
  2
Standard
 70
     0
 40
0.0
 41
1.0
 50
0.0
 71
     0
 42
3.5
  3
txt
  4

  0
ENDTAB
  0
TABLE
  2
VIEW
  5
6
330
0
100
AcDbSymbolTable
 70
     0
  0
ENDTAB
  0
TABLE
  2
UCS
  5
7
330
0
100
AcDbSymbolTable
 70
     0
  0
ENDTAB
  0
TABLE
  2
APPID
  5
9
330
0
100
AcDbSymbolTable
 70
     1
  0
APPID
  5
12
330
9
100
AcDbSymbolTableRecord
100
AcDbRegAppTableRecord
  2
ACAD
 70
     0
  0
ENDTAB
  0
TABLE
  2
DIMSTYLE
  5
A
330
0
100
AcDbSymbolTable
 70
     1
100
AcDbDimStyleTable
  0
DIMSTYLE
105
27
330
A
100
AcDbSymbolTableRecord
100
AcDbDimStyleTableRecord
  2
ISO-25
 70
     0
 41
2.5
 42
0.625
 43
3.75
 44
1.25
 73
     0
 74
     0
 77
     1
 78
     8
140
2.5
141
2.5
143
0.0393700787
147
0.625
171
     3
172
     1
178
     0
271
     2
272
     2
274
     3
278
    44
283
     0
284
     8
340
11
  0
ENDTAB
  0
TABLE
  2
BLOCK_RECORD
  5
1
330
0
100
AcDbSymbolTable
 70
     9
  0
BLOCK_RECORD
  5
1F
330
1
100
AcDbSymbolTableRecord
100
AcDbBlockTableRecord
  2
*Model_Space
340
22
  0
BLOCK_RECORD
  5
1B
330
1
100
AcDbSymbolTableRecord
100
AcDbBlockTableRecord
  2
*Paper_Space
340
1E
  0
BLOCK_RECORD
  5
23
330
1
100
AcDbSymbolTableRecord
100
AcDbBlockTableRecord
  2
*Paper_Space0
340
26
  0
BLOCK_RECORD
  5
B8
330
1
100
AcDbSymbolTableRecord
100
AcDbBlockTableRecord
  2
*Paper_Space1
340
B9
  0
BLOCK_RECORD
  5
CA
330
1
100
AcDbSymbolTableRecord
100
AcDbBlockTableRecord
  2
*Paper_Space2
340
CB
  0
BLOCK_RECORD
  5
DC
330
1
100
AcDbSymbolTableRecord
100
AcDbBlockTableRecord
  2
*Paper_Space3
340
DD
  0
BLOCK_RECORD
  5
EE
330
1
100
AcDbSymbolTableRecord
100
AcDbBlockTableRecord
  2
*Paper_Space4
340
EF
  0
BLOCK_RECORD
  5
10A
330
1
100
AcDbSymbolTableRecord
100
AcDbBlockTableRecord
  2
*Paper_Space5
340
10B
  0
BLOCK_RECORD
  5
132
330
1
100
AcDbSymbolTableRecord
100
AcDbBlockTableRecord
  2
*Paper_Space6
340
133
  0
BLOCK_RECORD
  5
15D
330
1
100
AcDbSymbolTableRecord
100
AcDbBlockTableRecord
  2
*Paper_Space7
340
15E
  0
BLOCK_RECORD
  5
18A
330
1
100
AcDbSymbolTableRecord
100
AcDbBlockTableRecord
  2
*Paper_Space8
340
18B
  0
ENDTAB
  0
ENDSEC
  0
SECTION
  2
BLOCKS
  0
BLOCK
  5
20
330
1F
100
AcDbEntity
  8
0
100
AcDbBlockBegin
  2
*Model_Space
 70
     0
 10
0.0
 20
0.0
 30
0.0
  3
*Model_Space
  1

  0
ENDBLK
  5
21
330
1F
100
AcDbEntity
  8
0
100
AcDbBlockEnd
  0
BLOCK
  5
1C
330
1B
100
AcDbEntity
 67
     1
  8
0
100
AcDbBlockBegin
  2
*Paper_Space
 70
     0
 10
0.0
 20
0.0
 30
0.0
  3
*Paper_Space
  1

  0
ENDBLK
  5
1D
330
1B
100
AcDbEntity
 67
     1
  8
0
100
AcDbBlockEnd
  0
BLOCK
  5
24
330
23
100
AcDbEntity
  8
0
100
AcDbBlockBegin
  2
*Paper_Space0
 70
     0
 10
0.0
 20
0.0
 30
0.0
  3
*Paper_Space0
  1

  0
SPLINE
  5
AA
330
23
100
AcDbEntity
  8
0
  6
Continuous
 62
     7
370
    15
100
AcDbSpline
210
0.0
220
0.0
230
1.0
 70
    24
 71
     3
 72
    14
 73
    10
 74
     0
 42
0.000000001
 43
0.00000001
 40
0.0
 40
0.0
 40
0.0
 40
0.0
 40
0.1249999999999999
 40
0.1249999999999999
 40
0.2499999999999999
 40
0.2499999999999999
 40
0.5
 40
0.5
 40
1.0
 40
1.0
 40
1.0
 40
1.0
 10
2.499999999999925
 20
-300.0
 30
0.0
 10
2.499999999999925
 20
-287.5060180512547
 30
0.0
 10
2.500000000000005
 20
-275.0079846874239
 30
0.0
 10
2.500000000000004
 20
-250.0106397573534
 30
0.0
 10
2.500000000000005
 20
-237.5109963503806
 30
0.0
 10
2.500000000000005
 20
-200.0112033266121
 30
0.0
 10
2.499999999999995
 20
-175.0101463101964
 30
0.0
 10
2.499999999999995
 20
-100.0065405831538
 30
0.0
 10
2.5
 20
-50.00326584004015
 30
0.0
 10
2.5
 20
0.0
 30
0.0
  0
SPLINE
  5
AB
330
23
100
AcDbEntity
  8
0
  6
Continuous
 62
     7
370
    15
100
AcDbSpline
210
0.0
220
0.0
230
1.0
 70
    24
 71
     3
 72
    10
 73
     6
 74
     0
 42
0.000000001
 43
0.00000001
 40
0.476286704937226
 40
0.476286704937226
 40
0.476286704937226
 40
0.476286704937226
 40
0.5000000063784834
 40
0.5000000063784834
 40
0.5237133014412574
 40
0.5237133014412574
 40
0.5237133014412574
 40
0.5237133014412574
 10
-2.499980094698276
 20
-300.0
 30
0.0
 10
-1.667695357158353
 20
-300.0
 30
0.0
 10
-0.8338536055175669
 20
-300.0
 30
0.0
 10
0.8338533812248209
 20
-300.0
 30
0.0
 10
1.667694908579241
 20
-300.0
 30
0.0
 10
2.499979423086042
 20
-300.0
 30
0.0
  0
SPLINE
  5
AD
330
23
100
AcDbEntity
  8
0
  6
Continuous
 62
     7
370
    15
100
AcDbSpline
210
0.0
220
0.0
230
1.0
 70
     8
 71
     3
 72
    14
 73
    10
 74
     0
 42
0.000000001
 43
0.00000001
 40
0.0
 40
0.0
 40
0.0
 40
0.0
 40
0.1249999999999999
 40
0.1249999999999999
 40
0.2499999999999998
 40
0.2499999999999998
 40
0.4999999999999999
 40
0.4999999999999999
 40
1.0
 40
1.0
 40
1.0
 40
1.0
 10
-2.499999995204755
 20
-300.0
 30
0.0
 10
-2.499999995204755
 20
-287.5060180512349
 30
0.0
 10
-2.500000000000001
 20
-275.0079846872791
 30
0.0
 10
-2.500000000000001
 20
-250.0106397572218
 30
0.0
 10
-2.49999999999999
 20
-237.5109963502554
 30
0.0
 10
-2.499999999999991
 20
-200.0112033265067
 30
0.0
 10
-2.499999999999999
 20
-175.0101463101042
 30
0.0
 10
-2.499999999999998
 20
-100.0065405831013
 30
0.0
 10
-2.5
 20
-50.00326584001376
 30
0.0
 10
-2.5
 20
0.0
 30
0.0
  0
SPLINE
  5
AE
330
23
100
AcDbEntity
  8
0
  6
Continuous
 62
     7
370
    15
100
AcDbSpline
210
0.0
220
0.0
230
1.0
 70
     8
 71
     3
 72
    14
 73
    10
 74
     0
 42
0.000000001
 43
0.00000001
 40
0.0
 40
0.0
 40
0.0
 40
0.0
 40
0.1249999999999999
 40
0.1249999999999999
 40
0.2499999999999998
 40
0.2499999999999998
 40
0.4999999999999998
 40
0.4999999999999998
 40
1.0
 40
1.0
 40
1.0
 40
1.0
 10
-49.9372918344646
 20
-300.0
 30
0.0
 10
-57.76836946424211
 20
-287.5099866069092
 30
0.0
 10
-65.58732335377417
 20
-275.0123891441606
 30
0.0
 10
-81.22317659221332
 20
-250.0159089899387
 30
0.0
 10
-89.03878804058499
 20
-237.5162206454926
 30
0.0
 10
-112.4839120450383
 20
-200.0160856995316
 30
0.0
 10
-128.1115011639201
 20
-175.0144359907918
 30
0.0
 10
-174.9936326280067
 20
-100.0090906062066
 30
0.0
 10
-206.2467899681805
 20
-50.00452882515587
 30
0.0
 10
-237.5
 20
0.0
 30
0.0
  0
SPLINE
  5
AF
330
23
100
AcDbEntity
  8
0
  6
Continuous
 62
     7
370
    15
100
AcDbSpline
210
0.0
220
0.0
230
1.0
 70
    24
 71
     3
 72
     8
 73
     4
 74
     0
 42
0.000000001
 43
0.00000001
 40
0.459569272974285
 40
0.459569272974285
 40
0.459569272974285
 40
0.459569272974285
 40
0.5
 40
0.5
 40
0.5
 40
0.5
 10
-50.0
 20
-300.0
 30
0.0
 10
-50.00000000000145
 20
-300.0
 30
0.0
 10
-49.97901809710431
 20
-300.0
 30
0.0
 10
-49.93729356353769
 20
-300.0
 30
0.0
  0
SPLINE
  5
B2
330
23
100
AcDbEntity
  8
0
  6
Continuous
 62
     7
370
    15
100
AcDbSpline
210
0.0
220
0.0
230
1.0
 70
     8
 71
     3
 72
    14
 73
    10
 74
     0
 42
0.000000001
 43
0.00000001
 40
0.0
 40
0.0
 40
0.0
 40
0.0
 40
0.5000000000000001
 40
0.5000000000000001
 40
0.75
 40
0.75
 40
0.8750000000000001
 40
0.8750000000000001
 40
1.0
 40
1.0
 40
1.0
 40
1.0
 10
237.5
 20
0.0
 30
0.0
 10
206.2467901935191
 20
-50.00452846461847
 30
0.0
 10
174.9936330849688
 20
-100.0090898750589
 30
0.0
 10
128.1115019445821
 20
-175.0144347418672
 30
0.0
 10
112.4839131473095
 20
-200.0160839360937
 30
0.0
 10
89.03878943248127
 20
-237.5162184193602
 30
0.0
 10
81.22317804008263
 20
-250.0159066746266
 30
0.0
 10
65.58732458370162
 20
-275.0123871785748
 30
0.0
 10
57.76837051311265
 20
-287.5099849340349
 30
0.0
 10
49.9372918344646
 20
-300.0
 30
0.0
  0
LINE
  5
B5
330
23
100
AcDbEntity
  8
0
  6
Continuous
 62
     7
370
    15
100
AcDbLine
 10
-237.5
 20
0.0
 30
0.0
 11
237.5
 21
0.0
 31
0.0
  0
LINE
  5
B6
330
23
100
AcDbEntity
  8
0
  6
Continuous
 62
     7
370
    15
100
AcDbLine
 10
-49.9377267555
 20
-300.0
 30
0.0
 11
-2.5
 21
-300.0
 31
0.0
  0
LINE
  5
B7
330
23
100
AcDbEntity
  8
0
  6
Continuous
 62
     7
370
    15
100
AcDbLine
 10
2.5
 20
-300.0
 30
0.0
 11
49.9377185032
 21
-300.0
 31
0.0
  0
VIEWPORT
  5
1B9
330
23
100
AcDbEntity
  8
0
100
AcDbViewport
 10
0.0
 20
0.0
 30
0.0
 40
205.6
 41
156.0
 68
     1
 69
     1
 12
0.0
 22
-102.9385090261
 13
0.0
 23
0.0
 14
10.0
 24
10.0
 15
10.0
 25
10.0
 16
0.0
 26
0.0
 36
1.0
 17
0.0
 27
0.0
 37
0.0
 42
50.0
 43
0.0
 44
0.0
 45
362.2216602317
 50
0.0
 51
0.0
 72
   100
 90
   557152
  1

281
     0
 71
     1
 74
     0
110
0.0
120
0.0
130
0.0
111
1.0
121
0.0
131
0.0
112
0.0
122
1.0
132
0.0
 79
     0
146
0.0
  0
ENDBLK
  5
25
330
23
100
AcDbEntity
  8
0
100
AcDbBlockEnd
  0
BLOCK
  5
BA
330
B8
100
AcDbEntity
  8
0
100
AcDbBlockBegin
  2
*Paper_Space1
 70
     0
 10
0.0
 20
0.0
 30
0.0
  3
*Paper_Space1
  1

  0
SPLINE
  5
BC
330
B8
100
AcDbEntity
  8
0
  6
Continuous
 62
     7
370
    15
100
AcDbSpline
210
0.0
220
0.0
230
1.0
 70
    24
 71
     3
 72
    10
 73
     6
 74
     0
 42
0.000000001
 43
0.00000001
 40
0.47628670493751
 40
0.47628670493751
 40
0.47628670493751
 40
0.47628670493751
 40
0.5000000063790774
 40
0.5000000063790774
 40
0.5237133014415674
 40
0.5237133014415674
 40
0.5237133014415674
 40
0.5237133014415674
 10
-2.499980094730917
 20
-300.0
 30
0.0
 10
-1.667695357180157
 20
-300.0
 30
0.0
 10
-0.8338536055284721
 20
-300.0
 30
0.0
 10
0.8338533812148292
 20
-300.0
 30
0.0
 10
1.667694908559264
 20
-300.0
 30
0.0
 10
2.499979423056136
 20
-300.0
 30
0.0
  0
SPLINE
  5
BD
330
B8
100
AcDbEntity
  8
0
  6
Continuous
 62
     7
370
    15
100
AcDbSpline
210
0.0
220
0.0
230
1.0
 70
    24
 71
     3
 72
    14
 73
    10
 74
     0
 42
0.000000001
 43
0.00000001
 40
0.0
 40
0.0
 40
0.0
 40
0.0
 40
0.4999999999999998
 40
0.4999999999999998
 40
0.7499999999999998
 40
0.7499999999999998
 40
0.8749999999999998
 40
0.8749999999999998
 40
1.0
 40
1.0
 40
1.0
 40
1.0
 10
-2.5
 20
0.0
 30
0.0
 10
-2.5
 20
-50.00326589637899
 30
0.0
 10
-2.499999999999988
 20
-100.0065407002736
 30
0.0
 10
-2.499999999999988
 20
-175.0101465120697
 30
0.0
 10
-2.499999999999997
 20
-200.0112035343864
 30
0.0
 10
-2.499999999999996
 20
-237.5109968074671
 30
0.0
 10
-2.500000000000011
 20
-250.0106402739717
 30
0.0
 10
-2.500000000000011
 20
-275.0079851639919
 30
0.0
 10
-2.49999999999539
 20
-287.506018455347
 30
0.0
 10
-2.49999999999539
 20
-300.0
 30
0.0
  0
SPLINE
  5
BF
330
B8
100
AcDbEntity
  8
0
  6
Continuous
 62
     7
370
    15
100
AcDbSpline
210
0.0
220
0.0
230
1.0
 70
    24
 71
     3
 72
    14
 73
    10
 74
     0
 42
0.000000001
 43
0.00000001
 40
0.0
 40
0.0
 40
0.0
 40
0.0
 40
0.5
 40
0.5
 40
0.75
 40
0.75
 40
0.875
 40
0.875
 40
1.0
 40
1.0
 40
1.0
 40
1.0
 10
2.5
 20
0.0
 30
0.0
 10
2.499999999999999
 20
-50.00326589637899
 30
0.0
 10
2.500000000000001
 20
-100.0065407002735
 30
0.0
 10
2.500000000000002
 20
-175.0101465120697
 30
0.0
 10
2.499999999999992
 20
-200.0112035343863
 30
0.0
 10
2.499999999999993
 20
-237.5109968074671
 30
0.0
 10
2.5
 20
-250.0106402739717
 30
0.0
 10
2.500000000000001
 20
-275.0079851639919
 30
0.0
 10
2.5
 20
-287.5060184553469
 30
0.0
 10
2.5
 20
-300.0000000000001
 30
0.0
  0
SPLINE
  5
C0
330
B8
100
AcDbEntity
  8
0
  6
Continuous
 62
     7
370
    15
100
AcDbSpline
210
0.0
220
0.0
230
1.0
 70
     8
 71
     3
 72
    14
 73
    10
 74
     0
 42
0.000000001
 43
0.00000001
 40
0.0
 40
0.0
 40
0.0
 40
0.0
 40
0.5000000000000001
 40
0.5000000000000001
 40
0.7499999999999999
 40
0.7499999999999999
 40
0.875
 40
0.875
 40
1.0
 40
1.0
 40
1.0
 40
1.0
 10
-237.5
 20
0.0
 30
0.0
 10
-206.246790193519
 20
-50.0045284646185
 30
0.0
 10
-174.9936330849688
 20
-100.0090898750589
 30
0.0
 10
-128.111501944582
 20
-175.0144347418672
 30
0.0
 10
-112.4839131473096
 20
-200.0160839360937
 30
0.0
 10
-89.03878943248128
 20
-237.5162184193602
 30
0.0
 10
-81.22317804008263
 20
-250.0159066746266
 30
0.0
 10
-65.58732458370159
 20
-275.0123871785747
 30
0.0
 10
-57.76837051311264
 20
-287.5099849340349
 30
0.0
 10
-49.9372918344646
 20
-300.0
 30
0.0
  0
SPLINE
  5
C1
330
B8
100
AcDbEntity
  8
0
  6
Continuous
 62
     7
370
    15
100
AcDbSpline
210
0.0
220
0.0
230
1.0
 70
    24
 71
     3
 72
     8
 73
     4
 74
     0
 42
0.000000001
 43
0.00000001
 40
0.459569272974286
 40
0.459569272974286
 40
0.459569272974286
 40
0.459569272974286
 40
0.5
 40
0.5
 40
0.5
 40
0.5
 10
-50.00000000000001
 20
-300.0
 30
0.0
 10
-50.00000000000144
 20
-300.0
 30
0.0
 10
-49.97901809710433
 20
-300.0
 30
0.0
 10
-49.93729356353771
 20
-300.0
 30
0.0
  0
SPLINE
  5
C4
330
B8
100
AcDbEntity
  8
0
  6
Continuous
 62
     7
370
    15
100
AcDbSpline
210
0.0
220
0.0
230
1.0
 70
     8
 71
     3
 72
    14
 73
    10
 74
     0
 42
0.000000001
 43
0.00000001
 40
0.0
 40
0.0
 40
0.0
 40
0.0
 40
0.1250000000000001
 40
0.1250000000000001
 40
0.2500000000000002
 40
0.2500000000000002
 40
0.5
 40
0.5
 40
1.0
 40
1.0
 40
1.0
 40
1.0
 10
49.9372918344646
 20
-300.0
 30
0.0
 10
57.76836946424206
 20
-287.5099866069091
 30
0.0
 10
65.58732335377418
 20
-275.0123891441605
 30
0.0
 10
81.2231765922133
 20
-250.0159089899387
 30
0.0
 10
89.03878804058496
 20
-237.5162206454925
 30
0.0
 10
112.4839120450383
 20
-200.0160856995317
 30
0.0
 10
128.1115011639201
 20
-175.0144359907919
 30
0.0
 10
174.9936326280066
 20
-100.0090906062067
 30
0.0
 10
206.2467899681805
 20
-50.00452882515584
 30
0.0
 10
237.5
 20
0.0000000000000278
 30
0.0
  0
LINE
  5
C7
330
B8
100
AcDbEntity
  8
0
  6
Continuous
 62
     7
370
    15
100
AcDbLine
 10
237.5
 20
0.0
 30
0.0
 11
-237.5
 21
0.0
 31
0.0
  0
LINE
  5
C8
330
B8
100
AcDbEntity
  8
0
  6
Continuous
 62
     7
370
    15
100
AcDbLine
 10
-2.5
 20
-300.0
 30
0.0
 11
-49.9376120765
 21
-300.0
 31
0.0
  0
LINE
  5
C9
330
B8
100
AcDbEntity
  8
0
  6
Continuous
 62
     7
370
    15
100
AcDbLine
 10
49.9376232527
 20
-300.0
 30
0.0
 11
2.5
 21
-300.0
 31
0.0
  0
VIEWPORT
  5
1BB
330
B8
100
AcDbEntity
  8
0
100
AcDbViewport
 10
0.0
 20
0.0
 30
0.0
 40
205.6
 41
156.0
 68
     1
 69
     1
 12
0.0
 22
-102.9385090261
 13
0.0
 23
0.0
 14
10.0
 24
10.0
 15
10.0
 25
10.0
 16
0.0
 26
0.0
 36
1.0
 17
0.0
 27
0.0
 37
0.0
 42
50.0
 43
0.0
 44
0.0
 45
362.2216602317
 50
0.0
 51
0.0
 72
   100
 90
   557152
  1

281
     0
 71
     1
 74
     0
110
0.0
120
0.0
130
0.0
111
1.0
121
0.0
131
0.0
112
0.0
122
1.0
132
0.0
 79
     0
146
0.0
  0
ENDBLK
  5
BB
330
B8
100
AcDbEntity
  8
0
100
AcDbBlockEnd
  0
BLOCK
  5
CC
330
CA
100
AcDbEntity
  8
0
100
AcDbBlockBegin
  2
*Paper_Space2
 70
     0
 10
0.0
 20
0.0
 30
0.0
  3
*Paper_Space2
  1

  0
SPLINE
  5
CE
330
CA
100
AcDbEntity
  8
0
  6
Continuous
 62
     7
370
    15
100
AcDbSpline
210
0.0
220
0.0
230
1.0
 70
    24
 71
     3
 72
    14
 73
    10
 74
     0
 42
0.000000001
 43
0.00000001
 40
0.0
 40
0.0
 40
0.0
 40
0.0
 40
0.1250000000000001
 40
0.1250000000000001
 40
0.2500000000000002
 40
0.2500000000000002
 40
0.5
 40
0.5
 40
1.0
 40
1.0
 40
1.0
 40
1.0
 10
-2.50000000000021
 20
-300.0
 30
0.0
 10
-2.50000000000021
 20
-287.5099866069091
 30
0.0
 10
-2.499999999999999
 20
-275.0123891441605
 30
0.0
 10
-2.499999999999998
 20
-250.0159089899387
 30
0.0
 10
-2.49999999999999
 20
-237.5162206454925
 30
0.0
 10
-2.49999999999999
 20
-200.0160856995317
 30
0.0
 10
-2.499999999999995
 20
-175.0144359907919
 30
0.0
 10
-2.499999999999995
 20
-100.0090906062067
 30
0.0
 10
-2.5
 20
-50.00452882515584
 30
0.0
 10
-2.5
 20
0.0000000000000278
 30
0.0
  0
SPLINE
  5
D0
330
CA
100
AcDbEntity
  8
0
  6
Continuous
 62
     7
370
    15
100
AcDbSpline
210
0.0
220
0.0
230
1.0
 70
    24
 71
     3
 72
    14
 73
    10
 74
     0
 42
0.000000001
 43
0.00000001
 40
0.0
 40
0.0
 40
0.0
 40
0.0
 40
0.1249999999999999
 40
0.1249999999999999
 40
0.2499999999999998
 40
0.2499999999999998
 40
0.4999999999999998
 40
0.4999999999999998
 40
1.0
 40
1.0
 40
1.0
 40
1.0
 10
2.499999999999875
 20
-300.0
 30
0.0
 10
2.499999999999876
 20
-287.5099866069092
 30
0.0
 10
2.500000000000001
 20
-275.0123891441606
 30
0.0
 10
2.5
 20
-250.0159089899387
 30
0.0
 10
2.5
 20
-237.5162206454926
 30
0.0
 10
2.499999999999999
 20
-200.0160856995316
 30
0.0
 10
2.499999999999969
 20
-175.0144359907918
 30
0.0
 10
2.499999999999969
 20
-100.0090906062066
 30
0.0
 10
2.500000000000001
 20
-50.00452882515587
 30
0.0
 10
2.5
 20
0.0
 30
0.0
  0
SPLINE
  5
D1
330
CA
100
AcDbEntity
  8
0
  6
Continuous
 62
     7
370
    15
100
AcDbSpline
210
0.0
220
0.0
230
1.0
 70
    24
 71
     3
 72
    10
 73
     6
 74
     0
 42
0.000000001
 43
0.00000001
 40
0.459569272974285
 40
0.459569272974285
 40
0.459569272974285
 40
0.459569272974285
 40
0.500000010048489
 40
0.500000010048489
 40
0.5404307370742041
 40
0.5404307370742041
 40
0.5404307370742041
 40
0.5404307370742041
 10
-2.499966131034619
 20
-300.0
 30
0.0
 10
-1.667688235240911
 20
-300.0
 30
0.0
 10
-0.8338536532455547
 20
-300.0
 30
0.0
 10
0.8338534460029738
 20
-300.0
 30
0.0
 10
1.667687820765255
 20
-300.0
 30
0.0
 10
2.499965510481824
 20
-300.0
 30
0.0
  0
SPLINE
  5
D2
330
CA
100
AcDbEntity
  8
0
  6
Continuous
 62
     7
370
    15
100
AcDbSpline
210
0.0
220
0.0
230
1.0
 70
     8
 71
     3
 72
    14
 73
    10
 74
     0
 42
0.000000001
 43
0.00000001
 40
0.0
 40
0.0
 40
0.0
 40
0.0
 40
0.5
 40
0.5
 40
0.75
 40
0.75
 40
0.875
 40
0.875
 40
1.0
 40
1.0
 40
1.0
 40
1.0
 10
-162.5
 20
0.0
 30
0.0
 10
-143.7482596406634
 20
-50.00326589637899
 30
0.0
 10
-124.9965429149453
 20
-100.0065407002735
 30
0.0
 10
-96.86548473790442
 20
-175.0101465120697
 30
0.0
 10
-87.48807776328331
 20
-200.0112035343863
 30
0.0
 10
-73.41719352511299
 20
-237.5109968074671
 30
0.0
 10
-68.72613294970827
 20
-250.0106402739717
 30
0.0
 10
-59.33884091324624
 20
-275.0079851639919
 30
0.0
 10
-54.64349308383849
 20
-287.5060184553469
 30
0.0
 10
-49.93735706950969
 20
-300.0000000000001
 30
0.0
  0
SPLINE
  5
D5
330
CA
100
AcDbEntity
  8
0
  6
Continuous
 62
     7
370
    15
100
AcDbSpline
210
0.0
220
0.0
230
1.0
 70
    24
 71
     3
 72
     8
 73
     4
 74
     0
 42
0.000000001
 43
0.00000001
 40
0.47628670493751
 40
0.47628670493751
 40
0.47628670493751
 40
0.47628670493751
 40
0.5
 40
0.5
 40
0.5
 40
0.5
 10
-50.0
 20
-300.0
 30
0.0
 10
-50.00000000000834
 20
-300.0
 30
0.0
 10
-49.97905115285923
 20
-300.0
 30
0.0
 10
-49.93735810031002
 20
-300.0
 30
0.0
  0
SPLINE
  5
D6
330
CA
100
AcDbEntity
  8
0
  6
Continuous
 62
     7
370
    15
100
AcDbSpline
210
0.0
220
0.0
230
1.0
 70
     8
 71
     3
 72
    14
 73
    10
 74
     0
 42
0.000000001
 43
0.00000001
 40
0.0
 40
0.0
 40
0.0
 40
0.0
 40
0.1249999999999999
 40
0.1249999999999999
 40
0.2499999999999998
 40
0.2499999999999998
 40
0.4999999999999999
 40
0.4999999999999999
 40
1.0
 40
1.0
 40
1.0
 40
1.0
 10
49.9373570699901
 20
-300.0
 30
0.0
 10
54.64349323645622
 20
-287.5060180512349
 30
0.0
 10
59.33884109235248
 20
-275.0079846872791
 30
0.0
 10
68.72613314367872
 20
-250.0106397572218
 30
0.0
 10
73.41719369669194
 20
-237.5109963502554
 30
0.0
 10
87.48807784124227
 20
-200.0112033265067
 30
0.0
 10
96.86548481365817
 20
-175.0101463101042
 30
0.0
 10
124.9965429588843
 20
-100.0065405831013
 30
0.0
 10
143.7482596618009
 20
-50.00326584001376
 30
0.0
 10
162.5
 20
0.0
 30
0.0
  0
LINE
  5
D9
330
CA
100
AcDbEntity
  8
0
  6
Continuous
 62
     7
370
    15
100
AcDbLine
 10
162.5
 20
0.0
 30
0.0
 11
-162.5
 21
0.0
 31
0.0
  0
LINE
  5
DA
330
CA
100
AcDbEntity
  8
0
  6
Continuous
 62
     7
370
    15
100
AcDbLine
 10
-2.5
 20
-300.0
 30
0.0
 11
-49.9375377729
 21
-300.0
 31
0.0
  0
LINE
  5
DB
330
CA
100
AcDbEntity
  8
0
  6
Continuous
 62
     7
370
    15
100
AcDbLine
 10
49.9375432191
 20
-300.0
 30
0.0
 11
2.5
 21
-300.0
 31
0.0
  0
VIEWPORT
  5
1BD
330
CA
100
AcDbEntity
  8
0
100
AcDbViewport
 10
0.0
 20
0.0
 30
0.0
 40
205.6
 41
156.0
 68
     1
 69
     1
 12
0.0
 22
-102.9385090261
 13
0.0
 23
0.0
 14
10.0
 24
10.0
 15
10.0
 25
10.0
 16
0.0
 26
0.0
 36
1.0
 17
0.0
 27
0.0
 37
0.0
 42
50.0
 43
0.0
 44
0.0
 45
362.2216602317
 50
0.0
 51
0.0
 72
   100
 90
   557152
  1

281
     0
 71
     1
 74
     0
110
0.0
120
0.0
130
0.0
111
1.0
121
0.0
131
0.0
112
0.0
122
1.0
132
0.0
 79
     0
146
0.0
  0
ENDBLK
  5
CD
330
CA
100
AcDbEntity
  8
0
100
AcDbBlockEnd
  0
BLOCK
  5
DE
330
DC
100
AcDbEntity
  8
0
100
AcDbBlockBegin
  2
*Paper_Space3
 70
     0
 10
0.0
 20
0.0
 30
0.0
  3
*Paper_Space3
  1

  0
SPLINE
  5
E0
330
DC
100
AcDbEntity
  8
0
  6
Continuous
 62
     7
370
    15
100
AcDbSpline
210
0.0
220
0.0
230
1.0
 70
    24
 71
     3
 72
    10
 73
     6
 74
     0
 42
0.000000001
 43
0.00000001
 40
0.459569272974286
 40
0.459569272974286
 40
0.459569272974286
 40
0.459569272974286
 40
0.50000001004849
 40
0.50000001004849
 40
0.5404307370742041
 40
0.5404307370742041
 40
0.5404307370742041
 40
0.5404307370742041
 10
-2.499966131034607
 20
-300.0000000000001
 30
0.0
 10
-1.667688235240898
 20
-300.0000000000001
 30
0.0
 10
-0.8338536532455416
 20
-300.0000000000001
 30
0.0
 10
0.8338534460029648
 20
-300.0
 30
0.0
 10
1.667687820765224
 20
-300.0
 30
0.0
 10
2.499965510481773
 20
-300.0
 30
0.0
  0
SPLINE
  5
E1
330
DC
100
AcDbEntity
  8
0
  6
Continuous
 62
     7
370
    15
100
AcDbSpline
210
0.0
220
0.0
230
1.0
 70
    24
 71
     3
 72
    14
 73
    10
 74
     0
 42
0.000000001
 43
0.00000001
 40
0.0
 40
0.0
 40
0.0
 40
0.0
 40
0.5000000000000001
 40
0.5000000000000001
 40
0.75
 40
0.75
 40
0.8750000000000001
 40
0.8750000000000001
 40
1.0
 40
1.0
 40
1.0
 40
1.0
 10
-2.5
 20
0.0
 30
0.0
 10
-2.5
 20
-50.00452846461847
 30
0.0
 10
-2.499999999999996
 20
-100.0090898750589
 30
0.0
 10
-2.499999999999996
 20
-175.0144347418672
 30
0.0
 10
-2.499999999999997
 20
-200.0160839360937
 30
0.0
 10
-2.499999999999997
 20
-237.5162184193602
 30
0.0
 10
-2.499999999999992
 20
-250.0159066746266
 30
0.0
 10
-2.499999999999992
 20
-275.0123871785748
 30
0.0
 10
-2.5
 20
-287.5099849340349
 30
0.0
 10
-2.5
 20
-300.0
 30
0.0
  0
SPLINE
  5
E2
330
DC
100
AcDbEntity
  8
0
  6
Continuous
 62
     7
370
    15
100
AcDbSpline
210
0.0
220
0.0
230
1.0
 70
    24
 71
     3
 72
    14
 73
    10
 74
     0
 42
0.000000001
 43
0.00000001
 40
0.0
 40
0.0
 40
0.0
 40
0.0
 40
0.5000000000000001
 40
0.5000000000000001
 40
0.7499999999999999
 40
0.7499999999999999
 40
0.875
 40
0.875
 40
1.0
 40
1.0
 40
1.0
 40
1.0
 10
2.5
 20
0.0
 30
0.0
 10
2.5
 20
-50.0045284646185
 30
0.0
 10
2.500000000000006
 20
-100.0090898750589
 30
0.0
 10
2.500000000000004
 20
-175.0144347418672
 30
0.0
 10
2.5
 20
-200.0160839360937
 30
0.0
 10
2.499999999999999
 20
-237.5162184193602
 30
0.0
 10
2.500000000000004
 20
-250.0159066746266
 30
0.0
 10
2.500000000000005
 20
-275.0123871785747
 30
0.0
 10
2.5
 20
-287.5099849340349
 30
0.0
 10
2.5
 20
-300.0
 30
0.0
  0
SPLINE
  5
E4
330
DC
100
AcDbEntity
  8
0
  6
Continuous
 62
     7
370
    15
100
AcDbSpline
210
0.0
220
0.0
230
1.0
 70
     8
 71
     3
 72
    14
 73
    10
 74
     0
 42
0.000000001
 43
0.00000001
 40
0.0
 40
0.0
 40
0.0
 40
0.0
 40
0.1249999999999999
 40
0.1249999999999999
 40
0.2499999999999999
 40
0.2499999999999999
 40
0.5
 40
0.5
 40
1.0
 40
1.0
 40
1.0
 40
1.0
 10
-49.9373570695097
 20
-300.0
 30
0.0
 10
-54.64349323604876
 20
-287.5060180512547
 30
0.0
 10
-59.33884109229801
 20
-275.0079846874239
 30
0.0
 10
-68.72613314362924
 20
-250.0106397573534
 30
0.0
 10
-73.41719369664499
 20
-237.5109963503806
 30
0.0
 10
-87.48807784120275
 20
-200.0112033266121
 30
0.0
 10
-96.86548481362358
 20
-175.0101463101964
 30
0.0
 10
-124.9965429588647
 20
-100.0065405831538
 30
0.0
 10
-143.748259661791
 20
-50.00326584004015
 30
0.0
 10
-162.5
 20
0.0
 30
0.0
  0
SPLINE
  5
E7
330
DC
100
AcDbEntity
  8
0
  6
Continuous
 62
     7
370
    15
100
AcDbSpline
210
0.0
220
0.0
230
1.0
 70
    24
 71
     3
 72
     8
 73
     4
 74
     0
 42
0.000000001
 43
0.00000001
 40
0.476286704937226
 40
0.476286704937226
 40
0.476286704937226
 40
0.476286704937226
 40
0.5
 40
0.5
 40
0.5
 40
0.5
 10
-50.0
 20
-300.0
 30
0.0
 10
-50.00000000000834
 20
-300.0
 30
0.0
 10
-49.97905115285873
 20
-300.0
 30
0.0
 10
-49.93735810030853
 20
-300.0
 30
0.0
  0
SPLINE
  5
E8
330
DC
100
AcDbEntity
  8
0
  6
Continuous
 62
     7
370
    15
100
AcDbSpline
210
0.0
220
0.0
230
1.0
 70
     8
 71
     3
 72
    14
 73
    10
 74
     0
 42
0.000000001
 43
0.00000001
 40
0.0
 40
0.0
 40
0.0
 40
0.0
 40
0.4999999999999998
 40
0.4999999999999998
 40
0.7499999999999998
 40
0.7499999999999998
 40
0.8749999999999998
 40
0.8749999999999998
 40
1.0
 40
1.0
 40
1.0
 40
1.0
 10
162.5
 20
0.0
 30
0.0
 10
143.7482596406634
 20
-50.00326589637899
 30
0.0
 10
124.9965429149453
 20
-100.0065407002736
 30
0.0
 10
96.86548473790445
 20
-175.0101465120697
 30
0.0
 10
87.48807776328336
 20
-200.0112035343864
 30
0.0
 10
73.41719352511298
 20
-237.5109968074671
 30
0.0
 10
68.72613294970827
 20
-250.0106402739717
 30
0.0
 10
59.33884091324623
 20
-275.0079851639919
 30
0.0
 10
54.64349308383874
 20
-287.506018455347
 30
0.0
 10
49.93735706951001
 20
-300.0
 30
0.0
  0
LINE
  5
EB
330
DC
100
AcDbEntity
  8
0
  6
Continuous
 62
     7
370
    15
100
AcDbLine
 10
-162.5
 20
0.0
 30
0.0
 11
162.5
 21
0.0
 31
0.0
  0
LINE
  5
EC
330
DC
100
AcDbEntity
  8
0
  6
Continuous
 62
     7
370
    15
100
AcDbLine
 10
-49.9376326427
 20
-300.0
 30
0.0
 11
-2.5
 21
-300.0
 31
0.0
  0
LINE
  5
ED
330
DC
100
AcDbEntity
  8
0
  6
Continuous
 62
     7
370
    15
100
AcDbLine
 10
2.5
 20
-300.0
 30
0.0
 11
49.9376253228
 21
-300.0
 31
0.0
  0
VIEWPORT
  5
1BF
330
DC
100
AcDbEntity
  8
0
100
AcDbViewport
 10
0.0
 20
0.0
 30
0.0
 40
205.6
 41
156.0
 68
     1
 69
     1
 12
0.0
 22
-102.9385090261
 13
0.0
 23
0.0
 14
10.0
 24
10.0
 15
10.0
 25
10.0
 16
0.0
 26
0.0
 36
1.0
 17
0.0
 27
0.0
 37
0.0
 42
50.0
 43
0.0
 44
0.0
 45
362.2216602317
 50
0.0
 51
0.0
 72
   100
 90
   557152
  1

281
     0
 71
     1
 74
     0
110
0.0
120
0.0
130
0.0
111
1.0
121
0.0
131
0.0
112
0.0
122
1.0
132
0.0
 79
     0
146
0.0
  0
ENDBLK
  5
DF
330
DC
100
AcDbEntity
  8
0
100
AcDbBlockEnd
  0
BLOCK
  5
F0
330
EE
100
AcDbEntity
  8
0
100
AcDbBlockBegin
  2
*Paper_Space4
 70
     0
 10
0.0
 20
0.0
 30
0.0
  3
*Paper_Space4
  1

  0
LINE
  5
FE
330
EE
100
AcDbEntity
  8
0
  6
Continuous
 62
     7
370
    15
100
AcDbLine
 10
237.5
 20
-2.5
 30
0.0
 11
237.5
 21
2.5
 31
0.0
  0
LINE
  5
FF
330
EE
100
AcDbEntity
  8
0
  6
Continuous
 62
     7
370
    15
100
AcDbLine
 10
2.5
 20
-2.5
 30
0.0
 11
237.5
 21
-2.5
 31
0.0
  0
LINE
  5
100
330
EE
100
AcDbEntity
  8
0
  6
Continuous
 62
     7
370
    15
100
AcDbLine
 10
2.5
 20
-162.5
 30
0.0
 11
2.5
 21
-2.5
 31
0.0
  0
LINE
  5
101
330
EE
100
AcDbEntity
  8
0
  6
Continuous
 62
     7
370
    15
100
AcDbLine
 10
-2.5
 20
-162.5
 30
0.0
 11
2.5
 21
-162.5
 31
0.0
  0
LINE
  5
102
330
EE
100
AcDbEntity
  8
0
  6
Continuous
 62
     7
370
    15
100
AcDbLine
 10
-2.5
 20
-162.5
 30
0.0
 11
-2.5
 21
-2.5
 31
0.0
  0
LINE
  5
103
330
EE
100
AcDbEntity
  8
0
  6
Continuous
 62
     7
370
    15
100
AcDbLine
 10
-237.5
 20
-2.5
 30
0.0
 11
-2.5
 21
-2.5
 31
0.0
  0
LINE
  5
104
330
EE
100
AcDbEntity
  8
0
  6
Continuous
 62
     7
370
    15
100
AcDbLine
 10
-237.5
 20
2.5
 30
0.0
 11
-237.5
 21
-2.5
 31
0.0
  0
LINE
  5
105
330
EE
100
AcDbEntity
  8
0
  6
Continuous
 62
     7
370
    15
100
AcDbLine
 10
-237.5
 20
2.5
 30
0.0
 11
-2.5
 21
2.5
 31
0.0
  0
LINE
  5
106
330
EE
100
AcDbEntity
  8
0
  6
Continuous
 62
     7
370
    15
100
AcDbLine
 10
-2.5
 20
2.5
 30
0.0
 11
-2.5
 21
162.5
 31
0.0
  0
LINE
  5
107
330
EE
100
AcDbEntity
  8
0
  6
Continuous
 62
     7
370
    15
100
AcDbLine
 10
2.5
 20
162.5
 30
0.0
 11
-2.5
 21
162.5
 31
0.0
  0
LINE
  5
108
330
EE
100
AcDbEntity
  8
0
  6
Continuous
 62
     7
370
    15
100
AcDbLine
 10
2.5
 20
2.5
 30
0.0
 11
2.5
 21
162.5
 31
0.0
  0
LINE
  5
109
330
EE
100
AcDbEntity
  8
0
  6
Continuous
 62
     7
370
    15
100
AcDbLine
 10
2.5
 20
2.5
 30
0.0
 11
237.5
 21
2.5
 31
0.0
  0
VIEWPORT
  5
1C1
330
EE
100
AcDbEntity
  8
0
100
AcDbViewport
 10
0.0
 20
0.0
 30
0.0
 40
205.6
 41
156.0
 68
     1
 69
     1
 12
0.0
 22
-102.9385090261
 13
0.0
 23
0.0
 14
10.0
 24
10.0
 15
10.0
 25
10.0
 16
0.0
 26
0.0
 36
1.0
 17
0.0
 27
0.0
 37
0.0
 42
50.0
 43
0.0
 44
0.0
 45
362.2216602317
 50
0.0
 51
0.0
 72
   100
 90
   557152
  1

281
     0
 71
     1
 74
     0
110
0.0
120
0.0
130
0.0
111
1.0
121
0.0
131
0.0
112
0.0
122
1.0
132
0.0
 79
     0
146
0.0
  0
ENDBLK
  5
F1
330
EE
100
AcDbEntity
  8
0
100
AcDbBlockEnd
  0
BLOCK
  5
10C
330
10A
100
AcDbEntity
  8
0
100
AcDbBlockBegin
  2
*Paper_Space5
 70
     0
 10
0.0
 20
0.0
 30
0.0
  3
*Paper_Space5
  1

  0
SPLINE
  5
10E
330
10A
100
AcDbEntity
  8
0
  6
Continuous
 62
     7
370
    15
100
AcDbSpline
210
0.0
220
0.0
230
1.0
 70
     8
 71
     3
 72
    10
 73
     6
 74
     0
 42
0.000000001
 43
0.00000001
 40
0.47628670493751
 40
0.47628670493751
 40
0.47628670493751
 40
0.47628670493751
 40
0.5000000063790774
 40
0.5000000063790774
 40
0.5237133014415674
 40
0.5237133014415674
 40
0.5237133014415674
 40
0.5237133014415674
 10
2.499980094730224
 20
-49.9373580666626
 30
0.0
 10
1.667695357179463
 20
-49.97905114158003
 30
0.0
 10
0.8338536055277782
 20
-49.99999999999995
 30
0.0
 10
-0.8338533812155231
 20
-49.99999999999995
 30
0.0
 10
-1.667694908559958
 20
-49.97905115285086
 30
0.0
 10
-2.49997942305683
 20
-49.93735810030996
 30
0.0
  0
SPLINE
  5
111
330
10A
100
AcDbEntity
  8
0
  6
Continuous
 62
     7
370
    15
100
AcDbSpline
210
0.0
220
0.0
230
1.0
 70
     8
 71
     3
 72
    10
 73
     6
 74
     0
 42
0.000000001
 43
0.00000001
 40
0.459569272974285
 40
0.459569272974285
 40
0.459569272974285
 40
0.459569272974285
 40
0.500000010048489
 40
0.500000010048489
 40
0.5404307370742041
 40
0.5404307370742041
 40
0.5404307370742041
 40
0.5404307370742041
 10
-49.93729353242824
 20
-2.499966131034564
 30
0.0
 10
-49.97901808667406
 20
-1.667688235240856
 30
0.0
 10
-50.0000000000007
 20
-0.8338536532454992
 30
0.0
 10
-50.0000000000007
 20
0.8338534460030294
 30
0.0
 10
-49.97901809710358
 20
1.66768782076531
 30
0.0
 10
-49.93729356353838
 20
2.49996551048188
 30
0.0
  0
SPLINE
  5
114
330
10A
100
AcDbEntity
  8
0
  6
Continuous
 62
     7
370
    15
100
AcDbSpline
210
0.0
220
0.0
230
1.0
 70
     8
 71
     3
 72
    10
 73
     6
 74
     0
 42
0.000000001
 43
0.00000001
 40
0.476286704937226
 40
0.476286704937226
 40
0.476286704937226
 40
0.476286704937226
 40
0.5000000063784834
 40
0.5000000063784834
 40
0.5237133014412574
 40
0.5237133014412574
 40
0.5237133014412574
 40
0.5237133014412574
 10
-2.49998009469897
 20
49.93735806666436
 30
0.0
 10
-1.667695357159046
 20
49.97905114158069
 30
0.0
 10
-0.8338536055182608
 20
50.00000000000006
 30
0.0
 10
0.833853381224127
 20
50.00000000000006
 30
0.0
 10
1.667694908578548
 20
49.97905115285048
 30
0.0
 10
2.499979423085348
 20
49.93735810030858
 30
0.0
  0
SPLINE
  5
117
330
10A
100
AcDbEntity
  8
0
  6
Continuous
 62
     7
370
    15
100
AcDbSpline
210
0.0
220
0.0
230
1.0
 70
     8
 71
     3
 72
    10
 73
     6
 74
     0
 42
0.000000001
 43
0.00000001
 40
0.459569272974286
 40
0.459569272974286
 40
0.459569272974286
 40
0.459569272974286
 40
0.50000001004849
 40
0.50000001004849
 40
0.5404307370742041
 40
0.5404307370742041
 40
0.5404307370742041
 40
0.5404307370742041
 10
49.93729353242685
 20
2.499966131034662
 30
0.0
 10
49.97901808667267
 20
1.667688235240953
 30
0.0
 10
49.99999999999931
 20
0.8338536532455971
 30
0.0
 10
49.99999999999931
 20
-0.8338534460029093
 30
0.0
 10
49.9790180971022
 20
-1.667687820765169
 30
0.0
 10
49.93729356353703
 20
-2.499965510481718
 30
0.0
  0
SPLINE
  5
11A
330
10A
100
AcDbEntity
  8
0
  6
Continuous
 62
     7
370
    15
100
AcDbSpline
210
0.0
220
0.0
230
1.0
 70
    24
 71
     3
 72
    14
 73
    10
 74
     0
 42
0.000000001
 43
0.00000001
 40
0.0
 40
0.0
 40
0.0
 40
0.0
 40
0.5000000000000001
 40
0.5000000000000001
 40
0.75
 40
0.75
 40
0.8750000000000001
 40
0.8750000000000001
 40
1.0
 40
1.0
 40
1.0
 40
1.0
 10
237.4999999999993
 20
2.500000000000056
 30
0.0
 10
206.2467901935184
 20
2.500000000000056
 30
0.0
 10
174.9936330849681
 20
2.500000000000052
 30
0.0
 10
128.1115019445814
 20
2.500000000000052
 30
0.0
 10
112.4839131473088
 20
2.500000000000053
 30
0.0
 10
89.03878943248057
 20
2.500000000000053
 30
0.0
 10
81.22317804008193
 20
2.500000000000048
 30
0.0
 10
65.58732458370092
 20
2.500000000000048
 30
0.0
 10
57.76837051311195
 20
2.500000000000056
 30
0.0
 10
49.9372918344639
 20
2.500000000000056
 30
0.0
  0
SPLINE
  5
11C
330
10A
100
AcDbEntity
  8
0
  6
Continuous
 62
     7
370
    15
100
AcDbSpline
210
0.0
220
0.0
230
1.0
 70
    24
 71
     3
 72
    14
 73
    10
 74
     0
 42
0.000000001
 43
0.00000001
 40
0.0
 40
0.0
 40
0.0
 40
0.0
 40
0.5000000000000001
 40
0.5000000000000001
 40
0.7499999999999999
 40
0.7499999999999999
 40
0.875
 40
0.875
 40
1.0
 40
1.0
 40
1.0
 40
1.0
 10
237.4999999999993
 20
-2.499999999999944
 30
0.0
 10
206.2467901935184
 20
-2.499999999999945
 30
0.0
 10
174.9936330849681
 20
-2.49999999999995
 30
0.0
 10
128.1115019445813
 20
-2.499999999999949
 30
0.0
 10
112.4839131473089
 20
-2.499999999999944
 30
0.0
 10
89.03878943248058
 20
-2.499999999999944
 30
0.0
 10
81.22317804008193
 20
-2.499999999999949
 30
0.0
 10
65.58732458370089
 20
-2.499999999999949
 30
0.0
 10
57.76837051311195
 20
-2.499999999999944
 30
0.0
 10
49.9372918344639
 20
-2.499999999999944
 30
0.0
  0
SPLINE
  5
11D
330
10A
100
AcDbEntity
  8
0
  6
Continuous
 62
     7
370
    15
100
AcDbSpline
210
0.0
220
0.0
230
1.0
 70
    24
 71
     3
 72
    14
 73
    10
 74
     0
 42
0.000000001
 43
0.00000001
 40
0.0
 40
0.0
 40
0.0
 40
0.0
 40
0.1250000000000001
 40
0.1250000000000001
 40
0.2500000000000002
 40
0.2500000000000002
 40
0.5
 40
0.5
 40
1.0
 40
1.0
 40
1.0
 40
1.0
 10
-49.93729183446529
 20
-2.500000000000155
 30
0.0
 10
-57.76836946424275
 20
-2.500000000000155
 30
0.0
 10
-65.58732335377488
 20
-2.499999999999943
 30
0.0
 10
-81.22317659221399
 20
-2.499999999999942
 30
0.0
 10
-89.03878804058566
 20
-2.499999999999935
 30
0.0
 10
-112.483912045039
 20
-2.499999999999935
 30
0.0
 10
-128.1115011639208
 20
-2.49999999999994
 30
0.0
 10
-174.9936326280073
 20
-2.49999999999994
 30
0.0
 10
-206.2467899681812
 20
-2.499999999999944
 30
0.0
 10
-237.5000000000007
 20
-2.499999999999944
 30
0.0
  0
SPLINE
  5
11F
330
10A
100
AcDbEntity
  8
0
  6
Continuous
 62
     7
370
    15
100
AcDbSpline
210
0.0
220
0.0
230
1.0
 70
    24
 71
     3
 72
    14
 73
    10
 74
     0
 42
0.000000001
 43
0.00000001
 40
0.0
 40
0.0
 40
0.0
 40
0.0
 40
0.1249999999999999
 40
0.1249999999999999
 40
0.2499999999999998
 40
0.2499999999999998
 40
0.4999999999999998
 40
0.4999999999999998
 40
1.0
 40
1.0
 40
1.0
 40
1.0
 10
-49.93729183446529
 20
2.499999999999931
 30
0.0
 10
-57.7683694642428
 20
2.499999999999932
 30
0.0
 10
-65.58732335377486
 20
2.500000000000056
 30
0.0
 10
-81.223176592214
 20
2.500000000000056
 30
0.0
 10
-89.03878804058569
 20
2.500000000000055
 30
0.0
 10
-112.483912045039
 20
2.500000000000055
 30
0.0
 10
-128.1115011639208
 20
2.500000000000025
 30
0.0
 10
-174.9936326280074
 20
2.500000000000025
 30
0.0
 10
-206.2467899681812
 20
2.500000000000056
 30
0.0
 10
-237.5000000000007
 20
2.500000000000056
 30
0.0
  0
SPLINE
  5
120
330
10A
100
AcDbEntity
  8
0
  6
Continuous
 62
     7
370
    15
100
AcDbSpline
210
0.0
220
0.0
230
1.0
 70
     8
 71
     3
 72
    14
 73
    10
 74
     0
 42
0.000000001
 43
0.00000001
 40
0.0
 40
0.0
 40
0.0
 40
0.0
 40
0.1249999999999999
 40
0.1249999999999999
 40
0.2499999999999998
 40
0.2499999999999998
 40
0.4999999999999999
 40
0.4999999999999999
 40
1.0
 40
1.0
 40
1.0
 40
1.0
 10
-2.499999995205449
 20
49.93735706999016
 30
0.0
 10
-2.499999995205449
 20
54.64349323645628
 30
0.0
 10
-2.500000000000695
 20
59.33884109235254
 30
0.0
 10
-2.500000000000695
 20
68.72613314367877
 30
0.0
 10
-2.500000000000683
 20
73.417193696692
 30
0.0
 10
-2.500000000000685
 20
87.48807784124233
 30
0.0
 10
-2.500000000000693
 20
96.86548481365823
 30
0.0
 10
-2.500000000000692
 20
124.9965429588844
 30
0.0
 10
-2.500000000000694
 20
143.748259661801
 30
0.0
 10
-2.500000000000694
 20
162.5000000000001
 30
0.0
  0
SPLINE
  5
122
330
10A
100
AcDbEntity
  8
0
  6
Continuous
 62
     7
370
    15
100
AcDbSpline
210
0.0
220
0.0
230
1.0
 70
    24
 71
     3
 72
    14
 73
    10
 74
     0
 42
0.000000001
 43
0.00000001
 40
0.0
 40
0.0
 40
0.0
 40
0.0
 40
0.1249999999999999
 40
0.1249999999999999
 40
0.2499999999999999
 40
0.2499999999999999
 40
0.5
 40
0.5
 40
1.0
 40
1.0
 40
1.0
 40
1.0
 10
2.499999999999231
 20
49.93735706950975
 30
0.0
 10
2.499999999999231
 20
54.64349323604881
 30
0.0
 10
2.499999999999311
 20
59.33884109229807
 30
0.0
 10
2.499999999999309
 20
68.7261331436293
 30
0.0
 10
2.499999999999311
 20
73.41719369664504
 30
0.0
 10
2.499999999999311
 20
87.48807784120281
 30
0.0
 10
2.499999999999301
 20
96.86548481362364
 30
0.0
 10
2.499999999999301
 20
124.9965429588648
 30
0.0
 10
2.499999999999306
 20
143.7482596617911
 30
0.0
 10
2.499999999999306
 20
162.5000000000001
 30
0.0
  0
SPLINE
  5
123
330
10A
100
AcDbEntity
  8
0
  6
Continuous
 62
     7
370
    15
100
AcDbSpline
210
0.0
220
0.0
230
1.0
 70
    24
 71
     3
 72
    14
 73
    10
 74
     0
 42
0.000000001
 43
0.00000001
 40
0.0
 40
0.0
 40
0.0
 40
0.0
 40
0.4999999999999998
 40
0.4999999999999998
 40
0.7499999999999998
 40
0.7499999999999998
 40
0.8749999999999998
 40
0.8749999999999998
 40
1.0
 40
1.0
 40
1.0
 40
1.0
 10
2.499999999999306
 20
-162.4999999999999
 30
0.0
 10
2.499999999999306
 20
-143.7482596406634
 30
0.0
 10
2.499999999999293
 20
-124.9965429149453
 30
0.0
 10
2.499999999999293
 20
-96.8654847379044
 30
0.0
 10
2.499999999999304
 20
-87.4880777632833
 30
0.0
 10
2.499999999999303
 20
-73.41719352511292
 30
0.0
 10
2.499999999999317
 20
-68.72613294970822
 30
0.0
 10
2.499999999999317
 20
-59.33884091324618
 30
0.0
 10
2.499999999994697
 20
-54.64349308383868
 30
0.0
 10
2.499999999994696
 20
-49.93735706950995
 30
0.0
  0
SPLINE
  5
125
330
10A
100
AcDbEntity
  8
0
  6
Continuous
 62
     7
370
    15
100
AcDbSpline
210
0.0
220
0.0
230
1.0
 70
    24
 71
     3
 72
    14
 73
    10
 74
     0
 42
0.000000001
 43
0.00000001
 40
0.0
 40
0.0
 40
0.0
 40
0.0
 40
0.5
 40
0.5
 40
0.75
 40
0.75
 40
0.875
 40
0.875
 40
1.0
 40
1.0
 40
1.0
 40
1.0
 10
-2.500000000000694
 20
-162.4999999999999
 30
0.0
 10
-2.500000000000693
 20
-143.7482596406633
 30
0.0
 10
-2.500000000000695
 20
-124.9965429149453
 30
0.0
 10
-2.500000000000696
 20
-96.86548473790437
 30
0.0
 10
-2.500000000000686
 20
-87.48807776328326
 30
0.0
 10
-2.500000000000687
 20
-73.41719352511294
 30
0.0
 10
-2.500000000000695
 20
-68.72613294970823
 30
0.0
 10
-2.500000000000695
 20
-59.33884091324619
 30
0.0
 10
-2.500000000000694
 20
-54.64349308383844
 30
0.0
 10
-2.500000000000694
 20
-49.93735706950963
 30
0.0
  0
LINE
  5
126
330
10A
100
AcDbEntity
  8
0
  6
Continuous
 62
     7
370
    15
100
AcDbLine
 10
-2.5
 20
-2.5
 30
0.0
 11
-2.5
 21
-49.9375377729
 31
0.0
  0
LINE
  5
127
330
10A
100
AcDbEntity
  8
0
  6
Continuous
 62
     7
370
    15
100
AcDbLine
 10
-49.9376232527
 20
-2.5
 30
0.0
 11
-2.5
 21
-2.5
 31
0.0
  0
LINE
  5
128
330
10A
100
AcDbEntity
  8
0
  6
Continuous
 62
     7
370
    15
100
AcDbLine
 10
-49.9377267555
 20
2.5
 30
0.0
 11
-2.5
 21
2.5
 31
0.0
  0
LINE
  5
129
330
10A
100
AcDbEntity
  8
0
  6
Continuous
 62
     7
370
    15
100
AcDbLine
 10
-2.5
 20
49.9375432191
 30
0.0
 11
-2.5
 21
2.5
 31
0.0
  0
LINE
  5
12A
330
10A
100
AcDbEntity
  8
0
  6
Continuous
 62
     7
370
    15
100
AcDbLine
 10
2.5
 20
49.9376326427
 30
0.0
 11
2.5
 21
2.5
 31
0.0
  0
LINE
  5
12B
330
10A
100
AcDbEntity
  8
0
  6
Continuous
 62
     7
370
    15
100
AcDbLine
 10
2.5
 20
2.5
 30
0.0
 11
49.9377185032
 21
2.5
 31
0.0
  0
LINE
  5
12C
330
10A
100
AcDbEntity
  8
0
  6
Continuous
 62
     7
370
    15
100
AcDbLine
 10
2.5
 20
-2.5
 30
0.0
 11
49.9376120765
 21
-2.5
 31
0.0
  0
LINE
  5
12D
330
10A
100
AcDbEntity
  8
0
  6
Continuous
 62
     7
370
    15
100
AcDbLine
 10
2.5
 20
-2.5
 30
0.0
 11
2.5
 21
-49.9376253228
 31
0.0
  0
LINE
  5
12E
330
10A
100
AcDbEntity
  8
0
  6
Continuous
 62
     7
370
    15
100
AcDbLine
 10
237.5
 20
2.5
 30
0.0
 11
237.5
 21
-2.5
 31
0.0
  0
LINE
  5
12F
330
10A
100
AcDbEntity
  8
0
  6
Continuous
 62
     7
370
    15
100
AcDbLine
 10
-237.5
 20
-2.5
 30
0.0
 11
-237.5
 21
2.5
 31
0.0
  0
LINE
  5
130
330
10A
100
AcDbEntity
  8
0
  6
Continuous
 62
     7
370
    15
100
AcDbLine
 10
-2.5
 20
162.5
 30
0.0
 11
2.5
 21
162.5
 31
0.0
  0
LINE
  5
131
330
10A
100
AcDbEntity
  8
0
  6
Continuous
 62
     7
370
    15
100
AcDbLine
 10
2.5
 20
-162.5
 30
0.0
 11
-2.5
 21
-162.5
 31
0.0
  0
VIEWPORT
  5
1C3
330
10A
100
AcDbEntity
  8
0
100
AcDbViewport
 10
0.0
 20
0.0
 30
0.0
 40
205.6
 41
156.0
 68
     1
 69
     1
 12
0.0
 22
-102.9385090261
 13
0.0
 23
0.0
 14
10.0
 24
10.0
 15
10.0
 25
10.0
 16
0.0
 26
0.0
 36
1.0
 17
0.0
 27
0.0
 37
0.0
 42
50.0
 43
0.0
 44
0.0
 45
362.2216602317
 50
0.0
 51
0.0
 72
   100
 90
   557152
  1

281
     0
 71
     1
 74
     0
110
0.0
120
0.0
130
0.0
111
1.0
121
0.0
131
0.0
112
0.0
122
1.0
132
0.0
 79
     0
146
0.0
  0
ENDBLK
  5
10D
330
10A
100
AcDbEntity
  8
0
100
AcDbBlockEnd
  0
BLOCK
  5
134
330
132
100
AcDbEntity
  8
0
100
AcDbBlockBegin
  2
*Paper_Space6
 70
     0
 10
0.0
 20
0.0
 30
0.0
  3
*Paper_Space6
  1

  0
SPLINE
  5
142
330
132
100
AcDbEntity
  8
0
  6
Continuous
 62
     7
370
    15
100
AcDbSpline
210
0.0
220
0.0
230
1.0
 70
     8
 71
     3
 72
    14
 73
    10
 74
     0
 42
0.000000001
 43
0.00000001
 40
0.0
 40
0.0
 40
0.0
 40
0.0
 40
0.5000000000000001
 40
0.5000000000000001
 40
0.75
 40
0.75
 40
0.8750000000000001
 40
0.8750000000000001
 40
1.0
 40
1.0
 40
1.0
 40
1.0
 10
166.1700935788384
 20
-97.96897341872524
 30
0.0
 10
144.0707369908299
 20
-126.0420246859349
 30
0.0
 10
121.9714176658854
 20
-154.1151243662617
 30
0.0
 10
88.82074482004107
 20
-196.2225734783021
 30
0.0
 10
77.77037080789471
 20
-210.258195278677
 30
0.0
 10
61.19216484338214
 20
-231.3081909437318
 30
0.0
 10
55.66569302869824
 20
-238.3243322702017
 30
0.0
 10
44.60947502005212
 20
-252.3523599566516
 30
0.0
 10
39.08063957495251
 20
-259.3654298099174
 30
0.0
 10
33.5432307372751
 20
-266.3673587735608
 30
0.0
  0
SPLINE
  5
145
330
132
100
AcDbEntity
  8
0
  6
Continuous
 62
     7
370
    15
100
AcDbSpline
210
0.0
220
0.0
230
1.0
 70
     8
 71
     3
 72
    10
 73
     6
 74
     0
 42
0.000000001
 43
0.00000001
 40
0.459569272974286
 40
0.459569272974286
 40
0.459569272974286
 40
0.459569272974286
 40
0.50000001004849
 40
0.50000001004849
 40
0.5404307370742041
 40
0.5404307370742041
 40
0.5404307370742041
 40
0.5404307370742041
 10
33.54325588689131
 20
-266.3673456412271
 30
0.0
 10
34.16126894608792
 20
-266.044638560793
 30
0.0
 10
34.76571548660022
 20
-265.7128288045841
 30
0.0
 10
35.94496248551179
 20
-265.0320640025986
 30
0.0
 10
36.51973598047188
 20
-264.6831245309991
 30
0.0
 10
37.07874147807495
 20
-264.3263532785799
 30
0.0
  0
SPLINE
  5
146
330
132
100
AcDbEntity
  8
0
  6
Continuous
 62
     7
370
    15
100
AcDbSpline
210
0.0
220
0.0
230
1.0
 70
     8
 71
     3
 72
    14
 73
    10
 74
     0
 42
0.000000001
 43
0.00000001
 40
0.0
 40
0.0
 40
0.0
 40
0.0
 40
0.5000000000000001
 40
0.5000000000000001
 40
0.7499999999999999
 40
0.7499999999999999
 40
0.875
 40
0.875
 40
1.0
 40
1.0
 40
1.0
 40
1.0
 10
169.7056274847711
 20
-95.92795313916847
 30
0.0
 10
147.6062708967626
 20
-124.0010044063781
 30
0.0
 10
125.5069515718181
 20
-152.0741040867049
 30
0.0
 10
92.35627872597375
 20
-194.1815531987453
 30
0.0
 10
81.30590471382747
 20
-208.2171749991202
 30
0.0
 10
64.72769874931488
 20
-229.267170664175
 30
0.0
 10
59.20122693463098
 20
-236.2833119906449
 30
0.0
 10
48.14500892598485
 20
-250.3113396770947
 30
0.0
 10
42.61617348088525
 20
-257.3244095303607
 30
0.0
 10
37.07876464320783
 20
-264.326338494004
 30
0.0
  0
SPLINE
  5
147
330
132
100
AcDbEntity
  8
0
  6
Continuous
 62
     7
370
    15
100
AcDbSpline
210
0.0
220
0.0
230
1.0
 70
     8
 71
     3
 72
    14
 73
    10
 74
     0
 42
0.000000001
 43
0.00000001
 40
0.0
 40
0.0
 40
0.0
 40
0.0
 40
0.1249999999999999
 40
0.1249999999999999
 40
0.2499999999999998
 40
0.2499999999999998
 40
0.4999999999999999
 40
0.4999999999999999
 40
1.0
 40
1.0
 40
1.0
 40
1.0
 10
-37.07881076829966
 20
-264.3263651253675
 30
0.0
 10
-40.40655156479512
 20
-256.0455828320596
 30
0.0
 10
-43.72666387711985
 20
-247.7570885588139
 30
0.0
 10
-50.36448174359121
 20
-231.1776669240126
 30
0.0
 10
-53.68156247158358
 20
-222.8861078924716
 30
0.0
 10
-63.6311800674854
 20
-198.0097884293766
 30
0.0
 10
-70.26200812762671
 20
-181.4233005952729
 30
0.0
 10
-90.15367010406923
 20
-131.6630075125467
 30
0.0
 10
-103.4131361435906
 20
-98.48781977031102
 30
0.0
 10
-116.6726188957805
 20
-65.3126489458166
 30
0.0
  0
SPLINE
  5
148
330
132
100
AcDbEntity
  8
0
  6
Continuous
 62
     7
370
    15
100
AcDbSpline
210
0.0
220
0.0
230
1.0
 70
     8
 71
     3
 72
    14
 73
    10
 74
     0
 42
0.000000001
 43
0.00000001
 40
0.0
 40
0.0
 40
0.0
 40
0.0
 40
0.1249999999999999
 40
0.1249999999999999
 40
0.2499999999999999
 40
0.2499999999999999
 40
0.5
 40
0.5
 40
1.0
 40
1.0
 40
1.0
 40
1.0
 10
-33.54327686541803
 20
-266.3673854027707
 30
0.0
 10
-36.87101766196507
 20
-258.0866031095087
 30
0.0
 10
-40.19112997114859
 20
-249.7981088384668
 30
0.0
 10
-46.8289478376235
 20
-233.2186872036566
 30
0.0
 10
-50.14602856561765
 20
-224.9271281721115
 30
0.0
 10
-60.09564616152473
 20
-200.0508087090032
 30
0.0
 10
-66.72647422166953
 20
-183.4643208748908
 30
0.0
 10
-86.61813619812263
 20
-133.7040277921383
 30
0.0
 10
-99.8776022376509
 20
-100.5288400498853
 30
0.0
 10
-113.1370849898478
 20
-67.35366922537338
 30
0.0
  0
SPLINE
  5
149
330
132
100
AcDbEntity
  8
0
  6
Continuous
 62
     7
370
    15
100
AcDbSpline
210
0.0
220
0.0
230
1.0
 70
     8
 71
     3
 72
    10
 73
     6
 74
     0
 42
0.000000001
 43
0.00000001
 40
0.476286704937226
 40
0.476286704937226
 40
0.476286704937226
 40
0.476286704937226
 40
0.5000000063784834
 40
0.5000000063784834
 40
0.5237133014412574
 40
0.5237133014412574
 40
0.5237133014412574
 40
0.5237133014412574
 10
-37.07879740127166
 20
-264.3263736556814
 30
0.0
 10
-36.51976467548098
 20
-264.6831349435025
 30
0.0
 10
-35.94496259830576
 20
-265.0320639374841
 30
0.0
 10
-34.76571567894804
 20
-265.712828693544
 30
0.0
 10
-34.16128760864327
 20
-266.0446547826243
 30
0.0
 10
-33.54329214437822
 20
-266.3673774239672
 30
0.0
  0
LWPOLYLINE
  5
14B
330
132
100
AcDbEntity
  8
0
  6
Continuous
 62
     7
370
    15
100
AcDbPolyline
 90
        3
 70
   128
 43
0.0
 10
-105.7987127882
 20
-59.0352765675
 10
-125.5204801161
 20
-11.215134386
 10
-169.7056274848
 20
95.9279531392
  0
LINE
  5
14D
330
132
100
AcDbEntity
  8
0
  6
Continuous
 62
     7
370
    15
100
AcDbLine
 10
166.1700935788
 20
-97.9689734187
 30
0.0
 11
169.7056274848
 21
-95.9279531392
 31
0.0
  0
LINE
  5
14E
330
132
100
AcDbEntity
  8
0
  6
Continuous
 62
     7
370
    15
100
AcDbLine
 10
0.0
 20
-2.0410202796
 30
0.0
 11
166.1700935788
 21
-97.9689734187
 31
0.0
  0
LINE
  5
14F
330
132
100
AcDbEntity
  8
0
  6
Continuous
 62
     7
370
    15
100
AcDbLine
 10
-113.1370849898
 20
-67.3536692254
 30
0.0
 11
0.0
 21
-2.0410202796
 31
0.0
  0
LINE
  5
150
330
132
100
AcDbEntity
  8
0
  6
Continuous
 62
     7
370
    15
100
AcDbLine
 10
-116.6726188958
 20
-65.3126489458
 30
0.0
 11
-113.1370849898
 21
-67.3536692254
 31
0.0
  0
LINE
  5
151
330
132
100
AcDbEntity
  8
0
  6
Continuous
 62
     7
370
    15
100
AcDbLine
 10
-116.6726188958
 20
-65.3126489458
 30
0.0
 11
-3.5355339059
 21
0.0
 31
0.0
  0
LINE
  5
152
330
132
100
AcDbEntity
  8
0
  6
Continuous
 62
     7
370
    15
100
AcDbLine
 10
-169.7056274848
 20
95.9279531392
 30
0.0
 11
-3.5355339059
 21
0.0
 31
0.0
  0
LINE
  5
153
330
132
100
AcDbEntity
  8
0
  6
Continuous
 62
     7
370
    15
100
AcDbLine
 10
-166.1700935788
 20
97.9689734187
 30
0.0
 11
-169.7056274848
 21
95.9279531392
 31
0.0
  0
LINE
  5
154
330
132
100
AcDbEntity
  8
0
  6
Continuous
 62
     7
370
    15
100
AcDbLine
 10
-166.1700935788
 20
97.9689734187
 30
0.0
 11
0.0
 21
2.0410202796
 31
0.0
  0
LINE
  5
155
330
132
100
AcDbEntity
  8
0
  6
Continuous
 62
     7
370
    15
100
AcDbLine
 10
0.0
 20
2.0410202796
 30
0.0
 11
113.1370849898
 21
67.3536692254
 31
0.0
  0
LINE
  5
156
330
132
100
AcDbEntity
  8
0
  6
Continuous
 62
     7
370
    15
100
AcDbLine
 10
116.6726188958
 20
65.3126489458
 30
0.0
 11
113.1370849898
 21
67.3536692254
 31
0.0
  0
LINE
  5
157
330
132
100
AcDbEntity
  8
0
  6
Continuous
 62
     7
370
    15
100
AcDbLine
 10
3.5355339059
 20
0.0
 30
0.0
 11
116.6726188958
 21
65.3126489458
 31
0.0
  0
LINE
  5
158
330
132
100
AcDbEntity
  8
0
  6
Continuous
 62
     7
370
    15
100
AcDbLine
 10
3.5355339059
 20
0.0
 30
0.0
 11
169.7056274848
 21
-95.9279531392
 31
0.0
  0
LINE
  5
159
330
132
100
AcDbEntity
  8
0
  6
Continuous
 62
     7
370
    15
100
AcDbLine
 10
0.0
 20
-247.0032638453
 30
0.0
 11
33.5435324376
 21
-266.3675329415
 31
0.0
  0
LINE
  5
15A
330
132
100
AcDbEntity
  8
0
  6
Continuous
 62
     7
370
    15
100
AcDbLine
 10
0.0
 20
-247.0032638453
 30
0.0
 11
0.0
 21
-2.0410202796
 31
0.0
  0
LINE
  5
15B
330
132
100
AcDbEntity
  8
0
  6
Continuous
 62
     7
370
    15
100
AcDbLine
 10
-33.5434717251
 20
-266.3674978928
 30
0.0
 11
0.0
 21
-247.0032638453
 31
0.0
  0
LINE
  5
15C
330
132
100
AcDbEntity
  8
0
  6
Continuous
 62
     7
370
    15
100
AcDbLine
 10
116.6726188958
 20
65.3126489458
 30
0.0
 11
85.8194294109
 21
-47.5014817775
 31
0.0
  0
VIEWPORT
  5
1C5
330
132
100
AcDbEntity
  8
0
100
AcDbViewport
 10
0.0
 20
0.0
 30
0.0
 40
205.6
 41
156.0
 68
     1
 69
     1
 12
0.0
 22
-102.9385090261
 13
0.0
 23
0.0
 14
10.0
 24
10.0
 15
10.0
 25
10.0
 16
0.0
 26
0.0
 36
1.0
 17
0.0
 27
0.0
 37
0.0
 42
50.0
 43
0.0
 44
0.0
 45
362.2216602317
 50
0.0
 51
0.0
 72
   100
 90
   557152
  1

281
     0
 71
     1
 74
     0
110
0.0
120
0.0
130
0.0
111
1.0
121
0.0
131
0.0
112
0.0
122
1.0
132
0.0
 79
     0
146
0.0
  0
ENDBLK
  5
135
330
132
100
AcDbEntity
  8
0
100
AcDbBlockEnd
  0
BLOCK
  5
15F
330
15D
100
AcDbEntity
  8
0
100
AcDbBlockBegin
  2
*Paper_Space7
 70
     0
 10
0.0
 20
0.0
 30
0.0
  3
*Paper_Space7
  1

  0
SPLINE
  5
16D
330
15D
100
AcDbEntity
  8
0
  6
Continuous
 62
     7
370
    15
100
AcDbSpline
210
0.0
220
0.0
230
1.0
 70
     8
 71
     3
 72
    14
 73
    10
 74
     0
 42
0.000000001
 43
0.00000001
 40
0.0
 40
0.0
 40
0.0
 40
0.0
 40
0.1249999999999999
 40
0.1249999999999999
 40
0.2499999999999998
 40
0.2499999999999998
 40
0.4999999999999999
 40
0.4999999999999999
 40
1.0
 40
1.0
 40
1.0
 40
1.0
 10
-25.51657957987097
 20
-279.2961913964646
 30
0.0
 10
-27.71291162843771
 20
-270.730446025493
 30
0.0
 10
-29.90420882644815
 20
-262.156313740113
 30
0.0
 10
-34.28521474134192
 20
-245.005403140577
 30
0.0
 10
-36.4745110706249
 20
-236.4279378750501
 30
0.0
 10
-43.04132781905566
 20
-210.6937559735368
 30
0.0
 10
-47.41772041320279
 20
-193.5351607524916
 30
0.0
 10
-60.54635553530331
 20
-142.0584728446346
 30
0.0
 10
-69.29769525507731
 20
-107.7388766580557
 30
0.0
 10
-78.04904600532866
 20
-73.41929886898458
 30
0.0
  0
SPLINE
  5
16E
330
15D
100
AcDbEntity
  8
0
  6
Continuous
 62
     7
370
    15
100
AcDbSpline
210
0.0
220
0.0
230
1.0
 70
     8
 71
     3
 72
    14
 73
    10
 74
     0
 42
0.000000001
 43
0.00000001
 40
0.0
 40
0.0
 40
0.0
 40
0.0
 40
0.1249999999999999
 40
0.1249999999999999
 40
0.2499999999999999
 40
0.2499999999999999
 40
0.5
 40
0.5
 40
1.0
 40
1.0
 40
1.0
 40
1.0
 10
-21.09448897550073
 20
-280.4980208685127
 30
0.0
 10
-23.29082102410151
 20
-271.9322754975914
 30
0.0
 10
-25.48211821803562
 20
-263.358143213632
 30
0.0
 10
-29.86312413293173
 20
-246.2072326140868
 30
0.0
 10
-32.05242046221589
 20
-237.6297673485556
 30
0.0
 10
-38.61923721065012
 20
-211.8955854470288
 30
0.0
 10
-42.99562980479955
 20
-194.7369902259744
 30
0.0
 10
-56.12426492690704
 20
-143.2603023180903
 30
0.0
 10
-64.87560464668559
 20
-108.9407061314934
 30
0.0
 10
-73.62695539694155
 20
-74.62112834240418
 30
0.0
  0
SPLINE
  5
16F
330
15D
100
AcDbEntity
  8
0
  6
Continuous
 62
     7
370
    15
100
AcDbSpline
210
0.0
220
0.0
230
1.0
 70
     8
 71
     3
 72
    10
 73
     6
 74
     0
 42
0.000000001
 43
0.00000001
 40
0.476286704937226
 40
0.476286704937226
 40
0.476286704937226
 40
0.476286704937226
 40
0.5000000063784834
 40
0.5000000063784834
 40
0.5237133014412574
 40
0.5237133014412574
 40
0.5237133014412574
 40
0.5237133014412574
 10
-25.51656244464567
 20
-279.2961966338617
 30
0.0
 10
-24.79993270618359
 20
-279.515241070578
 30
0.0
 10
-24.0722446860489
 20
-279.7252105829282
 30
0.0
 10
-22.59729440532589
 20
-280.1260704648672
 30
0.0
 10
-21.85005311755835
 20
-280.3169551410555
 30
0.0
 10
-21.09450765516532
 20
-280.4980163920625
 30
0.0
  0
SPLINE
  5
172
330
15D
100
AcDbEntity
  8
0
  6
Continuous
 62
     7
370
    15
100
AcDbSpline
210
0.0
220
0.0
230
1.0
 70
     8
 71
     3
 72
    10
 73
     6
 74
     0
 42
0.000000001
 43
0.00000001
 40
0.459569272974286
 40
0.459569272974286
 40
0.459569272974286
 40
0.459569272974286
 40
0.50000001004849
 40
0.50000001004849
 40
0.5404307370742041
 40
0.5404307370742041
 40
0.5404307370742041
 40
0.5404307370742041
 10
42.99872468176842
 20
-270.2921695380476
 30
0.0
 10
43.42404688993768
 20
-269.9230886201611
 30
0.0
 10
43.83175042885889
 20
-269.5483127942463
 30
0.0
 10
44.61006164216409
 20
-268.7886571898271
 30
0.0
 10
44.98065152484754
 20
-268.4037947880778
 30
0.0
 10
45.33216975134404
 20
-268.0146556494091
 30
0.0
  0
SPLINE
  5
173
330
15D
100
AcDbEntity
  8
0
  6
Continuous
 62
     7
370
    15
100
AcDbSpline
210
0.0
220
0.0
230
1.0
 70
     8
 71
     3
 72
    14
 73
    10
 74
     0
 42
0.000000001
 43
0.00000001
 40
0.0
 40
0.0
 40
0.0
 40
0.0
 40
0.5000000000000001
 40
0.5000000000000001
 40
0.75
 40
0.75
 40
0.8750000000000001
 40
0.8750000000000001
 40
1.0
 40
1.0
 40
1.0
 40
1.0
 10
208.8825654260624
 20
-58.225672504442
 30
0.0
 10
181.2416603126242
 20
-93.57571345446296
 30
0.0
 10
153.6008018061908
 20
-128.9257953113504
 30
0.0
 10
112.1373954427755
 20
-181.9490589128172
 30
0.0
 10
98.31607271234452
 20
-199.6233157027252
 30
0.0
 10
77.58078043398135
 20
-226.1317966160238
 30
0.0
 10
70.6685120865555
 20
-234.9675142325729
 30
0.0
 10
56.83987994183959
 20
-252.635354048006
 30
0.0
 10
49.92465526924726
 20
-261.4684762906452
 30
0.0
 10
42.99870737356925
 20
-270.292184557534
 30
0.0
  0
SPLINE
  5
174
330
15D
100
AcDbEntity
  8
0
  6
Continuous
 62
     7
370
    15
100
AcDbSpline
210
0.0
220
0.0
230
1.0
 70
     8
 71
     3
 72
    14
 73
    10
 74
     0
 42
0.000000001
 43
0.00000001
 40
0.0
 40
0.0
 40
0.0
 40
0.0
 40
0.5000000000000001
 40
0.5000000000000001
 40
0.7499999999999999
 40
0.7499999999999999
 40
0.875
 40
0.875
 40
1.0
 40
1.0
 40
1.0
 40
1.0
 10
211.2160423707127
 20
-55.94812747042063
 30
0.0
 10
183.5751372572745
 20
-91.29816842044163
 30
0.0
 10
155.9342787508411
 20
-126.6482502773291
 30
0.0
 10
114.4708723874257
 20
-179.6715138787958
 30
0.0
 10
100.6495496569949
 20
-197.3457706687038
 30
0.0
 10
79.91425737863167
 20
-223.8542515820024
 30
0.0
 10
73.00198903120581
 20
-232.6899691985515
 30
0.0
 10
59.17335688648988
 20
-250.3578090139846
 30
0.0
 10
52.25813221389757
 20
-259.1909312566238
 30
0.0
 10
45.33218431821957
 20
-268.0146395235127
 30
0.0
  0
SPLINE
  5
176
330
15D
100
AcDbEntity
  8
0
  6
Continuous
 62
     7
370
    15
100
AcDbSpline
210
0.0
220
0.0
230
1.0
 70
     8
 71
     3
 72
    14
 73
    10
 74
     0
 42
0.000000001
 43
0.00000001
 40
0.0
 40
0.0
 40
0.0
 40
0.0
 40
0.1249999999999999
 40
0.1249999999999999
 40
0.2499999999999998
 40
0.2499999999999998
 40
0.4999999999999998
 40
0.4999999999999998
 40
1.0
 40
1.0
 40
1.0
 40
1.0
 10
-45.3321843182195
 20
-246.2857408977677
 30
0.0
 10
-52.2581312862574
 20
-233.6973858510578
 30
0.0
 10
-59.17335579871978
 20
-221.1054441215021
 30
0.0
 10
-73.00198775068395
 20
-195.9209528478494
 30
0.0
 10
-79.91425614761337
 20
-183.3280222917328
 30
0.0
 10
-100.6495486821262
 20
-145.5487246368318
 30
0.0
 10
-114.4708716969941
 20
-120.3617886025782
 30
0.0
 10
-155.9342783466955
 20
-44.80079368698767
 30
0.0
 10
-183.575137057981
 20
5.573674683436919
 30
0.0
 10
-211.2160423707127
 20
55.94812747042063
 30
0.0
  0
LINE
  5
179
330
15D
100
AcDbEntity
  8
0
  6
Continuous
 62
     7
370
    15
100
AcDbLine
 10
208.8825654261
 20
-58.2256725044
 30
0.0
 11
211.2160423707
 21
-55.9481274704
 31
0.0
  0
LINE
  5
17A
330
15D
100
AcDbEntity
  8
0
  6
Continuous
 62
     7
370
    15
100
AcDbLine
 10
1.0443068319
 20
-1.7396872537
 30
0.0
 11
208.8825654261
 21
-58.2256725044
 31
0.0
  0
LINE
  5
17B
330
15D
100
AcDbEntity
  8
0
  6
Continuous
 62
     7
370
    15
100
AcDbLine
 10
-73.6269553969
 20
-74.6211283424
 30
0.0
 11
1.0443068319
 21
-1.7396872537
 31
0.0
  0
LINE
  5
17C
330
15D
100
AcDbEntity
  8
0
  6
Continuous
 62
     7
370
    15
100
AcDbLine
 10
-78.0490460053
 20
-73.419298869
 30
0.0
 11
-73.6269553969
 21
-74.6211283424
 31
0.0
  0
LINE
  5
17D
330
15D
100
AcDbEntity
  8
0
  6
Continuous
 62
     7
370
    15
100
AcDbLine
 10
-78.0490460053
 20
-73.419298869
 30
0.0
 11
-3.3777837765
 21
-0.5378577803
 31
0.0
  0
LINE
  5
17E
330
15D
100
AcDbEntity
  8
0
  6
Continuous
 62
     7
370
    15
100
AcDbLine
 10
-211.2160423707
 20
55.9481274704
 30
0.0
 11
-3.3777837765
 21
-0.5378577803
 31
0.0
  0
LINE
  5
17F
330
15D
100
AcDbEntity
  8
0
  6
Continuous
 62
     7
370
    15
100
AcDbLine
 10
-208.8825654261
 20
58.2256725044
 30
0.0
 11
-211.2160423707
 21
55.9481274704
 31
0.0
  0
LINE
  5
180
330
15D
100
AcDbEntity
  8
0
  6
Continuous
 62
     7
370
    15
100
AcDbLine
 10
-208.8825654261
 20
58.2256725044
 30
0.0
 11
-1.0443068319
 21
1.7396872537
 31
0.0
  0
LINE
  5
181
330
15D
100
AcDbEntity
  8
0
  6
Continuous
 62
     7
370
    15
100
AcDbLine
 10
-1.0443068319
 20
1.7396872537
 30
0.0
 11
73.6269553969
 21
74.6211283424
 31
0.0
  0
LINE
  5
182
330
15D
100
AcDbEntity
  8
0
  6
Continuous
 62
     7
370
    15
100
AcDbLine
 10
78.0490460053
 20
73.419298869
 30
0.0
 11
73.6269553969
 21
74.6211283424
 31
0.0
  0
LINE
  5
183
330
15D
100
AcDbEntity
  8
0
  6
Continuous
 62
     7
370
    15
100
AcDbLine
 10
3.3777837765
 20
0.5378577803
 30
0.0
 11
78.0490460053
 21
73.419298869
 31
0.0
  0
LINE
  5
184
330
15D
100
AcDbEntity
  8
0
  6
Continuous
 62
     7
370
    15
100
AcDbLine
 10
3.3777837765
 20
0.5378577803
 30
0.0
 11
211.2160423707
 21
-55.9481274704
 31
0.0
  0
LINE
  5
185
330
15D
100
AcDbEntity
  8
0
  6
Continuous
 62
     7
370
    15
100
AcDbLine
 10
1.0443068319
 20
-258.8898774644
 30
0.0
 11
1.0443068319
 21
-1.7396872537
 31
0.0
  0
LINE
  5
186
330
15D
100
AcDbEntity
  8
0
  6
Continuous
 62
     7
370
    15
100
AcDbLine
 10
-21.0946175842
 20
-280.4981463946
 30
0.0
 11
1.0443068319
 21
-258.8898774644
 31
0.0
  0
LINE
  5
187
330
15D
100
AcDbEntity
  8
0
  6
Continuous
 62
     7
370
    15
100
AcDbLine
 10
1.0443068319
 20
-258.8898774644
 30
0.0
 11
42.9990847271
 21
-270.2922871141
 31
0.0
  0
LINE
  5
188
330
15D
100
AcDbEntity
  8
0
  6
Continuous
 62
     7
370
    15
100
AcDbLine
 10
-45.3325689702
 20
-246.2856363576
 30
0.0
 11
-33.0996595233
 21
-249.6102790257
 31
0.0
  0
LINE
  5
189
330
15D
100
AcDbEntity
  8
0
  6
Continuous
 62
     7
370
    15
100
AcDbLine
 10
78.0490460053
 20
73.419298869
 30
0.0
 11
62.8870462982
 21
-15.6354846438
 31
0.0
  0
VIEWPORT
  5
1C7
330
15D
100
AcDbEntity
  8
0
100
AcDbViewport
 10
0.0
 20
0.0
 30
0.0
 40
205.6
 41
156.0
 68
     1
 69
     1
 12
0.0
 22
-102.9385090261
 13
0.0
 23
0.0
 14
10.0
 24
10.0
 15
10.0
 25
10.0
 16
0.0
 26
0.0
 36
1.0
 17
0.0
 27
0.0
 37
0.0
 42
50.0
 43
0.0
 44
0.0
 45
362.2216602317
 50
0.0
 51
0.0
 72
   100
 90
   557152
  1

281
     0
 71
     1
 74
     0
110
0.0
120
0.0
130
0.0
111
1.0
121
0.0
131
0.0
112
0.0
122
1.0
132
0.0
 79
     0
146
0.0
  0
ENDBLK
  5
160
330
15D
100
AcDbEntity
  8
0
100
AcDbBlockEnd
  0
BLOCK
  5
18C
330
18A
100
AcDbEntity
  8
0
100
AcDbBlockBegin
  2
*Paper_Space8
 70
     0
 10
0.0
 20
0.0
 30
0.0
  3
*Paper_Space8
  1

  0
SPLINE
  5
19A
330
18A
100
AcDbEntity
  8
0
  6
Continuous
 62
     7
370
    15
100
AcDbSpline
210
0.0
220
0.0
230
1.0
 70
     8
 71
     3
 72
    14
 73
    10
 74
     0
 42
0.000000001
 43
0.00000001
 40
0.0
 40
0.0
 40
0.0
 40
0.0
 40
0.1249999999999999
 40
0.1249999999999999
 40
0.2499999999999998
 40
0.2499999999999998
 40
0.4999999999999999
 40
0.4999999999999999
 40
1.0
 40
1.0
 40
1.0
 40
1.0
 10
-19.9940577676365
 20
-298.1187914014532
 30
0.0
 10
-21.65792816550253
 20
-287.8067480166781
 30
0.0
 10
-23.31798432407422
 20
-277.4875210736376
 30
0.0
 10
-26.63689325654851
 20
-256.8468008105368
 30
0.0
 10
-28.29543362016421
 20
-246.5247191034121
 30
0.0
 10
-33.27024241697385
 20
-215.5569441477057
 30
0.0
 10
-36.58565644628393
 20
-194.9096418811589
 30
0.0
 10
-46.53148743222352
 20
-132.966962705486
 30
0.0
 10
-53.1612204504633
 20
-91.6702981094027
 30
0.0
 10
-59.79096182503734
 20
-50.37364927681197
 30
0.0
  0
SPLINE
  5
19B
330
18A
100
AcDbEntity
  8
0
  6
Continuous
 62
     7
370
    15
100
AcDbSpline
210
0.0
220
0.0
230
1.0
 70
     8
 71
     3
 72
    14
 73
    10
 74
     0
 42
0.000000001
 43
0.00000001
 40
0.0
 40
0.0
 40
0.0
 40
0.0
 40
0.1249999999999999
 40
0.1249999999999999
 40
0.2499999999999999
 40
0.2499999999999999
 40
0.5
 40
0.5
 40
1.0
 40
1.0
 40
1.0
 40
1.0
 10
-15.31698603833155
 20
-298.7080470514517
 30
0.0
 10
-16.98085643622337
 20
-288.3960036667181
 30
0.0
 10
-18.64091259043425
 20
-278.0767767244706
 30
0.0
 10
-21.95982152291031
 20
-257.4360564613588
 30
0.0
 10
-23.6183618865269
 20
-247.1139747542288
 30
0.0
 10
-28.59317068333918
 20
-216.146199798506
 30
0.0
 10
-31.90858471265101
 20
-195.4988975319483
 30
0.0
 10
-41.85441569859588
 20
-133.5562183562428
 30
0.0
 10
-48.48414871683909
 20
-92.25955376013789
 30
0.0
 10
-55.11389009141663
 20
-50.96290492752538
 30
0.0
  0
SPLINE
  5
19C
330
18A
100
AcDbEntity
  8
0
  6
Continuous
 62
     7
370
    15
100
AcDbSpline
210
0.0
220
0.0
230
1.0
 70
     8
 71
     3
 72
    10
 73
     6
 74
     0
 42
0.000000001
 43
0.00000001
 40
0.476286704937226
 40
0.476286704937226
 40
0.476286704937226
 40
0.476286704937226
 40
0.5000000063784834
 40
0.5000000063784834
 40
0.5237133014412574
 40
0.5237133014412574
 40
0.5237133014412574
 40
0.5237133014412574
 10
-19.99403950479477
 20
-298.1187940575182
 30
0.0
 10
-19.23024914873794
 20
-298.2298798545799
 30
0.0
 10
-18.45766815127709
 20
-298.3346810016071
 30
0.0
 10
-16.89767110974617
 20
-298.5312221547415
 30
0.0
 10
-16.11027724622742
 20
-298.6229593703779
 30
0.0
 10
-15.31700565071443
 20
-298.7080449478472
 30
0.0
  0
SPLINE
  5
19F
330
18A
100
AcDbEntity
  8
0
  6
Continuous
 62
     7
370
    15
100
AcDbSpline
210
0.0
220
0.0
230
1.0
 70
     8
 71
     3
 72
    10
 73
     6
 74
     0
 42
0.000000001
 43
0.00000001
 40
0.459569272974286
 40
0.459569272974286
 40
0.459569272974286
 40
0.459569272974286
 40
0.50000001004849
 40
0.50000001004849
 40
0.5404307370742041
 40
0.5404307370742041
 40
0.5404307370742041
 40
0.5404307370742041
 10
45.82818930501452
 20
-289.5073803570073
 30
0.0
 10
46.16147372357293
 20
-289.2527894148794
 30
0.0
 10
46.47590554991114
 20
-288.9952685468749
 30
0.0
 10
47.06552904923166
 20
-288.475269498075
 30
0.0
 10
47.34070724656293
 20
-288.2128032115198
 30
0.0
 10
47.59593211830261
 20
-287.9483777643397
 30
0.0
  0
SPLINE
  5
1A0
330
18A
100
AcDbEntity
  8
0
  6
Continuous
 62
     7
370
    15
100
AcDbSpline
210
0.0
220
0.0
230
1.0
 70
     8
 71
     3
 72
    14
 73
    10
 74
     0
 42
0.000000001
 43
0.00000001
 40
0.0
 40
0.0
 40
0.0
 40
0.0
 40
0.5000000000000001
 40
0.5000000000000001
 40
0.75
 40
0.75
 40
0.8750000000000001
 40
0.8750000000000001
 40
1.0
 40
1.0
 40
1.0
 40
1.0
 10
221.2770238707031
 20
-28.7691553643048
 30
0.0
 10
192.0423230365413
 20
-72.23065082591681
 30
0.0
 10
162.8076714967797
 20
-115.6921835596583
 30
0.0
 10
118.9534534230594
 20
-180.8827887307772
 30
0.0
 10
104.3351826573851
 20
-202.6128406450943
 30
0.0
 10
82.40427757381241
 20
-235.2052721713853
 30
0.0
 10
75.09344254894208
 20
-246.0690126404078
 30
0.0
 10
60.46744090256704
 20
-267.7932174673811
 30
0.0
 10
53.15347908856099
 20
-278.6545930558823
 30
0.0
 10
45.82817574222808
 20
-289.5073907174057
 30
0.0
  0
SPLINE
  5
1A1
330
18A
100
AcDbEntity
  8
0
  6
Continuous
 62
     7
370
    15
100
AcDbSpline
210
0.0
220
0.0
230
1.0
 70
     8
 71
     3
 72
    14
 73
    10
 74
     0
 42
0.000000001
 43
0.00000001
 40
0.0
 40
0.0
 40
0.0
 40
0.0
 40
0.5000000000000001
 40
0.5000000000000001
 40
0.7499999999999999
 40
0.7499999999999999
 40
0.875
 40
0.875
 40
1.0
 40
1.0
 40
1.0
 40
1.0
 10
223.0447908232639
 20
-27.21013145346884
 30
0.0
 10
193.810089989102
 20
-70.67162691508089
 30
0.0
 10
164.5754384493405
 20
-114.1331596488224
 30
0.0
 10
120.7212203756202
 20
-179.3237648199412
 30
0.0
 10
106.102949609946
 20
-201.0538167342583
 30
0.0
 10
84.17204452637326
 20
-233.6462482605493
 30
0.0
 10
76.86120950150291
 20
-244.5099887295719
 30
0.0
 10
62.23520785512785
 20
-266.2341935565451
 30
0.0
 10
54.92124604112181
 20
-277.0955691450464
 30
0.0
 10
47.5959426947889
 20
-287.9483668065698
 30
0.0
  0
SPLINE
  5
1A3
330
18A
100
AcDbEntity
  8
0
  6
Continuous
 62
     7
370
    15
100
AcDbSpline
210
0.0
220
0.0
230
1.0
 70
     8
 71
     3
 72
    14
 73
    10
 74
     0
 42
0.000000001
 43
0.00000001
 40
0.0
 40
0.0
 40
0.0
 40
0.0
 40
0.1249999999999999
 40
0.1249999999999999
 40
0.2499999999999998
 40
0.2499999999999998
 40
0.4999999999999998
 40
0.4999999999999998
 40
1.0
 40
1.0
 40
1.0
 40
1.0
 10
-47.59594269478886
 20
-277.7370581594926
 30
0.0
 10
-54.92124505999322
 20
-265.0384592537509
 30
0.0
 10
-62.23520670463608
 20
-252.3341388150532
 30
0.0
 10
-76.86120814714519
 20
-226.9245283423302
 30
0.0
 10
-84.1720432243735
 20
-214.2186305119312
 30
0.0
 10
-106.1029485788657
 20
-176.1001298630201
 30
0.0
 10
-120.7212196453778
 20
-150.6866194233859
 30
0.0
 10
-164.5754380218916
 20
-74.4457894491699
 30
0.0
 10
-193.8100897783171
 20
-23.61781656717769
 30
0.0
 10
-223.0447908232639
 20
27.21013145346884
 30
0.0
  0
LINE
  5
1A6
330
18A
100
AcDbEntity
  8
0
  6
Continuous
 62
     7
370
    15
100
AcDbLine
 10
221.2770238707
 20
-28.7691553643
 30
0.0
 11
223.0447908233
 21
-27.2101314535
 31
0.0
  0
LINE
  5
1A7
330
18A
100
AcDbEntity
  8
0
  6
Continuous
 62
     7
370
    15
100
AcDbLine
 10
1.4546523905
 20
-1.0741397808
 30
0.0
 11
221.2770238707
 21
-28.7691553643
 31
0.0
  0
LINE
  5
1A8
330
18A
100
AcDbEntity
  8
0
  6
Continuous
 62
     7
370
    15
100
AcDbLine
 10
-55.1138900914
 20
-50.9629049275
 30
0.0
 11
1.4546523905
 21
-1.0741397808
 31
0.0
  0
LINE
  5
1A9
330
18A
100
AcDbEntity
  8
0
  6
Continuous
 62
     7
370
    15
100
AcDbLine
 10
-59.790961825
 20
-50.3736492768
 30
0.0
 11
-55.1138900914
 21
-50.9629049275
 31
0.0
  0
LINE
  5
1AA
330
18A
100
AcDbEntity
  8
0
  6
Continuous
 62
     7
370
    15
100
AcDbLine
 10
-59.790961825
 20
-50.3736492768
 30
0.0
 11
-3.2224193431
 21
-0.4848841301
 31
0.0
  0
LINE
  5
1AB
330
18A
100
AcDbEntity
  8
0
  6
Continuous
 62
     7
370
    15
100
AcDbLine
 10
-223.0447908233
 20
27.2101314535
 30
0.0
 11
-3.2224193431
 21
-0.4848841301
 31
0.0
  0
LINE
  5
1AC
330
18A
100
AcDbEntity
  8
0
  6
Continuous
 62
     7
370
    15
100
AcDbLine
 10
-221.2770238707
 20
28.7691553643
 30
0.0
 11
-223.0447908233
 21
27.2101314535
 31
0.0
  0
LINE
  5
1AD
330
18A
100
AcDbEntity
  8
0
  6
Continuous
 62
     7
370
    15
100
AcDbLine
 10
-221.2770238707
 20
28.7691553643
 30
0.0
 11
-1.4546523905
 21
1.0741397808
 31
0.0
  0
LINE
  5
1AE
330
18A
100
AcDbEntity
  8
0
  6
Continuous
 62
     7
370
    15
100
AcDbLine
 10
-1.4546523905
 20
1.0741397808
 30
0.0
 11
55.1138900914
 21
50.9629049275
 31
0.0
  0
LINE
  5
1AF
330
18A
100
AcDbEntity
  8
0
  6
Continuous
 62
     7
370
    15
100
AcDbLine
 10
59.790961825
 20
50.3736492768
 30
0.0
 11
55.1138900914
 21
50.9629049275
 31
0.0
  0
LINE
  5
1B0
330
18A
100
AcDbEntity
  8
0
  6
Continuous
 62
     7
370
    15
100
AcDbLine
 10
3.2224193431
 20
0.4848841301
 30
0.0
 11
59.790961825
 21
50.3736492768
 31
0.0
  0
LINE
  5
1B1
330
18A
100
AcDbEntity
  8
0
  6
Continuous
 62
     7
370
    15
100
AcDbLine
 10
3.2224193431
 20
0.4848841301
 30
0.0
 11
223.0447908233
 21
-27.2101314535
 31
0.0
  0
LINE
  5
1B2
330
18A
100
AcDbEntity
  8
0
  6
Continuous
 62
     7
370
    15
100
AcDbLine
 10
1.4546523905
 20
-283.9168522638
 30
0.0
 11
1.4546523905
 21
-1.0741397808
 31
0.0
  0
LINE
  5
1B3
330
18A
100
AcDbEntity
  8
0
  6
Continuous
 62
     7
370
    15
100
AcDbLine
 10
-15.3170834682
 20
-298.7081329765
 30
0.0
 11
1.4546523905
 21
-283.9168522638
 31
0.0
  0
LINE
  5
1B4
330
18A
100
AcDbEntity
  8
0
  6
Continuous
 62
     7
370
    15
100
AcDbLine
 10
1.4546523905
 20
-283.9168522638
 30
0.0
 11
45.8285748543
 21
-289.5074410008
 31
0.0
  0
LINE
  5
1B5
330
18A
100
AcDbEntity
  8
0
  6
Continuous
 62
     7
370
    15
100
AcDbLine
 10
-47.5963495261
 20
-277.7370069036
 30
0.0
 11
-22.7684128324
 21
-280.8650329048
 31
0.0
  0
LINE
  5
1B6
330
18A
100
AcDbEntity
  8
0
  6
Continuous
 62
     7
370
    15
100
AcDbLine
 10
59.790961825
 20
50.3736492768
 30
0.0
 11
52.768121773
 21
-5.7572876364
 31
0.0
  0
VIEWPORT
  5
1C9
330
18A
100
AcDbEntity
  8
0
100
AcDbViewport
 10
0.0
 20
0.0
 30
0.0
 40
205.6
 41
156.0
 68
     1
 69
     1
 12
0.0
 22
-102.9385090261
 13
0.0
 23
0.0
 14
10.0
 24
10.0
 15
10.0
 25
10.0
 16
0.0
 26
0.0
 36
1.0
 17
0.0
 27
0.0
 37
0.0
 42
50.0
 43
0.0
 44
0.0
 45
362.2216602317
 50
0.0
 51
0.0
 72
   100
 90
   557152
  1

281
     0
 71
     1
 74
     0
110
0.0
120
0.0
130
0.0
111
1.0
121
0.0
131
0.0
112
0.0
122
1.0
132
0.0
 79
     0
146
0.0
  0
ENDBLK
  5
18D
330
18A
100
AcDbEntity
  8
0
100
AcDbBlockEnd
  0
ENDSEC
  0
SECTION
  2
ENTITIES
  0
SPLINE
  5
7F
330
1F
100
AcDbEntity
  8
0
  6
Continuous
 62
     7
370
    15
100
AcDbSpline
210
0.0
220
0.0
230
1.0
 70
     8
 71
     3
 72
    14
 73
    10
 74
     0
 42
0.000000001
 43
0.00000001
 40
0.0
 40
0.0
 40
0.0
 40
0.0
 40
0.1249999999999999
 40
0.1249999999999999
 40
0.2499999999999998
 40
0.2499999999999998
 40
0.4999999999999999
 40
0.4999999999999999
 40
1.0
 40
1.0
 40
1.0
 40
1.0
 10
-25.51657957987097
 20
-279.2961913964646
 30
0.0
 10
-27.71291162843771
 20
-270.730446025493
 30
0.0
 10
-29.90420882644815
 20
-262.156313740113
 30
0.0
 10
-34.28521474134192
 20
-245.005403140577
 30
0.0
 10
-36.4745110706249
 20
-236.4279378750501
 30
0.0
 10
-43.04132781905566
 20
-210.6937559735368
 30
0.0
 10
-47.41772041320279
 20
-193.5351607524916
 30
0.0
 10
-60.54635553530331
 20
-142.0584728446346
 30
0.0
 10
-69.29769525507731
 20
-107.7388766580557
 30
0.0
 10
-78.04904600532866
 20
-73.41929886898458
 30
0.0
  0
SPLINE
  5
80
330
1F
100
AcDbEntity
  8
0
  6
Continuous
 62
     7
370
    15
100
AcDbSpline
210
0.0
220
0.0
230
1.0
 70
     8
 71
     3
 72
    14
 73
    10
 74
     0
 42
0.000000001
 43
0.00000001
 40
0.0
 40
0.0
 40
0.0
 40
0.0
 40
0.1249999999999999
 40
0.1249999999999999
 40
0.2499999999999999
 40
0.2499999999999999
 40
0.5
 40
0.5
 40
1.0
 40
1.0
 40
1.0
 40
1.0
 10
-21.09448897550073
 20
-280.4980208685127
 30
0.0
 10
-23.29082102410151
 20
-271.9322754975914
 30
0.0
 10
-25.48211821803562
 20
-263.358143213632
 30
0.0
 10
-29.86312413293173
 20
-246.2072326140868
 30
0.0
 10
-32.05242046221589
 20
-237.6297673485556
 30
0.0
 10
-38.61923721065012
 20
-211.8955854470288
 30
0.0
 10
-42.99562980479955
 20
-194.7369902259744
 30
0.0
 10
-56.12426492690704
 20
-143.2603023180903
 30
0.0
 10
-64.87560464668559
 20
-108.9407061314934
 30
0.0
 10
-73.62695539694155
 20
-74.62112834240418
 30
0.0
  0
SPLINE
  5
81
330
1F
100
AcDbEntity
  8
0
  6
Continuous
 62
     7
370
    15
100
AcDbSpline
210
0.0
220
0.0
230
1.0
 70
     8
 71
     3
 72
    10
 73
     6
 74
     0
 42
0.000000001
 43
0.00000001
 40
0.476286704937226
 40
0.476286704937226
 40
0.476286704937226
 40
0.476286704937226
 40
0.5000000063784834
 40
0.5000000063784834
 40
0.5237133014412574
 40
0.5237133014412574
 40
0.5237133014412574
 40
0.5237133014412574
 10
-25.51656244464567
 20
-279.2961966338617
 30
0.0
 10
-24.79993270618359
 20
-279.515241070578
 30
0.0
 10
-24.0722446860489
 20
-279.7252105829282
 30
0.0
 10
-22.59729440532589
 20
-280.1260704648672
 30
0.0
 10
-21.85005311755835
 20
-280.3169551410555
 30
0.0
 10
-21.09450765516532
 20
-280.4980163920625
 30
0.0
  0
SPLINE
  5
84
330
1F
100
AcDbEntity
  8
0
  6
Continuous
 62
     7
370
    15
100
AcDbSpline
210
0.0
220
0.0
230
1.0
 70
     8
 71
     3
 72
    10
 73
     6
 74
     0
 42
0.000000001
 43
0.00000001
 40
0.459569272974286
 40
0.459569272974286
 40
0.459569272974286
 40
0.459569272974286
 40
0.50000001004849
 40
0.50000001004849
 40
0.5404307370742041
 40
0.5404307370742041
 40
0.5404307370742041
 40
0.5404307370742041
 10
42.99872468176842
 20
-270.2921695380476
 30
0.0
 10
43.42404688993768
 20
-269.9230886201611
 30
0.0
 10
43.83175042885889
 20
-269.5483127942463
 30
0.0
 10
44.61006164216409
 20
-268.7886571898271
 30
0.0
 10
44.98065152484754
 20
-268.4037947880778
 30
0.0
 10
45.33216975134404
 20
-268.0146556494091
 30
0.0
  0
SPLINE
  5
85
330
1F
100
AcDbEntity
  8
0
  6
Continuous
 62
     7
370
    15
100
AcDbSpline
210
0.0
220
0.0
230
1.0
 70
     8
 71
     3
 72
    14
 73
    10
 74
     0
 42
0.000000001
 43
0.00000001
 40
0.0
 40
0.0
 40
0.0
 40
0.0
 40
0.5000000000000001
 40
0.5000000000000001
 40
0.75
 40
0.75
 40
0.8750000000000001
 40
0.8750000000000001
 40
1.0
 40
1.0
 40
1.0
 40
1.0
 10
208.8825654260624
 20
-58.225672504442
 30
0.0
 10
181.2416603126242
 20
-93.57571345446296
 30
0.0
 10
153.6008018061908
 20
-128.9257953113504
 30
0.0
 10
112.1373954427755
 20
-181.9490589128172
 30
0.0
 10
98.31607271234452
 20
-199.6233157027252
 30
0.0
 10
77.58078043398135
 20
-226.1317966160238
 30
0.0
 10
70.6685120865555
 20
-234.9675142325729
 30
0.0
 10
56.83987994183959
 20
-252.635354048006
 30
0.0
 10
49.92465526924726
 20
-261.4684762906452
 30
0.0
 10
42.99870737356925
 20
-270.292184557534
 30
0.0
  0
SPLINE
  5
86
330
1F
100
AcDbEntity
  8
0
  6
Continuous
 62
     7
370
    15
100
AcDbSpline
210
0.0
220
0.0
230
1.0
 70
     8
 71
     3
 72
    14
 73
    10
 74
     0
 42
0.000000001
 43
0.00000001
 40
0.0
 40
0.0
 40
0.0
 40
0.0
 40
0.5000000000000001
 40
0.5000000000000001
 40
0.7499999999999999
 40
0.7499999999999999
 40
0.875
 40
0.875
 40
1.0
 40
1.0
 40
1.0
 40
1.0
 10
211.2160423707127
 20
-55.94812747042063
 30
0.0
 10
183.5751372572745
 20
-91.29816842044163
 30
0.0
 10
155.9342787508411
 20
-126.6482502773291
 30
0.0
 10
114.4708723874257
 20
-179.6715138787958
 30
0.0
 10
100.6495496569949
 20
-197.3457706687038
 30
0.0
 10
79.91425737863167
 20
-223.8542515820024
 30
0.0
 10
73.00198903120581
 20
-232.6899691985515
 30
0.0
 10
59.17335688648988
 20
-250.3578090139846
 30
0.0
 10
52.25813221389757
 20
-259.1909312566238
 30
0.0
 10
45.33218431821957
 20
-268.0146395235127
 30
0.0
  0
SPLINE
  5
88
330
1F
100
AcDbEntity
  8
0
  6
Continuous
 62
     7
370
    15
100
AcDbSpline
210
0.0
220
0.0
230
1.0
 70
     8
 71
     3
 72
    14
 73
    10
 74
     0
 42
0.000000001
 43
0.00000001
 40
0.0
 40
0.0
 40
0.0
 40
0.0
 40
0.1249999999999999
 40
0.1249999999999999
 40
0.2499999999999998
 40
0.2499999999999998
 40
0.4999999999999998
 40
0.4999999999999998
 40
1.0
 40
1.0
 40
1.0
 40
1.0
 10
-45.3321843182195
 20
-246.2857408977677
 30
0.0
 10
-52.2581312862574
 20
-233.6973858510578
 30
0.0
 10
-59.17335579871978
 20
-221.1054441215021
 30
0.0
 10
-73.00198775068395
 20
-195.9209528478494
 30
0.0
 10
-79.91425614761337
 20
-183.3280222917328
 30
0.0
 10
-100.6495486821262
 20
-145.5487246368318
 30
0.0
 10
-114.4708716969941
 20
-120.3617886025782
 30
0.0
 10
-155.9342783466955
 20
-44.80079368698767
 30
0.0
 10
-183.575137057981
 20
5.573674683436919
 30
0.0
 10
-211.2160423707127
 20
55.94812747042063
 30
0.0
  0
LINE
  5
8B
330
1F
100
AcDbEntity
  8
0
  6
Continuous
 62
     7
370
    15
100
AcDbLine
 10
208.8825654261
 20
-58.2256725044
 30
0.0
 11
211.2160423707
 21
-55.9481274704
 31
0.0
  0
LINE
  5
8C
330
1F
100
AcDbEntity
  8
0
  6
Continuous
 62
     7
370
    15
100
AcDbLine
 10
1.0443068319
 20
-1.7396872537
 30
0.0
 11
208.8825654261
 21
-58.2256725044
 31
0.0
  0
LINE
  5
8D
330
1F
100
AcDbEntity
  8
0
  6
Continuous
 62
     7
370
    15
100
AcDbLine
 10
-73.6269553969
 20
-74.6211283424
 30
0.0
 11
1.0443068319
 21
-1.7396872537
 31
0.0
  0
LINE
  5
8E
330
1F
100
AcDbEntity
  8
0
  6
Continuous
 62
     7
370
    15
100
AcDbLine
 10
-78.0490460053
 20
-73.419298869
 30
0.0
 11
-73.6269553969
 21
-74.6211283424
 31
0.0
  0
LINE
  5
8F
330
1F
100
AcDbEntity
  8
0
  6
Continuous
 62
     7
370
    15
100
AcDbLine
 10
-78.0490460053
 20
-73.419298869
 30
0.0
 11
-3.3777837765
 21
-0.5378577803
 31
0.0
  0
LINE
  5
90
330
1F
100
AcDbEntity
  8
0
  6
Continuous
 62
     7
370
    15
100
AcDbLine
 10
-211.2160423707
 20
55.9481274704
 30
0.0
 11
-3.3777837765
 21
-0.5378577803
 31
0.0
  0
LINE
  5
91
330
1F
100
AcDbEntity
  8
0
  6
Continuous
 62
     7
370
    15
100
AcDbLine
 10
-208.8825654261
 20
58.2256725044
 30
0.0
 11
-211.2160423707
 21
55.9481274704
 31
0.0
  0
LINE
  5
92
330
1F
100
AcDbEntity
  8
0
  6
Continuous
 62
     7
370
    15
100
AcDbLine
 10
-208.8825654261
 20
58.2256725044
 30
0.0
 11
-1.0443068319
 21
1.7396872537
 31
0.0
  0
LINE
  5
93
330
1F
100
AcDbEntity
  8
0
  6
Continuous
 62
     7
370
    15
100
AcDbLine
 10
-1.0443068319
 20
1.7396872537
 30
0.0
 11
73.6269553969
 21
74.6211283424
 31
0.0
  0
LINE
  5
94
330
1F
100
AcDbEntity
  8
0
  6
Continuous
 62
     7
370
    15
100
AcDbLine
 10
78.0490460053
 20
73.419298869
 30
0.0
 11
73.6269553969
 21
74.6211283424
 31
0.0
  0
LINE
  5
95
330
1F
100
AcDbEntity
  8
0
  6
Continuous
 62
     7
370
    15
100
AcDbLine
 10
3.3777837765
 20
0.5378577803
 30
0.0
 11
78.0490460053
 21
73.419298869
 31
0.0
  0
LINE
  5
96
330
1F
100
AcDbEntity
  8
0
  6
Continuous
 62
     7
370
    15
100
AcDbLine
 10
3.3777837765
 20
0.5378577803
 30
0.0
 11
211.2160423707
 21
-55.9481274704
 31
0.0
  0
LINE
  5
97
330
1F
100
AcDbEntity
  8
0
  6
Continuous
 62
     7
370
    15
100
AcDbLine
 10
1.0443068319
 20
-258.8898774644
 30
0.0
 11
1.0443068319
 21
-1.7396872537
 31
0.0
  0
LINE
  5
98
330
1F
100
AcDbEntity
  8
0
  6
Continuous
 62
     7
370
    15
100
AcDbLine
 10
-21.0946175842
 20
-280.4981463946
 30
0.0
 11
1.0443068319
 21
-258.8898774644
 31
0.0
  0
LINE
  5
99
330
1F
100
AcDbEntity
  8
0
  6
Continuous
 62
     7
370
    15
100
AcDbLine
 10
1.0443068319
 20
-258.8898774644
 30
0.0
 11
42.9990847271
 21
-270.2922871141
 31
0.0
  0
LINE
  5
9A
330
1F
100
AcDbEntity
  8
0
  6
Continuous
 62
     7
370
    15
100
AcDbLine
 10
-45.3325689702
 20
-246.2856363576
 30
0.0
 11
-33.0996595233
 21
-249.6102790257
 31
0.0
  0
LINE
  5
9B
330
1F
100
AcDbEntity
  8
0
  6
Continuous
 62
     7
370
    15
100
AcDbLine
 10
78.0490460053
 20
73.419298869
 30
0.0
 11
62.8870462982
 21
-15.6354846438
 31
0.0
  0
SPLINE
  5
9C
330
1B
100
AcDbEntity
 67
     1
  8
0
  6
Continuous
 62
     7
370
    15
100
AcDbSpline
210
0.0
220
0.0
230
1.0
 70
    24
 71
     3
 72
    14
 73
    10
 74
     0
 42
0.000000001
 43
0.00000001
 40
0.0
 40
0.0
 40
0.0
 40
0.0
 40
0.1249999999999999
 40
0.1249999999999999
 40
0.2499999999999999
 40
0.2499999999999999
 40
0.5
 40
0.5
 40
1.0
 40
1.0
 40
1.0
 40
1.0
 10
2.499999999999925
 20
-300.0
 30
0.0
 10
2.499999999999925
 20
-287.5060180512547
 30
0.0
 10
2.500000000000005
 20
-275.0079846874239
 30
0.0
 10
2.500000000000004
 20
-250.0106397573534
 30
0.0
 10
2.500000000000005
 20
-237.5109963503806
 30
0.0
 10
2.500000000000005
 20
-200.0112033266121
 30
0.0
 10
2.499999999999995
 20
-175.0101463101964
 30
0.0
 10
2.499999999999995
 20
-100.0065405831538
 30
0.0
 10
2.5
 20
-50.00326584004015
 30
0.0
 10
2.5
 20
0.0
 30
0.0
  0
SPLINE
  5
9D
330
1B
100
AcDbEntity
 67
     1
  8
0
  6
Continuous
 62
     7
370
    15
100
AcDbSpline
210
0.0
220
0.0
230
1.0
 70
    24
 71
     3
 72
    10
 73
     6
 74
     0
 42
0.000000001
 43
0.00000001
 40
0.476286704937226
 40
0.476286704937226
 40
0.476286704937226
 40
0.476286704937226
 40
0.5000000063784834
 40
0.5000000063784834
 40
0.5237133014412574
 40
0.5237133014412574
 40
0.5237133014412574
 40
0.5237133014412574
 10
-2.499980094698276
 20
-300.0
 30
0.0
 10
-1.667695357158353
 20
-300.0
 30
0.0
 10
-0.8338536055175669
 20
-300.0
 30
0.0
 10
0.8338533812248209
 20
-300.0
 30
0.0
 10
1.667694908579241
 20
-300.0
 30
0.0
 10
2.499979423086042
 20
-300.0
 30
0.0
  0
SPLINE
  5
9F
330
1B
100
AcDbEntity
 67
     1
  8
0
  6
Continuous
 62
     7
370
    15
100
AcDbSpline
210
0.0
220
0.0
230
1.0
 70
     8
 71
     3
 72
    14
 73
    10
 74
     0
 42
0.000000001
 43
0.00000001
 40
0.0
 40
0.0
 40
0.0
 40
0.0
 40
0.1249999999999999
 40
0.1249999999999999
 40
0.2499999999999998
 40
0.2499999999999998
 40
0.4999999999999999
 40
0.4999999999999999
 40
1.0
 40
1.0
 40
1.0
 40
1.0
 10
-2.499999995204755
 20
-300.0
 30
0.0
 10
-2.499999995204755
 20
-287.5060180512349
 30
0.0
 10
-2.500000000000001
 20
-275.0079846872791
 30
0.0
 10
-2.500000000000001
 20
-250.0106397572218
 30
0.0
 10
-2.49999999999999
 20
-237.5109963502554
 30
0.0
 10
-2.499999999999991
 20
-200.0112033265067
 30
0.0
 10
-2.499999999999999
 20
-175.0101463101042
 30
0.0
 10
-2.499999999999998
 20
-100.0065405831013
 30
0.0
 10
-2.5
 20
-50.00326584001376
 30
0.0
 10
-2.5
 20
0.0
 30
0.0
  0
SPLINE
  5
A0
330
1B
100
AcDbEntity
 67
     1
  8
0
  6
Continuous
 62
     7
370
    15
100
AcDbSpline
210
0.0
220
0.0
230
1.0
 70
     8
 71
     3
 72
    14
 73
    10
 74
     0
 42
0.000000001
 43
0.00000001
 40
0.0
 40
0.0
 40
0.0
 40
0.0
 40
0.1249999999999999
 40
0.1249999999999999
 40
0.2499999999999998
 40
0.2499999999999998
 40
0.4999999999999998
 40
0.4999999999999998
 40
1.0
 40
1.0
 40
1.0
 40
1.0
 10
-49.9372918344646
 20
-300.0
 30
0.0
 10
-57.76836946424211
 20
-287.5099866069092
 30
0.0
 10
-65.58732335377417
 20
-275.0123891441606
 30
0.0
 10
-81.22317659221332
 20
-250.0159089899387
 30
0.0
 10
-89.03878804058499
 20
-237.5162206454926
 30
0.0
 10
-112.4839120450383
 20
-200.0160856995316
 30
0.0
 10
-128.1115011639201
 20
-175.0144359907918
 30
0.0
 10
-174.9936326280067
 20
-100.0090906062066
 30
0.0
 10
-206.2467899681805
 20
-50.00452882515587
 30
0.0
 10
-237.5
 20
0.0
 30
0.0
  0
SPLINE
  5
A1
330
1B
100
AcDbEntity
 67
     1
  8
0
  6
Continuous
 62
     7
370
    15
100
AcDbSpline
210
0.0
220
0.0
230
1.0
 70
    24
 71
     3
 72
     8
 73
     4
 74
     0
 42
0.000000001
 43
0.00000001
 40
0.459569272974285
 40
0.459569272974285
 40
0.459569272974285
 40
0.459569272974285
 40
0.5
 40
0.5
 40
0.5
 40
0.5
 10
-50.0
 20
-300.0
 30
0.0
 10
-50.00000000000145
 20
-300.0
 30
0.0
 10
-49.97901809710431
 20
-300.0
 30
0.0
 10
-49.93729356353769
 20
-300.0
 30
0.0
  0
SPLINE
  5
A4
330
1B
100
AcDbEntity
 67
     1
  8
0
  6
Continuous
 62
     7
370
    15
100
AcDbSpline
210
0.0
220
0.0
230
1.0
 70
     8
 71
     3
 72
    14
 73
    10
 74
     0
 42
0.000000001
 43
0.00000001
 40
0.0
 40
0.0
 40
0.0
 40
0.0
 40
0.5000000000000001
 40
0.5000000000000001
 40
0.75
 40
0.75
 40
0.8750000000000001
 40
0.8750000000000001
 40
1.0
 40
1.0
 40
1.0
 40
1.0
 10
237.5
 20
0.0
 30
0.0
 10
206.2467901935191
 20
-50.00452846461847
 30
0.0
 10
174.9936330849688
 20
-100.0090898750589
 30
0.0
 10
128.1115019445821
 20
-175.0144347418672
 30
0.0
 10
112.4839131473095
 20
-200.0160839360937
 30
0.0
 10
89.03878943248127
 20
-237.5162184193602
 30
0.0
 10
81.22317804008263
 20
-250.0159066746266
 30
0.0
 10
65.58732458370162
 20
-275.0123871785748
 30
0.0
 10
57.76837051311265
 20
-287.5099849340349
 30
0.0
 10
49.9372918344646
 20
-300.0
 30
0.0
  0
LINE
  5
A7
330
1B
100
AcDbEntity
 67
     1
  8
0
  6
Continuous
 62
     7
370
    15
100
AcDbLine
 10
-237.5
 20
0.0
 30
0.0
 11
237.5
 21
0.0
 31
0.0
  0
LINE
  5
A8
330
1B
100
AcDbEntity
 67
     1
  8
0
  6
Continuous
 62
     7
370
    15
100
AcDbLine
 10
-49.9377267555
 20
-300.0
 30
0.0
 11
-2.5
 21
-300.0
 31
0.0
  0
LINE
  5
A9
330
1B
100
AcDbEntity
 67
     1
  8
0
  6
Continuous
 62
     7
370
    15
100
AcDbLine
 10
2.5
 20
-300.0
 30
0.0
 11
49.9377185032
 21
-300.0
 31
0.0
  0
VIEWPORT
  5
1B7
330
1B
100
AcDbEntity
 67
     1
  8
0
100
AcDbViewport
 10
0.0
 20
0.0
 30
0.0
 40
205.6
 41
156.0
 68
     1
 69
     1
 12
0.0
 22
-102.9385090261
 13
0.0
 23
0.0
 14
10.0
 24
10.0
 15
10.0
 25
10.0
 16
0.0
 26
0.0
 36
1.0
 17
0.0
 27
0.0
 37
0.0
 42
50.0
 43
0.0
 44
0.0
 45
362.2216602317
 50
0.0
 51
0.0
 72
   100
 90
   557152
  1

281
     0
 71
     1
 74
     0
110
0.0
120
0.0
130
0.0
111
1.0
121
0.0
131
0.0
112
0.0
122
1.0
132
0.0
 79
     0
146
0.0
  0
ENDSEC
  0
SECTION
  2
OBJECTS
  0
DICTIONARY
  5
C
330
0
100
AcDbDictionary
281
     1
  3
ACAD_GROUP
350
D
  3
ACAD_LAYOUT
350
1A
  3
ACAD_MLINESTYLE
350
17
  3
ACAD_PLOTSETTINGS
350
19
  3
ACAD_PLOTSTYLENAME
350
E
  3
ACAD_SCALELIST
350
47
  0
DICTIONARY
  5
D
102
{ACAD_REACTORS
330
C
102
}
330
C
100
AcDbDictionary
281
     1
  0
DICTIONARY
  5
1A
102
{ACAD_REACTORS
330
C
102
}
330
C
100
AcDbDictionary
281
     1
  3
_Back
350
B9
  3
_Bottom
350
10B
  3
_Dimetric
350
18B
  3
_Front
350
26
  3
_Isometric
350
133
  3
_Left
350
CB
  3
_Right
350
DD
  3
_Top
350
EF
  3
_Trimetric
350
15E
  3
Model
350
22
  3
Notes Area
350
1E
  0
DICTIONARY
  5
17
102
{ACAD_REACTORS
330
C
102
}
330
C
100
AcDbDictionary
281
     1
  3
Standard
350
18
  0
DICTIONARY
  5
19
102
{ACAD_REACTORS
330
C
102
}
330
C
100
AcDbDictionary
281
     1
  0
ACDBDICTIONARYWDFLT
  5
E
102
{ACAD_REACTORS
330
C
102
}
330
C
100
AcDbDictionary
281
     1
  3
Normal
350
F
100
AcDbDictionaryWithDefault
340
F
  0
DICTIONARY
  5
47
102
{ACAD_REACTORS
330
C
102
}
330
C
100
AcDbDictionary
281
     1
  3
A0
350
48
  3
A1
350
49
  3
A2
350
4A
  3
A3
350
4B
  3
A4
350
4C
  3
A5
350
4D
  3
A6
350
4E
  3
A7
350
4F
  3
A8
350
50
  3
A9
350
51
  3
B0
350
52
  3
B1
350
53
  3
B2
350
54
  3
B3
350
55
  3
B4
350
56
  3
B5
350
57
  3
B6
350
58
  3
B7
350
59
  3
B8
350
5A
  3
B9
350
5B
  3
C0
350
5C
  3
C1
350
5D
  3
C2
350
5E
  3
C3
350
5F
  3
C4
350
60
  3
C5
350
61
  3
C6
350
62
  3
C7
350
63
  3
C8
350
64
  3
C9
350
65
  3
D0
350
66
  3
D1
350
67
  3
D2
350
68
  0
LAYOUT
  5
B9
102
{ACAD_REACTORS
330
1A
102
}
330
1A
100
AcDbPlotSettings
  1

  2
none_device
  4
ISO_A4_(210.00_x_297.00_MM)
  6

 40
7.5
 41
20.0
 42
7.5
 43
20.0
 44
210.0
 45
297.0
 46
0.0
 47
0.0
 48
0.0
 49
0.0
140
0.0
141
0.0
142
1.0
143
1.8482490272
 70
   688
 72
     1
 73
     1
 74
     1
  7

 75
     0
147
0.5410526316
148
237.5
149
300.0
100
AcDbLayout
  1
_Back
 70
     1
 71
     3
 10
0.0
 20
0.0
 11
0.0
 21
0.0
 12
0.0
 22
0.0
 32
0.0
 14
0.0
 24
0.0
 34
0.0
 15
0.0
 25
0.0
 35
0.0
146
0.0
 13
0.0
 23
0.0
 33
0.0
 16
1.0
 26
0.0
 36
0.0
 17
0.0
 27
1.0
 37
0.0
 76
     0
330
B8
331
1BB
  0
LAYOUT
  5
10B
102
{ACAD_REACTORS
330
1A
102
}
330
1A
100
AcDbPlotSettings
  1

  2
none_device
  4
ISO_A4_(210.00_x_297.00_MM)
  6

 40
7.5
 41
20.0
 42
7.5
 43
20.0
 44
210.0
 45
297.0
 46
0.0
 47
0.0
 48
0.0
 49
0.0
140
0.0
141
0.0
142
1.0
143
1.8482490272
 70
   688
 72
     1
 73
     1
 74
     1
  7

 75
     0
147
0.5410526316
148
237.5
149
300.0
100
AcDbLayout
  1
_Bottom
 70
     1
 71
     7
 10
0.0
 20
0.0
 11
0.0
 21
0.0
 12
0.0
 22
0.0
 32
0.0
 14
0.0
 24
0.0
 34
0.0
 15
0.0
 25
0.0
 35
0.0
146
0.0
 13
0.0
 23
0.0
 33
0.0
 16
1.0
 26
0.0
 36
0.0
 17
0.0
 27
1.0
 37
0.0
 76
     0
330
10A
331
1C3
  0
LAYOUT
  5
18B
102
{ACAD_REACTORS
330
1A
102
}
330
1A
100
AcDbPlotSettings
  1

  2
none_device
  4
ISO_A4_(210.00_x_297.00_MM)
  6

 40
7.5
 41
20.0
 42
7.5
 43
20.0
 44
210.0
 45
297.0
 46
0.0
 47
0.0
 48
0.0
 49
0.0
140
0.0
141
0.0
142
1.0
143
1.8482490272
 70
   688
 72
     1
 73
     1
 74
     1
  7

 75
     0
147
0.5410526316
148
237.5
149
300.0
100
AcDbLayout
  1
_Dimetric
 70
     1
 71
    10
 10
0.0
 20
0.0
 11
0.0
 21
0.0
 12
0.0
 22
0.0
 32
0.0
 14
0.0
 24
0.0
 34
0.0
 15
0.0
 25
0.0
 35
0.0
146
0.0
 13
0.0
 23
0.0
 33
0.0
 16
1.0
 26
0.0
 36
0.0
 17
0.0
 27
1.0
 37
0.0
 76
     0
330
18A
331
1C9
  0
LAYOUT
  5
26
102
{ACAD_REACTORS
330
1A
102
}
330
1A
100
AcDbPlotSettings
  1

  2
none_device
  4
ISO_A4_(210.00_x_297.00_MM)
  6

 40
7.5
 41
20.0
 42
7.5
 43
20.0
 44
210.0
 45
297.0
 46
0.0
 47
0.0
 48
0.0
 49
0.0
140
0.0
141
0.0
142
1.0
143
1.8482490272
 70
   688
 72
     1
 73
     1
 74
     1
  7

 75
     0
147
0.5410526316
148
237.5
149
300.0
100
AcDbLayout
  1
_Front
 70
     1
 71
     2
 10
0.0
 20
0.0
 11
0.0
 21
0.0
 12
0.0
 22
0.0
 32
0.0
 14
0.0
 24
0.0
 34
0.0
 15
0.0
 25
0.0
 35
0.0
146
0.0
 13
0.0
 23
0.0
 33
0.0
 16
1.0
 26
0.0
 36
0.0
 17
0.0
 27
1.0
 37
0.0
 76
     0
330
23
331
1B9
  0
LAYOUT
  5
133
102
{ACAD_REACTORS
330
1A
102
}
330
1A
100
AcDbPlotSettings
  1

  2
none_device
  4
ISO_A4_(210.00_x_297.00_MM)
  6

 40
7.5
 41
20.0
 42
7.5
 43
20.0
 44
210.0
 45
297.0
 46
0.0
 47
0.0
 48
0.0
 49
0.0
140
0.0
141
0.0
142
1.0
143
1.8482490272
 70
   688
 72
     1
 73
     1
 74
     1
  7

 75
     0
147
0.5410526316
148
237.5
149
300.0
100
AcDbLayout
  1
_Isometric
 70
     1
 71
     8
 10
0.0
 20
0.0
 11
0.0
 21
0.0
 12
0.0
 22
0.0
 32
0.0
 14
0.0
 24
0.0
 34
0.0
 15
0.0
 25
0.0
 35
0.0
146
0.0
 13
0.0
 23
0.0
 33
0.0
 16
1.0
 26
0.0
 36
0.0
 17
0.0
 27
1.0
 37
0.0
 76
     0
330
132
331
1C5
  0
LAYOUT
  5
CB
102
{ACAD_REACTORS
330
1A
102
}
330
1A
100
AcDbPlotSettings
  1

  2
none_device
  4
ISO_A4_(210.00_x_297.00_MM)
  6

 40
7.5
 41
20.0
 42
7.5
 43
20.0
 44
210.0
 45
297.0
 46
0.0
 47
0.0
 48
0.0
 49
0.0
140
0.0
141
0.0
142
1.0
143
1.8482490272
 70
   688
 72
     1
 73
     1
 74
     1
  7

 75
     0
147
0.5410526316
148
237.5
149
300.0
100
AcDbLayout
  1
_Left
 70
     1
 71
     4
 10
0.0
 20
0.0
 11
0.0
 21
0.0
 12
0.0
 22
0.0
 32
0.0
 14
0.0
 24
0.0
 34
0.0
 15
0.0
 25
0.0
 35
0.0
146
0.0
 13
0.0
 23
0.0
 33
0.0
 16
1.0
 26
0.0
 36
0.0
 17
0.0
 27
1.0
 37
0.0
 76
     0
330
CA
331
1BD
  0
LAYOUT
  5
DD
102
{ACAD_REACTORS
330
1A
102
}
330
1A
100
AcDbPlotSettings
  1

  2
none_device
  4
ISO_A4_(210.00_x_297.00_MM)
  6

 40
7.5
 41
20.0
 42
7.5
 43
20.0
 44
210.0
 45
297.0
 46
0.0
 47
0.0
 48
0.0
 49
0.0
140
0.0
141
0.0
142
1.0
143
1.8482490272
 70
   688
 72
     1
 73
     1
 74
     1
  7

 75
     0
147
0.5410526316
148
237.5
149
300.0
100
AcDbLayout
  1
_Right
 70
     1
 71
     5
 10
0.0
 20
0.0
 11
0.0
 21
0.0
 12
0.0
 22
0.0
 32
0.0
 14
0.0
 24
0.0
 34
0.0
 15
0.0
 25
0.0
 35
0.0
146
0.0
 13
0.0
 23
0.0
 33
0.0
 16
1.0
 26
0.0
 36
0.0
 17
0.0
 27
1.0
 37
0.0
 76
     0
330
DC
331
1BF
  0
LAYOUT
  5
EF
102
{ACAD_REACTORS
330
1A
102
}
330
1A
100
AcDbPlotSettings
  1

  2
none_device
  4
ISO_A4_(210.00_x_297.00_MM)
  6

 40
7.5
 41
20.0
 42
7.5
 43
20.0
 44
210.0
 45
297.0
 46
0.0
 47
0.0
 48
0.0
 49
0.0
140
0.0
141
0.0
142
1.0
143
1.8482490272
 70
   688
 72
     1
 73
     1
 74
     1
  7

 75
     0
147
0.5410526316
148
237.5
149
300.0
100
AcDbLayout
  1
_Top
 70
     1
 71
     6
 10
0.0
 20
0.0
 11
0.0
 21
0.0
 12
0.0
 22
0.0
 32
0.0
 14
0.0
 24
0.0
 34
0.0
 15
0.0
 25
0.0
 35
0.0
146
0.0
 13
0.0
 23
0.0
 33
0.0
 16
1.0
 26
0.0
 36
0.0
 17
0.0
 27
1.0
 37
0.0
 76
     0
330
EE
331
1C1
  0
LAYOUT
  5
15E
102
{ACAD_REACTORS
330
1A
102
}
330
1A
100
AcDbPlotSettings
  1

  2
none_device
  4
ISO_A4_(210.00_x_297.00_MM)
  6

 40
7.5
 41
20.0
 42
7.5
 43
20.0
 44
210.0
 45
297.0
 46
0.0
 47
0.0
 48
0.0
 49
0.0
140
0.0
141
0.0
142
1.0
143
1.8482490272
 70
   688
 72
     1
 73
     1
 74
     1
  7

 75
     0
147
0.5410526316
148
237.5
149
300.0
100
AcDbLayout
  1
_Trimetric
 70
     1
 71
     9
 10
0.0
 20
0.0
 11
0.0
 21
0.0
 12
0.0
 22
0.0
 32
0.0
 14
0.0
 24
0.0
 34
0.0
 15
0.0
 25
0.0
 35
0.0
146
0.0
 13
0.0
 23
0.0
 33
0.0
 16
1.0
 26
0.0
 36
0.0
 17
0.0
 27
1.0
 37
0.0
 76
     0
330
15D
331
1C7
  0
LAYOUT
  5
22
102
{ACAD_REACTORS
330
1A
102
}
330
1A
100
AcDbPlotSettings
  1

  2
none_device
  4
ANSI_A_(11.00_x_8.50_Inches)
  6

 40
6.35
 41
19.05
 42
6.35000508
 43
19.05000254
 44
279.4
 45
215.9
 46
133.34999746
 47
150.8571534748
 48
0.0
 49
0.0
140
0.0
141
0.0
142
0.0236962638
143
1.0
 70
  1696
 72
     0
 73
     0
 74
     0
  7

 75
     0
147
0.0179189148
148
-1300.4909072572
149
0.0
100
AcDbLayout
  1
Model
 70
     1
 71
     0
 10
0.0
 20
0.0
 11
420.0
 21
297.0
 12
0.0
 22
0.0
 32
0.0
 14
-211.2160423707
 24
-280.4981463946
 34
0.0
 15
211.2160423707
 25
74.6211283424
 35
0.0
146
0.0
 13
0.0
 23
0.0
 33
0.0
 16
1.0
 26
0.0
 36
0.0
 17
0.0
 27
1.0
 37
0.0
 76
     0
330
1F
331
29
  0
LAYOUT
  5
1E
102
{ACAD_REACTORS
330
1A
102
}
330
1A
100
AcDbPlotSettings
  1

  2
none_device
  4
ISO_A4_(210.00_x_297.00_MM)
  6

 40
7.5
 41
20.0
 42
7.5
 43
20.0
 44
210.0
 45
297.0
 46
0.0
 47
0.0
 48
0.0
 49
0.0
140
0.0
141
0.0
142
1.0
143
1.8482490272
 70
   688
 72
     1
 73
     1
 74
     1
  7

 75
     0
147
0.5410526316
148
237.5
149
300.0
100
AcDbLayout
  1
Notes Area
 70
     1
 71
     1
 10
-274.4649805447
 20
-313.8618677043
 11
274.4649805447
 21
74.2704280156
 12
0.0
 22
0.0
 32
0.0
 14
-237.5
 24
-300.0
 34
0.0
 15
237.5
 25
0.0
 35
0.0
146
0.0
 13
0.0
 23
0.0
 33
0.0
 16
1.0
 26
0.0
 36
0.0
 17
0.0
 27
1.0
 37
0.0
 76
     0
330
1B
331
1B7
  0
MLINESTYLE
  5
18
102
{ACAD_REACTORS
330
17
102
}
330
17
100
AcDbMlineStyle
  2
Standard
 70
     0
  3

 62
   256
 51
90.0
 52
90.0
 71
     2
 49
0.5
 62
   256
  6
BYLAYER
 49
-0.5
 62
   256
  6
BYLAYER
  0
ACDBPLACEHOLDER
  5
F
102
{ACAD_REACTORS
330
E
102
}
330
E
  0
SCALE
  5
48
102
{ACAD_REACTORS
330
47
102
}
330
47
100
AcDbScale
 70
     0
300
1:1
140
1.0
141
1.0
290
     1
  0
SCALE
  5
49
102
{ACAD_REACTORS
330
47
102
}
330
47
100
AcDbScale
 70
     0
300
1:2
140
1.0
141
2.0
290
     0
  0
SCALE
  5
4A
102
{ACAD_REACTORS
330
47
102
}
330
47
100
AcDbScale
 70
     0
300
1:4
140
1.0
141
4.0
290
     0
  0
SCALE
  5
4B
102
{ACAD_REACTORS
330
47
102
}
330
47
100
AcDbScale
 70
     0
300
1:5
140
1.0
141
5.0
290
     0
  0
SCALE
  5
4C
102
{ACAD_REACTORS
330
47
102
}
330
47
100
AcDbScale
 70
     0
300
1:8
140
1.0
141
8.0
290
     0
  0
SCALE
  5
4D
102
{ACAD_REACTORS
330
47
102
}
330
47
100
AcDbScale
 70
     0
300
1:10
140
1.0
141
10.0
290
     0
  0
SCALE
  5
4E
102
{ACAD_REACTORS
330
47
102
}
330
47
100
AcDbScale
 70
     0
300
1:16
140
1.0
141
16.0
290
     0
  0
SCALE
  5
4F
102
{ACAD_REACTORS
330
47
102
}
330
47
100
AcDbScale
 70
     0
300
1:20
140
1.0
141
20.0
290
     0
  0
SCALE
  5
50
102
{ACAD_REACTORS
330
47
102
}
330
47
100
AcDbScale
 70
     0
300
1:30
140
1.0
141
30.0
290
     0
  0
SCALE
  5
51
102
{ACAD_REACTORS
330
47
102
}
330
47
100
AcDbScale
 70
     0
300
1:40
140
1.0
141
40.0
290
     0
  0
SCALE
  5
52
102
{ACAD_REACTORS
330
47
102
}
330
47
100
AcDbScale
 70
     0
300
1:50
140
1.0
141
50.0
290
     0
  0
SCALE
  5
53
102
{ACAD_REACTORS
330
47
102
}
330
47
100
AcDbScale
 70
     0
300
1:100
140
1.0
141
100.0
290
     0
  0
SCALE
  5
54
102
{ACAD_REACTORS
330
47
102
}
330
47
100
AcDbScale
 70
     0
300
2:1
140
2.0
141
1.0
290
     0
  0
SCALE
  5
55
102
{ACAD_REACTORS
330
47
102
}
330
47
100
AcDbScale
 70
     0
300
4:1
140
4.0
141
1.0
290
     0
  0
SCALE
  5
56
102
{ACAD_REACTORS
330
47
102
}
330
47
100
AcDbScale
 70
     0
300
8:1
140
8.0
141
1.0
290
     0
  0
SCALE
  5
57
102
{ACAD_REACTORS
330
47
102
}
330
47
100
AcDbScale
 70
     0
300
10:1
140
10.0
141
1.0
290
     0
  0
SCALE
  5
58
102
{ACAD_REACTORS
330
47
102
}
330
47
100
AcDbScale
 70
     0
300
100:1
140
100.0
141
1.0
290
     0
  0
SCALE
  5
59
102
{ACAD_REACTORS
330
47
102
}
330
47
100
AcDbScale
 70
     0
300
1/128" = 1'-0"
140
0.0078125
141
12.0
290
     0
  0
SCALE
  5
5A
102
{ACAD_REACTORS
330
47
102
}
330
47
100
AcDbScale
 70
     0
300
1/64" = 1'-0"
140
0.015625
141
12.0
290
     0
  0
SCALE
  5
5B
102
{ACAD_REACTORS
330
47
102
}
330
47
100
AcDbScale
 70
     0
300
1/32" = 1'-0"
140
0.03125
141
12.0
290
     0
  0
SCALE
  5
5C
102
{ACAD_REACTORS
330
47
102
}
330
47
100
AcDbScale
 70
     0
300
1/16" = 1'-0"
140
0.0625
141
12.0
290
     0
  0
SCALE
  5
5D
102
{ACAD_REACTORS
330
47
102
}
330
47
100
AcDbScale
 70
     0
300
3/32" = 1'-0"
140
0.09375
141
12.0
290
     0
  0
SCALE
  5
5E
102
{ACAD_REACTORS
330
47
102
}
330
47
100
AcDbScale
 70
     0
300
1/8" = 1'-0"
140
0.125
141
12.0
290
     0
  0
SCALE
  5
5F
102
{ACAD_REACTORS
330
47
102
}
330
47
100
AcDbScale
 70
     0
300
3/16" = 1'-0"
140
0.1875
141
12.0
290
     0
  0
SCALE
  5
60
102
{ACAD_REACTORS
330
47
102
}
330
47
100
AcDbScale
 70
     0
300
1/4" = 1'-0"
140
0.25
141
12.0
290
     0
  0
SCALE
  5
61
102
{ACAD_REACTORS
330
47
102
}
330
47
100
AcDbScale
 70
     0
300
3/8" = 1'-0"
140
0.375
141
12.0
290
     0
  0
SCALE
  5
62
102
{ACAD_REACTORS
330
47
102
}
330
47
100
AcDbScale
 70
     0
300
1/2" = 1'-0"
140
0.5
141
12.0
290
     0
  0
SCALE
  5
63
102
{ACAD_REACTORS
330
47
102
}
330
47
100
AcDbScale
 70
     0
300
3/4" = 1'-0"
140
0.75
141
12.0
290
     0
  0
SCALE
  5
64
102
{ACAD_REACTORS
330
47
102
}
330
47
100
AcDbScale
 70
     0
300
1" = 1'-0"
140
1.0
141
12.0
290
     0
  0
SCALE
  5
65
102
{ACAD_REACTORS
330
47
102
}
330
47
100
AcDbScale
 70
     0
300
1-1/2" = 1'-0"
140
1.5
141
12.0
290
     0
  0
SCALE
  5
66
102
{ACAD_REACTORS
330
47
102
}
330
47
100
AcDbScale
 70
     0
300
3" = 1'-0"
140
3.0
141
12.0
290
     0
  0
SCALE
  5
67
102
{ACAD_REACTORS
330
47
102
}
330
47
100
AcDbScale
 70
     0
300
6" = 1'-0"
140
6.0
141
12.0
290
     0
  0
SCALE
  5
68
102
{ACAD_REACTORS
330
47
102
}
330
47
100
AcDbScale
 70
     0
300
1'-0" = 1'-0"
140
12.0
141
12.0
290
     0
  0
ENDSEC
  0
EOF
