  0
SECTION
  2
HEADER
  9
$ACADVER
  1
AC1015
  9
$ACADMAINTVER
 70
     6
  9
$DWGCODEPAGE
  3
ANSI_932
  9
$INSBASE
 10
0.0
 20
0.0
 30
0.0
  9
$EXTMIN
 10
-273.5593957066
 20
-99.4643459195
 30
0.0
  9
$EXTMAX
 10
331.8566130435
 20
348.6707965917
 30
0.0
  9
$LIMMIN
 10
0.0
 20
0.0
  9
$LIMMAX
 10
420.0
 20
297.0
  9
$ORTHOMODE
 70
     0
  9
$REGENMODE
 70
     1
  9
$FILLMODE
 70
     1
  9
$QTEXTMODE
 70
     0
  9
$MIRRTEXT
 70
     1
  9
$LTSCALE
 40
1.0
  9
$ATTMODE
 70
     1
  9
$TEXTSIZE
 40
3.5
  9
$TRACEWID
 40
1.0
  9
$TEXTSTYLE
  7
Standard
  9
$CLAYER
  8
0
  9
$CELTYPE
  6
ByLayer
  9
$CECOLOR
 62
   256
  9
$CELTSCALE
 40
1.0
  9
$DISPSILH
 70
     0
  9
$DIMSCALE
 40
1.0
  9
$DIMASZ
 40
3.302
  9
$DIMEXO
 40
1.0
  9
$DIMDLI
 40
3.75
  9
$DIMRND
 40
0.0
  9
$DIMDLE
 40
0.0
  9
$DIMEXE
 40
1.0
  9
$DIMTP
 40
0.0
  9
$DIMTM
 40
0.0
  9
$DIMTXT
 40
3.5
  9
$DIMCEN
 40
2.5
  9
$DIMTSZ
 40
0.0
  9
$DIMTOL
 70
     0
  9
$DIMLIM
 70
     0
  9
$DIMTIH
 70
     1
  9
$DIMTOH
 70
     1
  9
$DIMSE1
 70
     0
  9
$DIMSE2
 70
     0
  9
$DIMTAD
 70
     1
  9
$DIMZIN
 70
     0
  9
$DIMBLK
  1

  9
$DIMASO
 70
     1
  9
$DIMSHO
 70
     1
  9
$DIMPOST
  1

  9
$DIMAPOST
  1

  9
$DIMALT
 70
     0
  9
$DIMALTD
 70
     3
  9
$DIMALTF
 40
0.0393700787
  9
$DIMLFAC
 40
1.0
  9
$DIMTOFL
 70
     1
  9
$DIMTVP
 40
0.0
  9
$DIMTIX
 70
     0
  9
$DIMSOXD
 70
     0
  9
$DIMSAH
 70
     0
  9
$DIMBLK1
  1

  9
$DIMBLK2
  1

  9
$DIMSTYLE
  2
ISO-25
  9
$DIMCLRD
 70
     0
  9
$DIMCLRE
 70
     0
  9
$DIMCLRT
 70
     0
  9
$DIMTFAC
 40
1.0
  9
$DIMGAP
 40
1.524
  9
$DIMJUST
 70
     0
  9
$DIMSD1
 70
     0
  9
$DIMSD2
 70
     0
  9
$DIMTOLJ
 70
     0
  9
$DIMTZIN
 70
     0
  9
$DIMALTZ
 70
     0
  9
$DIMALTTZ
 70
     0
  9
$DIMUPT
 70
     0
  9
$DIMDEC
 70
     2
  9
$DIMTDEC
 70
     2
  9
$DIMALTU
 70
     2
  9
$DIMALTTD
 70
     3
  9
$DIMTXSTY
  7
Standard
  9
$DIMAUNIT
 70
     0
  9
$DIMADEC
 70
     2
  9
$DIMALTRND
 40
0.0
  9
$DIMAZIN
 70
     0
  9
$DIMDSEP
 70
    44
  9
$DIMATFIT
 70
     3
  9
$DIMFRAC
 70
     0
  9
$DIMLDRBLK
  1

  9
$DIMLUNIT
 70
     2
  9
$DIMLWD
 70
    -2
  9
$DIMLWE
 70
    -2
  9
$DIMTMOVE
 70
     0
  9
$LUNITS
 70
     2
  9
$LUPREC
 70
     2
  9
$SKETCHINC
 40
1.0
  9
$FILLETRAD
 40
10.0
  9
$AUNITS
 70
     0
  9
$AUPREC
 70
     2
  9
$MENU
  1
.
  9
$ELEVATION
 40
0.0
  9
$PELEVATION
 40
0.0
  9
$THICKNESS
 40
0.0
  9
$LIMCHECK
 70
     0
  9
$CHAMFERA
 40
0.0
  9
$CHAMFERB
 40
0.0
  9
$CHAMFERC
 40
0.0
  9
$CHAMFERD
 40
0.0
  9
$SKPOLY
 70
     0
  9
$TDCREATE
 40
2461001.704046354
  9
$TDUCREATE
 40
2461001.412379688
  9
$TDUPDATE
 40
2461001.704082697
  9
$TDUUPDATE
 40
2461001.41241603
  9
$TDINDWG
 40
0.0000000116
  9
$TDUSRTIMER
 40
0.0000000116
  9
$USRTIMER
 70
     1
  9
$ANGBASE
 50
0.0
  9
$ANGDIR
 70
     0
  9
$PDMODE
 70
     0
  9
$PDSIZE
 40
-1.0
  9
$PLINEWID
 40
0.0
  9
$SPLFRAME
 70
     0
  9
$SPLINETYPE
 70
     6
  9
$SPLINESEGS
 70
     8
  9
$HANDSEED
  5
2A5
  9
$SURFTAB1
 70
     6
  9
$SURFTAB2
 70
     6
  9
$SURFTYPE
 70
     6
  9
$SURFU
 70
     6
  9
$SURFV
 70
     6
  9
$UCSBASE
  2

  9
$UCSNAME
  2

  9
$UCSORG
 10
0.0
 20
0.0
 30
0.0
  9
$UCSXDIR
 10
1.0
 20
0.0
 30
0.0
  9
$UCSYDIR
 10
0.0
 20
1.0
 30
0.0
  9
$UCSORTHOREF
  2

  9
$UCSORTHOVIEW
 70
     0
  9
$UCSORGTOP
 10
0.0
 20
0.0
 30
0.0
  9
$UCSORGBOTTOM
 10
0.0
 20
0.0
 30
0.0
  9
$UCSORGLEFT
 10
0.0
 20
0.0
 30
0.0
  9
$UCSORGRIGHT
 10
0.0
 20
0.0
 30
0.0
  9
$UCSORGFRONT
 10
0.0
 20
0.0
 30
0.0
  9
$UCSORGBACK
 10
0.0
 20
0.0
 30
0.0
  9
$PUCSBASE
  2

  9
$PUCSNAME
  2

  9
$PUCSORG
 10
0.0
 20
0.0
 30
0.0
  9
$PUCSXDIR
 10
1.0
 20
0.0
 30
0.0
  9
$PUCSYDIR
 10
0.0
 20
1.0
 30
0.0
  9
$PUCSORTHOREF
  2

  9
$PUCSORTHOVIEW
 70
     0
  9
$PUCSORGTOP
 10
0.0
 20
0.0
 30
0.0
  9
$PUCSORGBOTTOM
 10
0.0
 20
0.0
 30
0.0
  9
$PUCSORGLEFT
 10
0.0
 20
0.0
 30
0.0
  9
$PUCSORGRIGHT
 10
0.0
 20
0.0
 30
0.0
  9
$PUCSORGFRONT
 10
0.0
 20
0.0
 30
0.0
  9
$PUCSORGBACK
 10
0.0
 20
0.0
 30
0.0
  9
$USERI1
 70
     0
  9
$USERI2
 70
     0
  9
$USERI3
 70
     0
  9
$USERI4
 70
     0
  9
$USERI5
 70
     0
  9
$USERR1
 40
0.0
  9
$USERR2
 40
0.0
  9
$USERR3
 40
0.0
  9
$USERR4
 40
0.0
  9
$USERR5
 40
0.0
  9
$WORLDVIEW
 70
     1
  9
$SHADEDGE
 70
     3
  9
$SHADEDIF
 70
    70
  9
$TILEMODE
 70
     1
  9
$MAXACTVP
 70
    64
  9
$PINSBASE
 10
0.0
 20
0.0
 30
0.0
  9
$PLIMCHECK
 70
     0
  9
$PEXTMIN
 10
-245.0
 20
-305.0
 30
0.0
  9
$PEXTMAX
 10
245.0
 20
0.0
 30
0.0
  9
$PLIMMIN
 10
-283.1322957198
 20
-319.2996108949
  9
$PLIMMAX
 10
283.1322957198
 20
81.0894941634
  9
$UNITMODE
 70
     0
  9
$VISRETAIN
 70
     1
  9
$PLINEGEN
 70
     0
  9
$PSLTSCALE
 70
     1
  9
$TREEDEPTH
 70
  3020
  9
$CMLSTYLE
  2
Standard
  9
$CMLJUST
 70
     0
  9
$CMLSCALE
 40
20.0
  9
$PROXYGRAPHICS
 70
     1
  9
$MEASUREMENT
 70
     1
  9
$CELWEIGHT
370
    -1
  9
$ENDCAPS
280
     0
  9
$JOINSTYLE
280
     0
  9
$LWDISPLAY
290
     1
  9
$INSUNITS
 70
     4
  9
$HYPERLINKBASE
  1

  9
$STYLESHEET
  1

  9
$XEDIT
290
     1
  9
$CEPSNTYPE
380
     0
  9
$PSTYLEMODE
290
     1
  9
$FINGERPRINTGUID
  2
{6CB5726E-5433-40DB-B2BA-37821595ACAE}
  9
$VERSIONGUID
  2
{FAEB1C32-E019-11D5-929B-00C0DF256EC4}
  9
$EXTNAMES
290
     1
  9
$PSVPSCALE
 40
0.0
  9
$OLESTARTUP
290
     0
  0
ENDSEC
  0
SECTION
  2
CLASSES
  0
CLASS
  1
ACDBDICTIONARYWDFLT
  2
AcDbDictionaryWithDefault
  3
ObjectDBX Classes
 90
        0
280
     0
281
     0
  0
CLASS
  1
VISUALSTYLE
  2
AcDbVisualStyle
  3
ObjectDBX Classes
 90
     4095
280
     0
281
     0
  0
CLASS
  1
MATERIAL
  2
AcDbMaterial
  3
ObjectDBX Classes
 90
     1153
280
     0
281
     0
  0
CLASS
  1
SCALE
  2
AcDbScale
  3
ObjectDBX Classes
 90
     1153
280
     0
281
     0
  0
CLASS
  1
TABLESTYLE
  2
AcDbTableStyle
  3
ObjectDBX Classes
 90
     4095
280
     0
281
     0
  0
CLASS
  1
MLEADERSTYLE
  2
AcDbMLeaderStyle
  3
ACDB_MLEADERSTYLE_CLASS
 90
     4095
280
     0
281
     0
  0
CLASS
  1
SUN
  2
AcDbSun
  3
SCENEOE
 90
     1153
280
     0
281
     0
  0
CLASS
  1
ACDBPLACEHOLDER
  2
AcDbPlaceHolder
  3
ObjectDBX Classes
 90
        0
280
     0
281
     0
  0
CLASS
  1
LAYOUT
  2
AcDbLayout
  3
ObjectDBX Classes
 90
        0
280
     0
281
     0
  0
ENDSEC
  0
SECTION
  2
TABLES
  0
TABLE
  2
VPORT
  5
8
330
0
100
AcDbSymbolTable
 70
     1
  0
VPORT
  5
29
330
8
100
AcDbSymbolTableRecord
100
AcDbViewportTableRecord
  2
*Active
 70
     0
 10
0.0
 20
0.0
 11
1.0
 21
1.0
 12
29.1486086684
 22
124.6032253361
 13
0.0
 23
0.0
 14
10.0
 24
10.0
 15
10.0
 25
10.0
 16
0.0
 26
0.0
 36
1.0
 17
0.0
 27
0.0
 37
0.0
 40
457.0978453615
 41
1.3509674902
 42
50.0
 43
0.0
 44
0.0
 50
0.0
 51
0.0
 71
     0
 72
   100
 73
     1
 74
     3
 75
     0
 76
     0
 77
     0
 78
     0
281
     0
 65
     1
110
0.0
120
0.0
130
0.0
111
1.0
121
0.0
131
0.0
112
0.0
122
1.0
132
0.0
 79
     0
146
0.0
  0
ENDTAB
  0
TABLE
  2
LTYPE
  5
5
330
0
100
AcDbSymbolTable
 70
     6
  0
LTYPE
  5
14
330
5
100
AcDbSymbolTableRecord
100
AcDbLinetypeTableRecord
  2
ByBlock
 70
     0
  3

 72
    65
 73
     0
 40
0.0
  0
LTYPE
  5
15
330
5
100
AcDbSymbolTableRecord
100
AcDbLinetypeTableRecord
  2
ByLayer
 70
     0
  3

 72
    65
 73
     0
 40
0.0
  0
LTYPE
  5
16
330
5
100
AcDbSymbolTableRecord
100
AcDbLinetypeTableRecord
  2
Continuous
 70
     0
  3
Solid line
 72
    65
 73
     0
 40
0.0
  0
LTYPE
  5
6E
330
5
100
AcDbSymbolTableRecord
100
AcDbLinetypeTableRecord
  2
HIDDEN
 70
     0
  3
Hidden __ __ __ __ __ __ __ __ __ __ __ __ __ __
 72
    65
 73
     2
 40
1.905
 49
1.27
 74
     0
 49
-0.635
 74
     0
  0
LTYPE
  5
6F
330
5
100
AcDbSymbolTableRecord
100
AcDbLinetypeTableRecord
  2
PHANTOM
 70
     0
  3
Phantom ______  __  __  ______  __  __  ______
 72
    65
 73
     6
 40
12.7
 49
6.35
 74
     0
 49
-1.27
 74
     0
 49
1.27
 74
     0
 49
-1.27
 74
     0
 49
1.27
 74
     0
 49
-1.27
 74
     0
  0
LTYPE
  5
70
330
5
100
AcDbSymbolTableRecord
100
AcDbLinetypeTableRecord
  2
CENTER
 70
     0
  3
Center ____ _ ____ _ ____ _ ____ _ ____ _ ____
 72
    65
 73
     4
 40
10.16
 49
6.35
 74
     0
 49
-1.27
 74
     0
 49
1.27
 74
     0
 49
-1.27
 74
     0
  0
LTYPE
  5
71
330
5
100
AcDbSymbolTableRecord
100
AcDbLinetypeTableRecord
  2
CENTERX2
 70
     0
  3
Center (2x) ________  __  ________  __  _____
 72
    65
 73
     4
 40
20.32
 49
12.7
 74
     0
 49
-2.54
 74
     0
 49
2.54
 74
     0
 49
-2.54
 74
     0
  0
LTYPE
  5
72
330
5
100
AcDbSymbolTableRecord
100
AcDbLinetypeTableRecord
  2
DOT2
 70
     0
  3
Dot (.5x) ........................................
 72
    65
 73
     2
 40
0.635
 49
0.0
 74
     0
 49
-0.635
 74
     0
  0
ENDTAB
  0
TABLE
  2
LAYER
  5
2
330
0
100
AcDbSymbolTable
 70
     1
  0
LAYER
  5
10
330
2
100
AcDbSymbolTableRecord
100
AcDbLayerTableRecord
  2
0
 70
     0
 62
     7
  6
Continuous
370
    -3
390
F
  0
ENDTAB
  0
TABLE
  2
STYLE
  5
3
330
0
100
AcDbSymbolTable
 70
     1
  0
STYLE
  5
11
330
3
100
AcDbSymbolTableRecord
100
AcDbTextStyleTableRecord
  2
Standard
 70
     0
 40
0.0
 41
1.0
 50
0.0
 71
     0
 42
3.5
  3
txt
  4

  0
ENDTAB
  0
TABLE
  2
VIEW
  5
6
330
0
100
AcDbSymbolTable
 70
     0
  0
ENDTAB
  0
TABLE
  2
UCS
  5
7
330
0
100
AcDbSymbolTable
 70
     0
  0
ENDTAB
  0
TABLE
  2
APPID
  5
9
330
0
100
AcDbSymbolTable
 70
     1
  0
APPID
  5
12
330
9
100
AcDbSymbolTableRecord
100
AcDbRegAppTableRecord
  2
ACAD
 70
     0
  0
ENDTAB
  0
TABLE
  2
DIMSTYLE
  5
A
330
0
100
AcDbSymbolTable
 70
     1
100
AcDbDimStyleTable
  0
DIMSTYLE
105
27
330
A
100
AcDbSymbolTableRecord
100
AcDbDimStyleTableRecord
  2
ISO-25
 70
     0
 41
2.5
 42
0.625
 43
3.75
 44
1.25
 73
     0
 74
     0
 77
     1
 78
     8
140
2.5
141
2.5
143
0.0393700787
147
0.625
171
     3
172
     1
178
     0
271
     2
272
     2
274
     3
278
    44
283
     0
284
     8
340
11
  0
ENDTAB
  0
TABLE
  2
BLOCK_RECORD
  5
1
330
0
100
AcDbSymbolTable
 70
     9
  0
BLOCK_RECORD
  5
1F
330
1
100
AcDbSymbolTableRecord
100
AcDbBlockTableRecord
  2
*Model_Space
340
22
  0
BLOCK_RECORD
  5
1B
330
1
100
AcDbSymbolTableRecord
100
AcDbBlockTableRecord
  2
*Paper_Space
340
1E
  0
BLOCK_RECORD
  5
23
330
1
100
AcDbSymbolTableRecord
100
AcDbBlockTableRecord
  2
*Paper_Space0
340
26
  0
BLOCK_RECORD
  5
F4
330
1
100
AcDbSymbolTableRecord
100
AcDbBlockTableRecord
  2
*Paper_Space1
340
F5
  0
BLOCK_RECORD
  5
114
330
1
100
AcDbSymbolTableRecord
100
AcDbBlockTableRecord
  2
*Paper_Space2
340
115
  0
BLOCK_RECORD
  5
135
330
1
100
AcDbSymbolTableRecord
100
AcDbBlockTableRecord
  2
*Paper_Space3
340
136
  0
BLOCK_RECORD
  5
147
330
1
100
AcDbSymbolTableRecord
100
AcDbBlockTableRecord
  2
*Paper_Space4
340
148
  0
BLOCK_RECORD
  5
159
330
1
100
AcDbSymbolTableRecord
100
AcDbBlockTableRecord
  2
*Paper_Space5
340
15A
  0
BLOCK_RECORD
  5
179
330
1
100
AcDbSymbolTableRecord
100
AcDbBlockTableRecord
  2
*Paper_Space6
340
17A
  0
BLOCK_RECORD
  5
1DB
330
1
100
AcDbSymbolTableRecord
100
AcDbBlockTableRecord
  2
*Paper_Space7
340
1DC
  0
BLOCK_RECORD
  5
235
330
1
100
AcDbSymbolTableRecord
100
AcDbBlockTableRecord
  2
*Paper_Space8
340
236
  0
ENDTAB
  0
ENDSEC
  0
SECTION
  2
BLOCKS
  0
BLOCK
  5
20
330
1F
100
AcDbEntity
  8
0
100
AcDbBlockBegin
  2
*Model_Space
 70
     0
 10
0.0
 20
0.0
 30
0.0
  3
*Model_Space
  1

  0
ENDBLK
  5
21
330
1F
100
AcDbEntity
  8
0
100
AcDbBlockEnd
  0
BLOCK
  5
1C
330
1B
100
AcDbEntity
 67
     1
  8
0
100
AcDbBlockBegin
  2
*Paper_Space
 70
     0
 10
0.0
 20
0.0
 30
0.0
  3
*Paper_Space
  1

  0
ENDBLK
  5
1D
330
1B
100
AcDbEntity
 67
     1
  8
0
100
AcDbBlockEnd
  0
BLOCK
  5
24
330
23
100
AcDbEntity
  8
0
100
AcDbBlockBegin
  2
*Paper_Space0
 70
     0
 10
0.0
 20
0.0
 30
0.0
  3
*Paper_Space0
  1

  0
LINE
  5
DE
330
23
100
AcDbEntity
  8
0
  6
Continuous
 62
     7
370
    15
100
AcDbLine
 10
90.4450715745
 20
-160.0
 30
0.0
 11
90.4450715745
 21
160.0
 31
0.0
  0
LINE
  5
DF
330
23
100
AcDbEntity
  8
0
  6
Continuous
 62
     7
370
    15
100
AcDbLine
 10
245.0
 20
-160.0
 30
0.0
 11
245.0
 21
160.0
 31
0.0
  0
LINE
  5
E0
330
23
100
AcDbEntity
  8
0
  6
Continuous
 62
     7
370
    15
100
AcDbLine
 10
240.0
 20
-155.0
 30
0.0
 11
240.0
 21
-2.5
 31
0.0
  0
LINE
  5
E1
330
23
100
AcDbEntity
  8
0
  6
Continuous
 62
     7
370
    15
100
AcDbLine
 10
95.4450715745
 20
-155.0
 30
0.0
 11
95.4450715745
 21
-2.5
 31
0.0
  0
LINE
  5
E2
330
23
100
AcDbEntity
  8
0
  6
Continuous
 62
     7
370
    15
100
AcDbLine
 10
240.0
 20
2.5
 30
0.0
 11
95.4450715745
 21
2.5
 31
0.0
  0
LINE
  5
E3
330
23
100
AcDbEntity
  8
0
  6
Continuous
 62
     7
370
    15
100
AcDbLine
 10
240.0
 20
2.5
 30
0.0
 11
240.0
 21
155.0
 31
0.0
  0
LINE
  5
E4
330
23
100
AcDbEntity
  8
0
  6
Continuous
 62
     7
370
    15
100
AcDbLine
 10
95.4450715745
 20
2.5
 30
0.0
 11
95.4450715745
 21
155.0
 31
0.0
  0
LINE
  5
E5
330
23
100
AcDbEntity
  8
0
  6
Continuous
 62
     7
370
    15
100
AcDbLine
 10
95.4450715745
 20
-2.5
 30
0.0
 11
240.0
 21
-2.5
 31
0.0
  0
LINE
  5
E6
330
23
100
AcDbEntity
  8
0
  6
Continuous
 62
     7
370
    15
100
AcDbLine
 10
95.4450715745
 20
-155.0
 30
0.0
 11
240.0
 21
-155.0
 31
0.0
  0
LINE
  5
E7
330
23
100
AcDbEntity
  8
0
  6
Continuous
 62
     7
370
    15
100
AcDbLine
 10
240.0
 20
155.0
 30
0.0
 11
95.4450715745
 21
155.0
 31
0.0
  0
LINE
  5
E8
330
23
100
AcDbEntity
  8
0
  6
Continuous
 62
     7
370
    15
100
AcDbLine
 10
-240.0
 20
155.0
 30
0.0
 11
-240.0
 21
2.5
 31
0.0
  0
LINE
  5
E9
330
23
100
AcDbEntity
  8
0
  6
Continuous
 62
     7
370
    15
100
AcDbLine
 10
-88.5549284255
 20
155.0
 30
0.0
 11
-88.5549284255
 21
2.5
 31
0.0
  0
LINE
  5
EA
330
23
100
AcDbEntity
  8
0
  6
Continuous
 62
     7
370
    15
100
AcDbLine
 10
-240.0
 20
-2.5
 30
0.0
 11
-240.0
 21
-155.0
 31
0.0
  0
LINE
  5
EB
330
23
100
AcDbEntity
  8
0
  6
Continuous
 62
     7
370
    15
100
AcDbLine
 10
-88.5549284255
 20
-2.5
 30
0.0
 11
-88.5549284255
 21
-155.0
 31
0.0
  0
LINE
  5
EC
330
23
100
AcDbEntity
  8
0
  6
Continuous
 62
     7
370
    15
100
AcDbLine
 10
-245.0
 20
160.0
 30
0.0
 11
-245.0
 21
-160.0
 31
0.0
  0
LINE
  5
ED
330
23
100
AcDbEntity
  8
0
  6
Continuous
 62
     7
370
    15
100
AcDbLine
 10
-83.5549284255
 20
160.0
 30
0.0
 11
-83.5549284255
 21
-160.0
 31
0.0
  0
LINE
  5
EE
330
23
100
AcDbEntity
  8
0
  6
Continuous
 62
     7
370
    15
100
AcDbLine
 10
-245.0
 20
-160.0
 30
0.0
 11
245.0
 21
-160.0
 31
0.0
  0
LINE
  5
EF
330
23
100
AcDbEntity
  8
0
  6
Continuous
 62
     7
370
    15
100
AcDbLine
 10
-88.5549284255
 20
155.0
 30
0.0
 11
-240.0
 21
155.0
 31
0.0
  0
LINE
  5
F0
330
23
100
AcDbEntity
  8
0
  6
Continuous
 62
     7
370
    15
100
AcDbLine
 10
245.0
 20
160.0
 30
0.0
 11
-245.0
 21
160.0
 31
0.0
  0
LINE
  5
F1
330
23
100
AcDbEntity
  8
0
  6
Continuous
 62
     7
370
    15
100
AcDbLine
 10
-240.0
 20
-2.5
 30
0.0
 11
-88.5549284255
 21
-2.5
 31
0.0
  0
LINE
  5
F2
330
23
100
AcDbEntity
  8
0
  6
Continuous
 62
     7
370
    15
100
AcDbLine
 10
-240.0
 20
-155.0
 30
0.0
 11
-88.5549284255
 21
-155.0
 31
0.0
  0
LINE
  5
F3
330
23
100
AcDbEntity
  8
0
  6
Continuous
 62
     7
370
    15
100
AcDbLine
 10
-88.5549284255
 20
2.5
 30
0.0
 11
-240.0
 21
2.5
 31
0.0
  0
VIEWPORT
  5
293
330
23
100
AcDbEntity
  8
0
100
AcDbViewport
 10
0.0
 20
0.0
 30
0.0
 40
205.6
 41
156.0
 68
     1
 69
     1
 12
29.1486086684
 22
124.6032253361
 13
0.0
 23
0.0
 14
10.0
 24
10.0
 15
10.0
 25
10.0
 16
0.0
 26
0.0
 36
1.0
 17
0.0
 27
0.0
 37
0.0
 42
50.0
 43
0.0
 44
0.0
 45
468.5495880949
 50
0.0
 51
0.0
 72
   100
 90
   557152
  1

281
     0
 71
     1
 74
     0
110
0.0
120
0.0
130
0.0
111
1.0
121
0.0
131
0.0
112
0.0
122
1.0
132
0.0
 79
     0
146
0.0
  0
ENDBLK
  5
25
330
23
100
AcDbEntity
  8
0
100
AcDbBlockEnd
  0
BLOCK
  5
F6
330
F4
100
AcDbEntity
  8
0
100
AcDbBlockBegin
  2
*Paper_Space1
 70
     0
 10
0.0
 20
0.0
 30
0.0
  3
*Paper_Space1
  1

  0
LINE
  5
106
330
F4
100
AcDbEntity
  8
0
  6
Continuous
 62
     7
370
    15
100
AcDbLine
 10
-55.0
 20
-265.0
 30
0.0
 11
-55.0
 21
-305.0
 31
0.0
  0
LINE
  5
107
330
F4
100
AcDbEntity
  8
0
  6
Continuous
 62
     7
370
    15
100
AcDbLine
 10
55.0
 20
-305.0
 30
0.0
 11
55.0
 21
-265.0
 31
0.0
  0
LINE
  5
108
330
F4
100
AcDbEntity
  8
0
  6
Continuous
 62
     7
370
    15
100
AcDbLine
 10
90.4450715745
 20
0.0
 30
0.0
 11
245.0
 21
0.0
 31
0.0
  0
LINE
  5
109
330
F4
100
AcDbEntity
  8
0
  6
Continuous
 62
     7
370
    15
100
AcDbLine
 10
-245.0
 20
-265.0
 30
0.0
 11
245.0
 21
-265.0
 31
0.0
  0
LINE
  5
10A
330
F4
100
AcDbEntity
  8
0
  6
Continuous
 62
     7
370
    15
100
AcDbLine
 10
-245.0
 20
-265.0
 30
0.0
 11
-245.0
 21
0.0
 31
0.0
  0
LINE
  5
10B
330
F4
100
AcDbEntity
  8
0
  6
Continuous
 62
     7
370
    15
100
AcDbLine
 10
-245.0
 20
0.0
 30
0.0
 11
-83.5549284255
 21
0.0
 31
0.0
  0
LINE
  5
10C
330
F4
100
AcDbEntity
  8
0
  6
Continuous
 62
     7
370
    15
100
AcDbLine
 10
-83.5549284255
 20
-102.0
 30
0.0
 11
90.4450715745
 21
-102.0
 31
0.0
  0
LINE
  5
10D
330
F4
100
AcDbEntity
  8
0
  6
Continuous
 62
     7
370
    15
100
AcDbLine
 10
90.4450715745
 20
0.0
 30
0.0
 11
90.4450715745
 21
-102.0
 31
0.0
  0
LINE
  5
10E
330
F4
100
AcDbEntity
  8
0
  6
Continuous
 62
     7
370
    15
100
AcDbLine
 10
-83.5549284255
 20
-107.0
 30
0.0
 11
0.0669351352
 21
-254.5007763965
 31
0.0
  0
LINE
  5
10F
330
F4
100
AcDbEntity
  8
0
  6
Continuous
 62
     7
370
    15
100
AcDbLine
 10
245.0
 20
-265.0
 30
0.0
 11
245.0
 21
0.0
 31
0.0
  0
LINE
  5
110
330
F4
100
AcDbEntity
  8
0
  6
Continuous
 62
     7
370
    15
100
AcDbLine
 10
0.0669351352
 20
-254.5007763965
 30
0.0
 11
90.4450715745
 21
-107.0
 31
0.0
  0
LINE
  5
111
330
F4
100
AcDbEntity
  8
0
  6
Continuous
 62
     7
370
    15
100
AcDbLine
 10
90.4450715745
 20
-107.0
 30
0.0
 11
-83.5549284255
 21
-107.0
 31
0.0
  0
LINE
  5
112
330
F4
100
AcDbEntity
  8
0
  6
Continuous
 62
     7
370
    15
100
AcDbLine
 10
-83.5549284255
 20
0.0
 30
0.0
 11
-83.5549284255
 21
-102.0
 31
0.0
  0
LINE
  5
113
330
F4
100
AcDbEntity
  8
0
  6
Continuous
 62
     7
370
    15
100
AcDbLine
 10
55.0
 20
-305.0
 30
0.0
 11
-55.0
 21
-305.0
 31
0.0
  0
VIEWPORT
  5
295
330
F4
100
AcDbEntity
  8
0
100
AcDbViewport
 10
0.0
 20
0.0
 30
0.0
 40
205.6
 41
156.0
 68
     1
 69
     1
 12
29.1486086684
 22
124.6032253361
 13
0.0
 23
0.0
 14
10.0
 24
10.0
 15
10.0
 25
10.0
 16
0.0
 26
0.0
 36
1.0
 17
0.0
 27
0.0
 37
0.0
 42
50.0
 43
0.0
 44
0.0
 45
468.5495880949
 50
0.0
 51
0.0
 72
   100
 90
   557152
  1

281
     0
 71
     1
 74
     0
110
0.0
120
0.0
130
0.0
111
1.0
121
0.0
131
0.0
112
0.0
122
1.0
132
0.0
 79
     0
146
0.0
  0
ENDBLK
  5
F7
330
F4
100
AcDbEntity
  8
0
100
AcDbBlockEnd
  0
BLOCK
  5
116
330
114
100
AcDbEntity
  8
0
100
AcDbBlockBegin
  2
*Paper_Space2
 70
     0
 10
0.0
 20
0.0
 30
0.0
  3
*Paper_Space2
  1

  0
LINE
  5
127
330
114
100
AcDbEntity
  8
0
  6
Continuous
 62
     7
370
    15
100
AcDbLine
 10
-55.0
 20
-265.0
 30
0.0
 11
-55.0
 21
-305.0
 31
0.0
  0
LINE
  5
128
330
114
100
AcDbEntity
  8
0
  6
Continuous
 62
     7
370
    15
100
AcDbLine
 10
55.0
 20
-305.0
 30
0.0
 11
55.0
 21
-265.0
 31
0.0
  0
LINE
  5
129
330
114
100
AcDbEntity
  8
0
  6
Continuous
 62
     7
370
    15
100
AcDbLine
 10
-245.0
 20
-265.0
 30
0.0
 11
245.0
 21
-265.0
 31
0.0
  0
LINE
  5
12A
330
114
100
AcDbEntity
  8
0
  6
Continuous
 62
     7
370
    15
100
AcDbLine
 10
-90.4450715745
 20
0.0
 30
0.0
 11
-90.4450715745
 21
-102.0
 31
0.0
  0
LINE
  5
12B
330
114
100
AcDbEntity
  8
0
  6
Continuous
 62
     7
370
    15
100
AcDbLine
 10
-0.0669351352
 20
-254.5007763965
 30
0.0
 11
83.5549284255
 21
-107.0
 31
0.0
  0
LINE
  5
12C
330
114
100
AcDbEntity
  8
0
  6
Continuous
 62
     7
370
    15
100
AcDbLine
 10
-245.0
 20
0.0
 30
0.0
 11
-90.4450715745
 21
0.0
 31
0.0
  0
LINE
  5
12D
330
114
100
AcDbEntity
  8
0
  6
Continuous
 62
     7
370
    15
100
AcDbLine
 10
83.5549284255
 20
0.0
 30
0.0
 11
245.0
 21
0.0
 31
0.0
  0
LINE
  5
12E
330
114
100
AcDbEntity
  8
0
  6
Continuous
 62
     7
370
    15
100
AcDbLine
 10
245.0
 20
-265.0
 30
0.0
 11
245.0
 21
0.0
 31
0.0
  0
LINE
  5
12F
330
114
100
AcDbEntity
  8
0
  6
Continuous
 62
     7
370
    15
100
AcDbLine
 10
-90.4450715745
 20
-102.0
 30
0.0
 11
83.5549284255
 21
-102.0
 31
0.0
  0
LINE
  5
130
330
114
100
AcDbEntity
  8
0
  6
Continuous
 62
     7
370
    15
100
AcDbLine
 10
-245.0
 20
-265.0
 30
0.0
 11
-245.0
 21
0.0
 31
0.0
  0
LINE
  5
131
330
114
100
AcDbEntity
  8
0
  6
Continuous
 62
     7
370
    15
100
AcDbLine
 10
-90.4450715745
 20
-107.0
 30
0.0
 11
-0.0669351352
 21
-254.5007763965
 31
0.0
  0
LINE
  5
132
330
114
100
AcDbEntity
  8
0
  6
Continuous
 62
     7
370
    15
100
AcDbLine
 10
-90.4450715745
 20
-107.0
 30
0.0
 11
83.5549284255
 21
-107.0
 31
0.0
  0
LINE
  5
133
330
114
100
AcDbEntity
  8
0
  6
Continuous
 62
     7
370
    15
100
AcDbLine
 10
83.5549284255
 20
-102.0
 30
0.0
 11
83.5549284255
 21
0.0
 31
0.0
  0
LINE
  5
134
330
114
100
AcDbEntity
  8
0
  6
Continuous
 62
     7
370
    15
100
AcDbLine
 10
55.0
 20
-305.0
 30
0.0
 11
-55.0
 21
-305.0
 31
0.0
  0
VIEWPORT
  5
297
330
114
100
AcDbEntity
  8
0
100
AcDbViewport
 10
0.0
 20
0.0
 30
0.0
 40
205.6
 41
156.0
 68
     1
 69
     1
 12
29.1486086684
 22
124.6032253361
 13
0.0
 23
0.0
 14
10.0
 24
10.0
 15
10.0
 25
10.0
 16
0.0
 26
0.0
 36
1.0
 17
0.0
 27
0.0
 37
0.0
 42
50.0
 43
0.0
 44
0.0
 45
468.5495880949
 50
0.0
 51
0.0
 72
   100
 90
   557152
  1

281
     0
 71
     1
 74
     0
110
0.0
120
0.0
130
0.0
111
1.0
121
0.0
131
0.0
112
0.0
122
1.0
132
0.0
 79
     0
146
0.0
  0
ENDBLK
  5
117
330
114
100
AcDbEntity
  8
0
100
AcDbBlockEnd
  0
BLOCK
  5
137
330
135
100
AcDbEntity
  8
0
100
AcDbBlockBegin
  2
*Paper_Space3
 70
     0
 10
0.0
 20
0.0
 30
0.0
  3
*Paper_Space3
  1

  0
LINE
  5
140
330
135
100
AcDbEntity
  8
0
  6
Continuous
 62
     7
370
    15
100
AcDbLine
 10
-55.0
 20
-265.0
 30
0.0
 11
-55.0
 21
-305.0
 31
0.0
  0
LINE
  5
141
330
135
100
AcDbEntity
  8
0
  6
Continuous
 62
     7
370
    15
100
AcDbLine
 10
55.0
 20
-305.0
 30
0.0
 11
55.0
 21
-265.0
 31
0.0
  0
LINE
  5
142
330
135
100
AcDbEntity
  8
0
  6
Continuous
 62
     7
370
    15
100
AcDbLine
 10
160.0
 20
-265.0
 30
0.0
 11
160.0
 21
0.0
 31
0.0
  0
LINE
  5
143
330
135
100
AcDbEntity
  8
0
  6
Continuous
 62
     7
370
    15
100
AcDbLine
 10
-160.0
 20
-265.0
 30
0.0
 11
160.0
 21
-265.0
 31
0.0
  0
LINE
  5
144
330
135
100
AcDbEntity
  8
0
  6
Continuous
 62
     7
370
    15
100
AcDbLine
 10
-160.0
 20
-265.0
 30
0.0
 11
-160.0
 21
0.0
 31
0.0
  0
LINE
  5
145
330
135
100
AcDbEntity
  8
0
  6
Continuous
 62
     7
370
    15
100
AcDbLine
 10
-160.0
 20
0.0
 30
0.0
 11
160.0
 21
0.0
 31
0.0
  0
LINE
  5
146
330
135
100
AcDbEntity
  8
0
  6
Continuous
 62
     7
370
    15
100
AcDbLine
 10
55.0
 20
-305.0
 30
0.0
 11
-55.0
 21
-305.0
 31
0.0
  0
VIEWPORT
  5
299
330
135
100
AcDbEntity
  8
0
100
AcDbViewport
 10
0.0
 20
0.0
 30
0.0
 40
205.6
 41
156.0
 68
     1
 69
     1
 12
29.1486086684
 22
124.6032253361
 13
0.0
 23
0.0
 14
10.0
 24
10.0
 15
10.0
 25
10.0
 16
0.0
 26
0.0
 36
1.0
 17
0.0
 27
0.0
 37
0.0
 42
50.0
 43
0.0
 44
0.0
 45
468.5495880949
 50
0.0
 51
0.0
 72
   100
 90
   557152
  1

281
     0
 71
     1
 74
     0
110
0.0
120
0.0
130
0.0
111
1.0
121
0.0
131
0.0
112
0.0
122
1.0
132
0.0
 79
     0
146
0.0
  0
ENDBLK
  5
138
330
135
100
AcDbEntity
  8
0
100
AcDbBlockEnd
  0
BLOCK
  5
149
330
147
100
AcDbEntity
  8
0
100
AcDbBlockBegin
  2
*Paper_Space4
 70
     0
 10
0.0
 20
0.0
 30
0.0
  3
*Paper_Space4
  1

  0
LINE
  5
152
330
147
100
AcDbEntity
  8
0
  6
Continuous
 62
     7
370
    15
100
AcDbLine
 10
-55.0
 20
-265.0
 30
0.0
 11
-55.0
 21
-305.0
 31
0.0
  0
LINE
  5
153
330
147
100
AcDbEntity
  8
0
  6
Continuous
 62
     7
370
    15
100
AcDbLine
 10
55.0
 20
-305.0
 30
0.0
 11
55.0
 21
-265.0
 31
0.0
  0
LINE
  5
154
330
147
100
AcDbEntity
  8
0
  6
Continuous
 62
     7
370
    15
100
AcDbLine
 10
160.0
 20
-265.0
 30
0.0
 11
160.0
 21
0.0
 31
0.0
  0
LINE
  5
155
330
147
100
AcDbEntity
  8
0
  6
Continuous
 62
     7
370
    15
100
AcDbLine
 10
-160.0
 20
-265.0
 30
0.0
 11
160.0
 21
-265.0
 31
0.0
  0
LINE
  5
156
330
147
100
AcDbEntity
  8
0
  6
Continuous
 62
     7
370
    15
100
AcDbLine
 10
-160.0
 20
0.0
 30
0.0
 11
160.0
 21
0.0
 31
0.0
  0
LINE
  5
157
330
147
100
AcDbEntity
  8
0
  6
Continuous
 62
     7
370
    15
100
AcDbLine
 10
-160.0
 20
-265.0
 30
0.0
 11
-160.0
 21
0.0
 31
0.0
  0
LINE
  5
158
330
147
100
AcDbEntity
  8
0
  6
Continuous
 62
     7
370
    15
100
AcDbLine
 10
55.0
 20
-305.0
 30
0.0
 11
-55.0
 21
-305.0
 31
0.0
  0
VIEWPORT
  5
29B
330
147
100
AcDbEntity
  8
0
100
AcDbViewport
 10
0.0
 20
0.0
 30
0.0
 40
205.6
 41
156.0
 68
     1
 69
     1
 12
29.1486086684
 22
124.6032253361
 13
0.0
 23
0.0
 14
10.0
 24
10.0
 15
10.0
 25
10.0
 16
0.0
 26
0.0
 36
1.0
 17
0.0
 27
0.0
 37
0.0
 42
50.0
 43
0.0
 44
0.0
 45
468.5495880949
 50
0.0
 51
0.0
 72
   100
 90
   557152
  1

281
     0
 71
     1
 74
     0
110
0.0
120
0.0
130
0.0
111
1.0
121
0.0
131
0.0
112
0.0
122
1.0
132
0.0
 79
     0
146
0.0
  0
ENDBLK
  5
14A
330
147
100
AcDbEntity
  8
0
100
AcDbBlockEnd
  0
BLOCK
  5
15B
330
159
100
AcDbEntity
  8
0
100
AcDbBlockBegin
  2
*Paper_Space5
 70
     0
 10
0.0
 20
0.0
 30
0.0
  3
*Paper_Space5
  1

  0
CIRCLE
  5
15D
330
159
100
AcDbEntity
  8
0
  6
Continuous
 62
     7
370
    15
100
AcDbCircle
 10
0.0
 20
0.0
 30
0.0
 40
52.49999999999998
  0
CIRCLE
  5
15E
330
159
100
AcDbEntity
  8
0
  6
Continuous
 62
     7
370
    15
100
AcDbCircle
 10
0.0
 20
0.0
 30
0.0
 40
55.00000000000001
  0
LINE
  5
16E
330
159
100
AcDbEntity
  8
0
  6
Continuous
 62
     7
370
    15
100
AcDbLine
 10
0.0
 20
-52.5
 30
0.0
 11
0.0
 21
52.5
 31
0.0
  0
LINE
  5
16F
330
159
100
AcDbEntity
  8
0
  6
Continuous
 62
     7
370
    15
100
AcDbLine
 10
2.5613496935
 20
-52.4374817068
 30
0.0
 11
2.5613496935
 21
52.4374817068
 31
0.0
  0
LINE
  5
170
330
159
100
AcDbEntity
  8
0
  6
Continuous
 62
     7
370
    15
100
AcDbLine
 10
-2.5630346143
 20
52.4373993784
 30
0.0
 11
-2.5630346143
 21
-52.4373993784
 31
0.0
  0
LINE
  5
171
330
159
100
AcDbEntity
  8
0
  6
Continuous
 62
     7
370
    15
100
AcDbLine
 10
-245.0
 20
-160.0
 30
0.0
 11
-245.0
 21
160.0
 31
0.0
  0
LINE
  5
172
330
159
100
AcDbEntity
  8
0
  6
Continuous
 62
     7
370
    15
100
AcDbLine
 10
245.0
 20
-160.0
 30
0.0
 11
-245.0
 21
-160.0
 31
0.0
  0
LINE
  5
173
330
159
100
AcDbEntity
  8
0
  6
Continuous
 62
     7
370
    15
100
AcDbLine
 10
-245.0
 20
160.0
 30
0.0
 11
245.0
 21
160.0
 31
0.0
  0
LINE
  5
174
330
159
100
AcDbEntity
  8
0
  6
Continuous
 62
     7
370
    15
100
AcDbLine
 10
245.0
 20
160.0
 30
0.0
 11
245.0
 21
-160.0
 31
0.0
  0
LINE
  5
175
330
159
100
AcDbEntity
  8
0
  6
Continuous
 62
     7
370
    15
100
AcDbLine
 10
2.5613496935
 20
2.5
 30
0.0
 11
52.4404424085
 21
2.5
 31
0.0
  0
LINE
  5
176
330
159
100
AcDbEntity
  8
0
  6
Continuous
 62
     7
370
    15
100
AcDbLine
 10
52.4404424085
 20
-2.5
 30
0.0
 11
2.5613496935
 21
-2.5
 31
0.0
  0
LINE
  5
177
330
159
100
AcDbEntity
  8
0
  6
Continuous
 62
     7
370
    15
100
AcDbLine
 10
-52.4404424085
 20
2.5
 30
0.0
 11
-2.5630346143
 21
2.5
 31
0.0
  0
LINE
  5
178
330
159
100
AcDbEntity
  8
0
  6
Continuous
 62
     7
370
    15
100
AcDbLine
 10
-2.5630346143
 20
-2.5
 30
0.0
 11
-52.4404424085
 21
-2.5
 31
0.0
  0
VIEWPORT
  5
29D
330
159
100
AcDbEntity
  8
0
100
AcDbViewport
 10
0.0
 20
0.0
 30
0.0
 40
205.6
 41
156.0
 68
     1
 69
     1
 12
29.1486086684
 22
124.6032253361
 13
0.0
 23
0.0
 14
10.0
 24
10.0
 15
10.0
 25
10.0
 16
0.0
 26
0.0
 36
1.0
 17
0.0
 27
0.0
 37
0.0
 42
50.0
 43
0.0
 44
0.0
 45
468.5495880949
 50
0.0
 51
0.0
 72
   100
 90
   557152
  1

281
     0
 71
     1
 74
     0
110
0.0
120
0.0
130
0.0
111
1.0
121
0.0
131
0.0
112
0.0
122
1.0
132
0.0
 79
     0
146
0.0
  0
ENDBLK
  5
15C
330
159
100
AcDbEntity
  8
0
100
AcDbBlockEnd
  0
BLOCK
  5
17B
330
179
100
AcDbEntity
  8
0
100
AcDbBlockBegin
  2
*Paper_Space6
 70
     0
 10
0.0
 20
0.0
 30
0.0
  3
*Paper_Space6
  1

  0
LWPOLYLINE
  5
1A8
330
179
100
AcDbEntity
  8
0
  6
Continuous
 62
     7
370
    15
100
AcDbPolyline
 90
       17
 70
   128
 43
0.0
 10
-33.6264123684
 20
36.9629649152
 10
-33.7071503166
 20
37.3850708507
 10
-33.9370725402
 20
37.6496969332
 10
-34.2811754651
 20
37.7165562405
 10
-34.6870725402
 20
37.5754700491
 10
-35.0929696153
 20
37.2479174528
 10
-35.4370725402
 20
36.783765365
 10
-35.6669947639
 20
36.2536767336
 10
-35.747732712
 20
35.7383527474
 10
-35.6669947639
 20
35.3162468119
 10
-35.4370725402
 20
35.0516207294
 10
-35.0929696153
 20
34.9847614221
 10
-34.6870725402
 20
35.1258476135
 10
-34.2811754651
 20
35.4534002098
 10
-33.9370725402
 20
35.9175522976
 10
-33.7071503166
 20
36.447640929
 10
-33.6264123684
 20
36.9629649152
  0
LWPOLYLINE
  5
1A9
330
179
100
AcDbEntity
  8
0
  6
Continuous
 62
     7
370
    15
100
AcDbPolyline
 90
       17
 70
   128
 43
0.0
 10
28.9525377665
 20
73.0890238633
 10
28.8717998184
 20
73.5111297988
 10
28.6418775947
 20
73.7757558813
 10
28.2977746698
 20
73.8426151886
 10
27.8918775947
 20
73.7015289973
 10
27.4859805196
 20
73.373976401
 10
27.1418775947
 20
72.9098243132
 10
26.9119553711
 20
72.3797356818
 10
26.831217423
 20
71.8644116956
 10
26.9119553711
 20
71.4423057601
 10
27.1418775947
 20
71.1776796776
 10
27.4859805196
 20
71.1108203703
 10
27.8918775947
 20
71.2519065616
 10
28.2977746698
 20
71.5794591579
 10
28.6418775947
 20
72.0436112457
 10
28.8717998184
 20
72.5736998771
 10
28.9525377665
 20
73.0890238633
  0
LINE
  5
1AD
330
179
100
AcDbEntity
  8
0
  6
Continuous
 62
     7
370
    15
100
AcDbLine
 10
-49.1827615546
 20
-102.2326939997
 30
0.0
 11
60.1040764009
 21
-165.3226426441
 31
0.0
  0
LINE
  5
1AE
330
179
100
AcDbEntity
  8
0
  6
Continuous
 62
     7
370
    15
100
AcDbLine
 10
60.1040764009
 20
-381.7059577938
 30
0.0
 11
60.1040764009
 21
-165.3226426441
 31
0.0
  0
LINE
  5
1AF
330
179
100
AcDbEntity
  8
0
  6
Continuous
 62
     7
370
    15
100
AcDbLine
 10
-286.3782463806
 20
-181.6859703973
 30
0.0
 11
60.1040764009
 21
-381.7059577938
 31
0.0
  0
LINE
  5
1B0
330
179
100
AcDbEntity
  8
0
  6
Continuous
 62
     7
370
    15
100
AcDbLine
 10
-286.3782463806
 20
-181.6859703973
 30
0.0
 11
-286.3782463806
 21
34.6973447525
 31
0.0
  0
LINE
  5
1B1
330
179
100
AcDbEntity
  8
0
  6
Continuous
 62
     7
370
    15
100
AcDbLine
 10
-286.3782463806
 20
34.6973447525
 30
0.0
 11
-172.2193414811
 21
-31.2051882712
 31
0.0
  0
LINE
  5
1B2
330
179
100
AcDbEntity
  8
0
  6
Continuous
 62
     7
370
    15
100
AcDbLine
 10
-172.2193414811
 20
-31.2051882712
 30
0.0
 11
-172.2193414811
 21
-114.4923510835
 31
0.0
  0
LINE
  5
1B3
330
179
100
AcDbEntity
  8
0
  6
Continuous
 62
     7
370
    15
100
AcDbLine
 10
-172.2193414811
 20
-114.4923510835
 30
0.0
 11
-49.1827615546
 21
-185.5198568121
 31
0.0
  0
LINE
  5
1B4
330
179
100
AcDbEntity
  8
0
  6
Continuous
 62
     7
370
    15
100
AcDbLine
 10
-49.1827615546
 20
-102.2326939997
 30
0.0
 11
-49.1827615546
 21
-185.5198568121
 31
0.0
  0
LINE
  5
1B5
330
179
100
AcDbEntity
  8
0
  6
Continuous
 62
     7
370
    15
100
AcDbLine
 10
-113.0897547018
 20
-273.1502427239
 30
0.0
 11
-49.1827615546
 21
-189.6025608715
 31
0.0
  0
LINE
  5
1B6
330
179
100
AcDbEntity
  8
0
  6
Continuous
 62
     7
370
    15
100
AcDbLine
 10
-49.1827615546
 20
-189.6025608715
 30
0.0
 11
-172.2193414811
 21
-118.5750551429
 31
0.0
  0
LINE
  5
1B7
330
179
100
AcDbEntity
  8
0
  6
Continuous
 62
     7
370
    15
100
AcDbLine
 10
-172.2193414811
 20
-118.5750551429
 30
0.0
 11
-113.0897547018
 21
-273.1502427239
 31
0.0
  0
LINE
  5
1B8
330
179
100
AcDbEntity
  8
0
  6
Continuous
 62
     7
370
    15
100
AcDbLine
 10
-49.1827615546
 20
-102.2326939997
 30
0.0
 11
177.0914084251
 21
28.3926038919
 31
0.0
  0
LINE
  5
1B9
330
179
100
AcDbEntity
  8
0
  6
Continuous
 62
     7
370
    15
100
AcDbLine
 10
286.3782463806
 20
-34.6973447525
 30
0.0
 11
177.0914084251
 21
28.3926038919
 31
0.0
  0
LINE
  5
1BA
330
179
100
AcDbEntity
  8
0
  6
Continuous
 62
     7
370
    15
100
AcDbLine
 10
60.1040764009
 20
-165.3226426441
 30
0.0
 11
286.3782463806
 21
-34.6973447525
 31
0.0
  0
LINE
  5
1BB
330
179
100
AcDbEntity
  8
0
  6
Continuous
 62
     7
370
    15
100
AcDbLine
 10
-42.1116937427
 20
-102.2326939997
 30
0.0
 11
60.1040764009
 21
-161.240602085
 31
0.0
  0
LINE
  5
1BC
330
179
100
AcDbEntity
  8
0
  6
Continuous
 62
     7
370
    15
100
AcDbLine
 10
60.1040764009
 20
-161.240602085
 30
0.0
 11
167.9378605318
 21
-98.9894835585
 31
0.0
  0
LINE
  5
1BD
330
179
100
AcDbEntity
  8
0
  6
Continuous
 62
     7
370
    15
100
AcDbLine
 10
65.7220903882
 20
-39.9815754732
 30
0.0
 11
167.9378605318
 21
-98.9894835585
 31
0.0
  0
LINE
  5
1BE
330
179
100
AcDbEntity
  8
0
  6
Continuous
 62
     7
370
    15
100
AcDbLine
 10
-42.1116937427
 20
-102.2326939997
 30
0.0
 11
65.7220903882
 21
-39.9815754732
 31
0.0
  0
LINE
  5
1BF
330
179
100
AcDbEntity
  8
0
  6
Continuous
 62
     7
370
    15
100
AcDbLine
 10
171.4733944377
 20
-96.9484632789
 30
0.0
 11
69.2576242941
 21
-37.9405551937
 31
0.0
  0
LINE
  5
1C0
330
179
100
AcDbEntity
  8
0
  6
Continuous
 62
     7
370
    15
100
AcDbLine
 10
171.4733944377
 20
-96.9484632789
 30
0.0
 11
279.3071785687
 21
-34.6973447525
 31
0.0
  0
LINE
  5
1C1
330
179
100
AcDbEntity
  8
0
  6
Continuous
 62
     7
370
    15
100
AcDbLine
 10
279.3071785687
 20
-34.6973447525
 30
0.0
 11
177.0914084251
 21
24.3105633328
 31
0.0
  0
LINE
  5
1C2
330
179
100
AcDbEntity
  8
0
  6
Continuous
 62
     7
370
    15
100
AcDbLine
 10
69.2576242941
 20
-37.9405551937
 30
0.0
 11
177.0914084251
 21
24.3105633328
 31
0.0
  0
LINE
  5
1C3
330
179
100
AcDbEntity
  8
0
  6
Continuous
 62
     7
370
    15
100
AcDbLine
 10
286.3782463806
 20
-251.0806599022
 30
0.0
 11
286.3782463806
 21
-34.6973447525
 31
0.0
  0
LINE
  5
1C4
330
179
100
AcDbEntity
  8
0
  6
Continuous
 62
     7
370
    15
100
AcDbLine
 10
60.1040764009
 20
-381.7059577938
 30
0.0
 11
286.3782463806
 21
-251.0806599022
 31
0.0
  0
LINE
  5
1C5
330
179
100
AcDbEntity
  8
0
  6
Continuous
 62
     7
370
    15
100
AcDbLine
 10
65.7220903882
 20
-127.351442345
 30
0.0
 11
65.7220903882
 21
-39.9815754732
 31
0.0
  0
LINE
  5
1C6
330
179
100
AcDbEntity
  8
0
  6
Continuous
 62
     7
370
    15
100
AcDbLine
 10
33.5610297907
 20
-145.9176274356
 30
0.0
 11
65.7220903882
 21
-127.351442345
 31
0.0
  0
LINE
  5
1C7
330
179
100
AcDbEntity
  8
0
  6
Continuous
 62
     7
370
    15
100
AcDbLine
 10
65.7220903882
 20
-127.351442345
 30
0.0
 11
46.2008254403
 21
-153.2144261474
 31
0.0
  0
LINE
  5
1C8
330
179
100
AcDbEntity
  8
0
  6
Continuous
 62
     7
370
    15
100
AcDbLine
 10
54.0548284986
 20
16.1329468081
 30
0.0
 11
-172.2193414811
 21
-114.4923510835
 31
0.0
  0
LINE
  5
1C9
330
179
100
AcDbEntity
  8
0
  6
Continuous
 62
     7
370
    15
100
AcDbLine
 10
104.954793468
 20
-13.2509775143
 30
0.0
 11
54.0548284986
 21
16.1329468081
 31
0.0
  0
LINE
  5
1CA
330
179
100
AcDbEntity
  8
0
  6
Continuous
 62
     7
370
    15
100
AcDbLine
 10
177.0914084251
 20
-63.059303539
 30
0.0
 11
177.0914084251
 21
24.3105633328
 31
0.0
  0
LINE
  5
1CB
330
179
100
AcDbEntity
  8
0
  6
Continuous
 62
     7
370
    15
100
AcDbLine
 10
177.0914084251
 20
-63.059303539
 30
0.0
 11
144.9303478276
 21
-81.6254886296
 31
0.0
  0
LINE
  5
1CC
330
179
100
AcDbEntity
  8
0
  6
Continuous
 62
     7
370
    15
100
AcDbLine
 10
157.5701434771
 20
-88.9222873414
 30
0.0
 11
177.0914084251
 21
-63.059303539
 31
0.0
  0
LINE
  5
1CD
330
179
100
AcDbEntity
  8
0
  6
Continuous
 62
     7
370
    15
100
AcDbLine
 10
46.9837606868
 20
99.4201096205
 30
0.0
 11
-60.1040764009
 21
161.240602085
 31
0.0
  0
LINE
  5
1CE
330
179
100
AcDbEntity
  8
0
  6
Continuous
 62
     7
370
    15
100
AcDbLine
 10
-60.1040764009
 20
161.240602085
 30
0.0
 11
-167.9378605318
 21
98.9894835585
 31
0.0
  0
LINE
  5
1CF
330
179
100
AcDbEntity
  8
0
  6
Continuous
 62
     7
370
    15
100
AcDbLine
 10
-60.8500234442
 20
37.168991094
 30
0.0
 11
-167.9378605318
 21
98.9894835585
 31
0.0
  0
LINE
  5
1D0
330
179
100
AcDbEntity
  8
0
  6
Continuous
 62
     7
370
    15
100
AcDbLine
 10
46.9837606868
 20
99.4201096205
 30
0.0
 11
-60.8500234442
 21
37.168991094
 31
0.0
  0
LINE
  5
1D1
330
179
100
AcDbEntity
  8
0
  6
Continuous
 62
     7
370
    15
100
AcDbLine
 10
-171.4733944377
 20
96.9484632789
 30
0.0
 11
-279.3071785687
 21
34.6973447525
 31
0.0
  0
LINE
  5
1D2
330
179
100
AcDbEntity
  8
0
  6
Continuous
 62
     7
370
    15
100
AcDbLine
 10
-64.3855573501
 20
35.1279708144
 30
0.0
 11
-172.2193414811
 21
-27.123147712
 31
0.0
  0
LINE
  5
1D3
330
179
100
AcDbEntity
  8
0
  6
Continuous
 62
     7
370
    15
100
AcDbLine
 10
-171.4733944377
 20
96.9484632789
 30
0.0
 11
-64.3855573501
 21
35.1279708144
 31
0.0
  0
LINE
  5
1D4
330
179
100
AcDbEntity
  8
0
  6
Continuous
 62
     7
370
    15
100
AcDbLine
 10
-60.1040764009
 20
165.3226426441
 30
0.0
 11
-286.3782463806
 21
34.6973447525
 31
0.0
  0
LINE
  5
1D5
330
179
100
AcDbEntity
  8
0
  6
Continuous
 62
     7
370
    15
100
AcDbLine
 10
54.0548284986
 20
99.4201096205
 30
0.0
 11
-172.2193414811
 21
-31.2051882712
 31
0.0
  0
LINE
  5
1D6
330
179
100
AcDbEntity
  8
0
  6
Continuous
 62
     7
370
    15
100
AcDbLine
 10
54.0548284986
 20
99.4201096205
 30
0.0
 11
-60.1040764009
 21
165.3226426441
 31
0.0
  0
LINE
  5
1D7
330
179
100
AcDbEntity
  8
0
  6
Continuous
 62
     7
370
    15
100
AcDbLine
 10
-279.3071785687
 20
34.6973447525
 30
0.0
 11
-172.2193414811
 21
-27.123147712
 31
0.0
  0
LINE
  5
1D8
330
179
100
AcDbEntity
  8
0
  6
Continuous
 62
     7
370
    15
100
AcDbLine
 10
54.0548284986
 20
16.1329468081
 30
0.0
 11
54.0548284986
 21
99.4201096205
 31
0.0
  0
LINE
  5
1D9
330
179
100
AcDbEntity
  8
0
  6
Continuous
 62
     7
370
    15
100
AcDbLine
 10
-171.4733944377
 20
96.9484632789
 30
0.0
 11
-171.4733944377
 21
-26.6925216501
 31
0.0
  0
LINE
  5
1DA
330
179
100
AcDbEntity
  8
0
  6
Continuous
 62
     7
370
    15
100
AcDbLine
 10
-60.1040764009
 20
37.599617156
 30
0.0
 11
-60.1040764009
 21
161.240602085
 31
0.0
  0
VIEWPORT
  5
29F
330
179
100
AcDbEntity
  8
0
100
AcDbViewport
 10
0.0
 20
0.0
 30
0.0
 40
205.6
 41
156.0
 68
     1
 69
     1
 12
29.1486086684
 22
124.6032253361
 13
0.0
 23
0.0
 14
10.0
 24
10.0
 15
10.0
 25
10.0
 16
0.0
 26
0.0
 36
1.0
 17
0.0
 27
0.0
 37
0.0
 42
50.0
 43
0.0
 44
0.0
 45
468.5495880949
 50
0.0
 51
0.0
 72
   100
 90
   557152
  1

281
     0
 71
     1
 74
     0
110
0.0
120
0.0
130
0.0
111
1.0
121
0.0
131
0.0
112
0.0
122
1.0
132
0.0
 79
     0
146
0.0
  0
ENDBLK
  5
17C
330
179
100
AcDbEntity
  8
0
100
AcDbBlockEnd
  0
BLOCK
  5
1DD
330
1DB
100
AcDbEntity
  8
0
100
AcDbBlockBegin
  2
*Paper_Space7
 70
     0
 10
0.0
 20
0.0
 30
0.0
  3
*Paper_Space7
  1

  0
LWPOLYLINE
  5
1FC
330
1DB
100
AcDbEntity
  8
0
  6
Continuous
 62
     7
370
    15
100
AcDbPolyline
 90
       17
 70
   128
 43
0.0
 10
-57.0964588534
 20
24.0531535111
 10
-57.1497464602
 20
24.4931787604
 10
-57.3014967254
 20
24.7621934787
 10
-57.5286070469
 20
24.8192426137
 10
-57.7965019368
 20
24.6556409519
 10
-58.0643968268
 20
24.2962953631
 10
-58.2915071482
 20
23.7959129558
 10
-58.4432574134
 20
23.2306724156
 10
-58.4965450202
 20
22.6866264906
 10
-58.4432574134
 20
22.2466012413
 10
-58.2915071482
 20
21.977586523
 10
-58.0643968268
 20
21.920537388
 10
-57.7965019368
 20
22.0841390498
 10
-57.5286070469
 20
22.4434846386
 10
-57.3014967254
 20
22.9438670458
 10
-57.1497464602
 20
23.5091075861
 10
-57.0964588534
 20
24.0531535111
  0
LWPOLYLINE
  5
1FD
330
1DB
100
AcDbEntity
  8
0
  6
Continuous
 62
     7
370
    15
100
AcDbPolyline
 90
       17
 70
   128
 43
0.0
 10
-15.7939169332
 20
64.3657006132
 10
-15.8472045399
 20
64.8057258625
 10
-15.9989548052
 20
65.0747405808
 10
-16.2260651266
 20
65.1317897159
 10
-16.4939600166
 20
64.9681880541
 10
-16.7618549065
 20
64.6088424653
 10
-16.9889652279
 20
64.108460058
 10
-17.1407154932
 20
63.5432195177
 10
-17.1940030999
 20
62.9991735928
 10
-17.1407154932
 20
62.5591483435
 10
-16.9889652279
 20
62.2901336252
 10
-16.7618549065
 20
62.2330844901
 10
-16.4939600166
 20
62.396686152
 10
-16.2260651266
 20
62.7560317407
 10
-15.9989548052
 20
63.256414148
 10
-15.8472045399
 20
63.8216546883
 10
-15.7939169332
 20
64.3657006132
  0
LINE
  5
20B
330
1DB
100
AcDbEntity
  8
0
  6
Continuous
 62
     7
370
    15
100
AcDbLine
 10
5.3199980881
 20
-94.6213516374
 30
0.0
 11
142.0111775822
 21
-131.7710852862
 31
0.0
  0
LINE
  5
20C
330
1DB
100
AcDbEntity
  8
0
  6
Continuous
 62
     7
370
    15
100
AcDbLine
 10
142.0111775822
 20
-358.9204199723
 30
0.0
 11
142.0111775822
 21
-131.7710852862
 31
0.0
  0
LINE
  5
20D
330
1DB
100
AcDbEntity
  8
0
  6
Continuous
 62
     7
370
    15
100
AcDbLine
 10
-291.3537020398
 20
-241.1411315772
 30
0.0
 11
142.0111775822
 21
-358.9204199723
 31
0.0
  0
LINE
  5
20E
330
1DB
100
AcDbEntity
  8
0
  6
Continuous
 62
     7
370
    15
100
AcDbLine
 10
-291.3537020398
 20
-241.1411315772
 30
0.0
 11
-291.3537020398
 21
-13.9917968911
 31
0.0
  0
LINE
  5
20F
330
1DB
100
AcDbEntity
  8
0
  6
Continuous
 62
     7
370
    15
100
AcDbLine
 10
-291.3537020398
 20
-13.9917968911
 30
0.0
 11
-148.5687550838
 21
-52.7976859624
 31
0.0
  0
LINE
  5
210
330
1DB
100
AcDbEntity
  8
0
  6
Continuous
 62
     7
370
    15
100
AcDbLine
 10
-148.5687550838
 20
-52.7976859624
 30
0.0
 11
-148.5687550838
 21
-140.2287506341
 31
0.0
  0
LINE
  5
211
330
1DB
100
AcDbEntity
  8
0
  6
Continuous
 62
     7
370
    15
100
AcDbLine
 10
-148.5687550838
 20
-140.2287506341
 30
0.0
 11
5.3199980881
 21
-182.0524163091
 31
0.0
  0
LINE
  5
212
330
1DB
100
AcDbEntity
  8
0
  6
Continuous
 62
     7
370
    15
100
AcDbLine
 10
5.3199980881
 20
-94.6213516374
 30
0.0
 11
5.3199980881
 21
-182.0524163091
 31
0.0
  0
LINE
  5
213
330
1DB
100
AcDbEntity
  8
0
  6
Continuous
 62
     7
370
    15
100
AcDbLine
 10
-74.6120635823
 20
-291.0472735428
 30
0.0
 11
5.3199980881
 21
-186.3382528126
 31
0.0
  0
LINE
  5
214
330
1DB
100
AcDbEntity
  8
0
  6
Continuous
 62
     7
370
    15
100
AcDbLine
 10
5.3199980881
 20
-186.3382528126
 30
0.0
 11
-148.5687550838
 21
-144.5145871376
 31
0.0
  0
LINE
  5
215
330
1DB
100
AcDbEntity
  8
0
  6
Continuous
 62
     7
370
    15
100
AcDbLine
 10
-148.5687550838
 20
-144.5145871376
 30
0.0
 11
-74.6120635823
 21
-291.0472735428
 31
0.0
  0
LINE
  5
216
330
1DB
100
AcDbEntity
  8
0
  6
Continuous
 62
     7
370
    15
100
AcDbLine
 10
5.3199980881
 20
-94.6213516374
 30
0.0
 11
154.6625225457
 21
51.1415305399
 31
0.0
  0
LINE
  5
217
330
1DB
100
AcDbEntity
  8
0
  6
Continuous
 62
     7
370
    15
100
AcDbLine
 10
291.3537020398
 20
13.9917968911
 30
0.0
 11
154.6625225457
 21
51.1415305399
 31
0.0
  0
LINE
  5
218
330
1DB
100
AcDbEntity
  8
0
  6
Continuous
 62
     7
370
    15
100
AcDbLine
 10
142.0111775822
 20
-131.7710852862
 30
0.0
 11
291.3537020398
 21
13.9917968911
 31
0.0
  0
LINE
  5
219
330
1DB
100
AcDbEntity
  8
0
  6
Continuous
 62
     7
370
    15
100
AcDbLine
 10
12.0755656411
 20
-93.5456360768
 30
0.0
 11
139.9225639184
 21
-128.2917107788
 31
0.0
  0
LINE
  5
21A
330
1DB
100
AcDbEntity
  8
0
  6
Continuous
 62
     7
370
    15
100
AcDbLine
 10
139.9225639184
 20
-128.2917107788
 30
0.0
 11
211.0936107303
 21
-58.8265872412
 31
0.0
  0
LINE
  5
21B
330
1DB
100
AcDbEntity
  8
0
  6
Continuous
 62
     7
370
    15
100
AcDbLine
 10
83.246612453
 20
-24.0805125392
 30
0.0
 11
211.0936107303
 21
-58.8265872412
 31
0.0
  0
LINE
  5
21C
330
1DB
100
AcDbEntity
  8
0
  6
Continuous
 62
     7
370
    15
100
AcDbLine
 10
12.0755656411
 20
-93.5456360768
 30
0.0
 11
83.246612453
 21
-24.0805125392
 31
0.0
  0
LINE
  5
21D
330
1DB
100
AcDbEntity
  8
0
  6
Continuous
 62
     7
370
    15
100
AcDbLine
 10
213.4270876749
 20
-56.5490422071
 30
0.0
 11
85.5800893976
 21
-21.8029675052
 31
0.0
  0
LINE
  5
21E
330
1DB
100
AcDbEntity
  8
0
  6
Continuous
 62
     7
370
    15
100
AcDbLine
 10
213.4270876749
 20
-56.5490422071
 30
0.0
 11
284.5981344867
 21
12.9160813305
 31
0.0
  0
LINE
  5
21F
330
1DB
100
AcDbEntity
  8
0
  6
Continuous
 62
     7
370
    15
100
AcDbLine
 10
284.5981344867
 20
12.9160813305
 30
0.0
 11
156.7511362095
 21
47.6621560325
 31
0.0
  0
LINE
  5
220
330
1DB
100
AcDbEntity
  8
0
  6
Continuous
 62
     7
370
    15
100
AcDbLine
 10
85.5800893976
 20
-21.8029675052
 30
0.0
 11
156.7511362095
 21
47.6621560325
 31
0.0
  0
LINE
  5
221
330
1DB
100
AcDbEntity
  8
0
  6
Continuous
 62
     7
370
    15
100
AcDbLine
 10
291.3537020398
 20
-213.1575377949
 30
0.0
 11
291.3537020398
 21
13.9917968911
 31
0.0
  0
LINE
  5
222
330
1DB
100
AcDbEntity
  8
0
  6
Continuous
 62
     7
370
    15
100
AcDbLine
 10
142.0111775822
 20
-358.9204199723
 30
0.0
 11
291.3537020398
 21
-213.1575377949
 31
0.0
  0
LINE
  5
223
330
1DB
100
AcDbEntity
  8
0
  6
Continuous
 62
     7
370
    15
100
AcDbLine
 10
83.246612453
 20
-112.8884015892
 30
0.0
 11
83.246612453
 21
-24.0805125392
 31
0.0
  0
LINE
  5
224
330
1DB
100
AcDbEntity
  8
0
  6
Continuous
 62
     7
370
    15
100
AcDbLine
 10
0.7737693739
 20
5.5341315433
 30
0.0
 11
-148.5687550838
 21
-140.2287506341
 31
0.0
  0
LINE
  5
225
330
1DB
100
AcDbEntity
  8
0
  6
Continuous
 62
     7
370
    15
100
AcDbLine
 10
84.5948690623
 20
-17.2466472831
 30
0.0
 11
0.7737693739
 21
5.5341315433
 31
0.0
  0
LINE
  5
226
330
1DB
100
AcDbEntity
  8
0
  6
Continuous
 62
     7
370
    15
100
AcDbLine
 10
0.7737693739
 20
92.9651962149
 30
0.0
 11
-148.5687550838
 21
-52.7976859624
 31
0.0
  0
LINE
  5
227
330
1DB
100
AcDbEntity
  8
0
  6
Continuous
 62
     7
370
    15
100
AcDbLine
 10
0.7737693739
 20
5.5341315433
 30
0.0
 11
0.7737693739
 21
92.9651962149
 31
0.0
  0
LINE
  5
228
330
1DB
100
AcDbEntity
  8
0
  6
Continuous
 62
     7
370
    15
100
AcDbLine
 10
-5.9817981792
 20
91.8894806543
 30
0.0
 11
-139.9225639184
 21
128.2917107788
 31
0.0
  0
LINE
  5
229
330
1DB
100
AcDbEntity
  8
0
  6
Continuous
 62
     7
370
    15
100
AcDbLine
 10
-139.9225639184
 20
128.2917107788
 30
0.0
 11
-211.0936107303
 21
58.8265872412
 31
0.0
  0
LINE
  5
22A
330
1DB
100
AcDbEntity
  8
0
  6
Continuous
 62
     7
370
    15
100
AcDbLine
 10
-77.152844991
 20
22.4243571167
 30
0.0
 11
-211.0936107303
 21
58.8265872412
 31
0.0
  0
LINE
  5
22B
330
1DB
100
AcDbEntity
  8
0
  6
Continuous
 62
     7
370
    15
100
AcDbLine
 10
-5.9817981792
 20
91.8894806543
 30
0.0
 11
-77.152844991
 21
22.4243571167
 31
0.0
  0
LINE
  5
22C
330
1DB
100
AcDbEntity
  8
0
  6
Continuous
 62
     7
370
    15
100
AcDbLine
 10
-213.4270876749
 20
56.5490422071
 30
0.0
 11
-284.5981344867
 21
-12.9160813305
 31
0.0
  0
LINE
  5
22D
330
1DB
100
AcDbEntity
  8
0
  6
Continuous
 62
     7
370
    15
100
AcDbLine
 10
-79.4863219357
 20
20.1468120826
 30
0.0
 11
-150.6573687475
 21
-49.318311455
 31
0.0
  0
LINE
  5
22E
330
1DB
100
AcDbEntity
  8
0
  6
Continuous
 62
     7
370
    15
100
AcDbLine
 10
-213.4270876749
 20
56.5490422071
 30
0.0
 11
-79.4863219357
 21
20.1468120826
 31
0.0
  0
LINE
  5
22F
330
1DB
100
AcDbEntity
  8
0
  6
Continuous
 62
     7
370
    15
100
AcDbLine
 10
-142.0111775822
 20
131.7710852862
 30
0.0
 11
-291.3537020398
 21
-13.9917968911
 31
0.0
  0
LINE
  5
230
330
1DB
100
AcDbEntity
  8
0
  6
Continuous
 62
     7
370
    15
100
AcDbLine
 10
0.7737693739
 20
92.9651962149
 30
0.0
 11
-142.0111775822
 21
131.7710852862
 31
0.0
  0
LINE
  5
231
330
1DB
100
AcDbEntity
  8
0
  6
Continuous
 62
     7
370
    15
100
AcDbLine
 10
-284.5981344867
 20
-12.9160813305
 30
0.0
 11
-150.6573687475
 21
-49.318311455
 31
0.0
  0
LINE
  5
232
330
1DB
100
AcDbEntity
  8
0
  6
Continuous
 62
     7
370
    15
100
AcDbLine
 10
156.7511362095
 20
-41.1457330176
 30
0.0
 11
156.7511362095
 21
47.6621560325
 31
0.0
  0
LINE
  5
233
330
1DB
100
AcDbEntity
  8
0
  6
Continuous
 62
     7
370
    15
100
AcDbLine
 10
-213.4270876749
 20
56.5490422071
 30
0.0
 11
-213.4270876749
 21
-32.2588468429
 31
0.0
  0
LINE
  5
234
330
1DB
100
AcDbEntity
  8
0
  6
Continuous
 62
     7
370
    15
100
AcDbLine
 10
-139.9225639184
 20
39.4838217288
 30
0.0
 11
-139.9225639184
 21
128.2917107788
 31
0.0
  0
VIEWPORT
  5
2A1
330
1DB
100
AcDbEntity
  8
0
100
AcDbViewport
 10
0.0
 20
0.0
 30
0.0
 40
205.6
 41
156.0
 68
     1
 69
     1
 12
29.1486086684
 22
124.6032253361
 13
0.0
 23
0.0
 14
10.0
 24
10.0
 15
10.0
 25
10.0
 16
0.0
 26
0.0
 36
1.0
 17
0.0
 27
0.0
 37
0.0
 42
50.0
 43
0.0
 44
0.0
 45
468.5495880949
 50
0.0
 51
0.0
 72
   100
 90
   557152
  1

281
     0
 71
     1
 74
     0
110
0.0
120
0.0
130
0.0
111
1.0
121
0.0
131
0.0
112
0.0
122
1.0
132
0.0
 79
     0
146
0.0
  0
ENDBLK
  5
1DE
330
1DB
100
AcDbEntity
  8
0
100
AcDbBlockEnd
  0
BLOCK
  5
237
330
235
100
AcDbEntity
  8
0
100
AcDbBlockBegin
  2
*Paper_Space8
 70
     0
 10
0.0
 20
0.0
 30
0.0
  3
*Paper_Space8
  1

  0
LWPOLYLINE
  5
260
330
235
100
AcDbEntity
  8
0
  6
Continuous
 62
     7
370
    15
100
AcDbPolyline
 90
       17
 70
   128
 43
0.0
 10
-65.4305567302
 20
7.4012837986
 10
-65.4709257043
 20
7.9068778101
 10
-65.5858868161
 20
8.2642955392
 10
-65.7579382785
 20
8.4191233767
 10
-65.960886816
 20
8.3477901878
 10
-66.1638353535
 20
8.0611558039
 10
-66.3358868159
 20
7.6028577116
 10
-66.4508479277
 20
7.042667641
 10
-66.4912169018
 20
6.4658694521
 10
-66.4508479277
 20
5.9602754406
 10
-66.3358868159
 20
5.6028577115
 10
-66.1638353535
 20
5.4480298741
 10
-65.960886816
 20
5.519363063
 10
-65.7579382785
 20
5.8059974469
 10
-65.5858868161
 20
6.2642955392
 10
-65.4709257043
 20
6.8244856098
 10
-65.4305567302
 20
7.4012837986
  0
LWPOLYLINE
  5
261
330
235
100
AcDbEntity
  8
0
  6
Continuous
 62
     7
370
    15
100
AcDbPolyline
 90
       17
 70
   128
 43
0.0
 10
-34.1410816699
 20
34.9960070204
 10
-34.181450644
 20
35.5016010319
 10
-34.2964117558
 20
35.859018761
 10
-34.4684632182
 20
36.0138465985
 10
-34.6714117557
 20
35.9425134096
 10
-34.8743602932
 20
35.6558790257
 10
-35.0464117556
 20
35.1975809334
 10
-35.1613728674
 20
34.6373908628
 10
-35.2017418415
 20
34.0605926739
 10
-35.1613728674
 20
33.5549986625
 10
-35.0464117556
 20
33.1975809333
 10
-34.8743602932
 20
33.0427530959
 10
-34.6714117557
 20
33.1140862848
 10
-34.4684632182
 20
33.4007206687
 10
-34.2964117558
 20
33.859018761
 10
-34.181450644
 20
34.4192088316
 10
-34.1410816699
 20
34.9960070204
  0
LINE
  5
266
330
235
100
AcDbEntity
  8
0
  6
Continuous
 62
     7
370
    15
100
AcDbLine
 10
28.0350750594
 20
-60.5478190476
 30
0.0
 11
172.6079724655
 21
-78.7622920317
 31
0.0
  0
LINE
  5
267
330
235
100
AcDbEntity
  8
0
  6
Continuous
 62
     7
370
    15
100
AcDbLine
 10
172.6079724655
 20
-328.6066880584
 30
0.0
 11
172.6079724655
 21
-78.7622920317
 31
0.0
  0
LINE
  5
268
330
235
100
AcDbEntity
  8
0
  6
Continuous
 62
     7
370
    15
100
AcDbLine
 10
-285.7450574294
 20
-270.8596342885
 30
0.0
 11
172.6079724655
 21
-328.6066880584
 31
0.0
  0
LINE
  5
269
330
235
100
AcDbEntity
  8
0
  6
Continuous
 62
     7
370
    15
100
AcDbLine
 10
-285.7450574294
 20
-270.8596342885
 30
0.0
 11
-285.7450574294
 21
-21.0152382618
 31
0.0
  0
LINE
  5
26A
330
235
100
AcDbEntity
  8
0
  6
Continuous
 62
     7
370
    15
100
AcDbLine
 10
-285.7450574294
 20
-21.0152382618
 30
0.0
 11
-134.7270212706
 21
-40.0417224028
 31
0.0
  0
LINE
  5
26B
330
235
100
AcDbEntity
  8
0
  6
Continuous
 62
     7
370
    15
100
AcDbLine
 10
-134.7270212706
 20
-40.0417224028
 30
0.0
 11
-134.7270212706
 21
-136.208244647
 31
0.0
  0
LINE
  5
26C
330
235
100
AcDbEntity
  8
0
  6
Continuous
 62
     7
370
    15
100
AcDbLine
 10
-134.7270212706
 20
-136.208244647
 30
0.0
 11
28.0350750594
 21
-156.7143412919
 31
0.0
  0
LINE
  5
26D
330
235
100
AcDbEntity
  8
0
  6
Continuous
 62
     7
370
    15
100
AcDbLine
 10
28.0350750594
 20
-60.5478190476
 30
0.0
 11
28.0350750594
 21
-156.7143412919
 31
0.0
  0
LINE
  5
26E
330
235
100
AcDbEntity
  8
0
  6
Continuous
 62
     7
370
    15
100
AcDbLine
 10
-56.5059303962
 20
-289.8422866115
 30
0.0
 11
28.0350750594
 21
-161.4283864999
 31
0.0
  0
LINE
  5
26F
330
235
100
AcDbEntity
  8
0
  6
Continuous
 62
     7
370
    15
100
AcDbLine
 10
28.0350750594
 20
-161.4283864999
 30
0.0
 11
-134.7270212706
 21
-140.9222898551
 31
0.0
  0
LINE
  5
270
330
235
100
AcDbEntity
  8
0
  6
Continuous
 62
     7
370
    15
100
AcDbLine
 10
-134.7270212706
 20
-140.9222898551
 30
0.0
 11
-56.5059303962
 21
-289.8422866115
 31
0.0
  0
LINE
  5
271
330
235
100
AcDbEntity
  8
0
  6
Continuous
 62
     7
370
    15
100
AcDbLine
 10
28.0350750594
 20
-60.5478190476
 30
0.0
 11
141.1721600232
 21
39.2297112459
 31
0.0
  0
LINE
  5
272
330
235
100
AcDbEntity
  8
0
  6
Continuous
 62
     7
370
    15
100
AcDbLine
 10
285.7450574294
 20
21.0152382618
 30
0.0
 11
141.1721600232
 21
39.2297112459
 31
0.0
  0
LINE
  5
273
330
235
100
AcDbEntity
  8
0
  6
Continuous
 62
     7
370
    15
100
AcDbLine
 10
172.6079724655
 20
-78.7622920317
 30
0.0
 11
285.7450574294
 21
21.0152382618
 31
0.0
  0
LINE
  5
274
330
235
100
AcDbEntity
  8
0
  6
Continuous
 62
     7
370
    15
100
AcDbLine
 10
34.4799137455
 20
-59.5780507875
 30
0.0
 11
169.6986676844
 21
-76.6140124702
 31
0.0
  0
LINE
  5
275
330
235
100
AcDbEntity
  8
0
  6
Continuous
 62
     7
370
    15
100
AcDbLine
 10
169.6986676844
 20
-76.6140124702
 30
0.0
 11
223.6155597375
 21
-29.0637831897
 31
0.0
  0
LINE
  5
276
330
235
100
AcDbEntity
  8
0
  6
Continuous
 62
     7
370
    15
100
AcDbLine
 10
88.3968057986
 20
-12.027821507
 30
0.0
 11
223.6155597375
 21
-29.0637831897
 31
0.0
  0
LINE
  5
277
330
235
100
AcDbEntity
  8
0
  6
Continuous
 62
     7
370
    15
100
AcDbLine
 10
34.4799137455
 20
-59.5780507875
 30
0.0
 11
88.3968057986
 21
-12.027821507
 31
0.0
  0
LINE
  5
278
330
235
100
AcDbEntity
  8
0
  6
Continuous
 62
     7
370
    15
100
AcDbLine
 10
225.3833266901
 20
-27.5047592788
 30
0.0
 11
90.1645727512
 21
-10.4687975962
 31
0.0
  0
LINE
  5
279
330
235
100
AcDbEntity
  8
0
  6
Continuous
 62
     7
370
    15
100
AcDbLine
 10
225.3833266901
 20
-27.5047592788
 30
0.0
 11
279.3002187432
 21
20.0454700017
 31
0.0
  0
LINE
  5
27A
330
235
100
AcDbEntity
  8
0
  6
Continuous
 62
     7
370
    15
100
AcDbLine
 10
279.3002187432
 20
20.0454700017
 30
0.0
 11
144.0814648043
 21
37.0814316843
 31
0.0
  0
LINE
  5
27B
330
235
100
AcDbEntity
  8
0
  6
Continuous
 62
     7
370
    15
100
AcDbLine
 10
90.1645727512
 20
-10.4687975962
 30
0.0
 11
144.0814648043
 21
37.0814316843
 31
0.0
  0
LINE
  5
27C
330
235
100
AcDbEntity
  8
0
  6
Continuous
 62
     7
370
    15
100
AcDbLine
 10
285.7450574294
 20
-228.8291577649
 30
0.0
 11
285.7450574294
 21
21.0152382618
 31
0.0
  0
LINE
  5
27D
330
235
100
AcDbEntity
  8
0
  6
Continuous
 62
     7
370
    15
100
AcDbLine
 10
172.6079724655
 20
-328.6066880584
 30
0.0
 11
285.7450574294
 21
-228.8291577649
 31
0.0
  0
LINE
  5
27E
330
235
100
AcDbEntity
  8
0
  6
Continuous
 62
     7
370
    15
100
AcDbLine
 10
88.3968057986
 20
-66.3709406812
 30
0.0
 11
88.3968057986
 21
-12.027821507
 31
0.0
  0
LINE
  5
27F
330
235
100
AcDbEntity
  8
0
  6
Continuous
 62
     7
370
    15
100
AcDbLine
 10
-21.5899363068
 20
-36.4307143535
 30
0.0
 11
-134.7270212706
 21
-136.208244647
 31
0.0
  0
LINE
  5
280
330
235
100
AcDbEntity
  8
0
  6
Continuous
 62
     7
370
    15
100
AcDbLine
 10
45.7598966537
 20
-44.9159957234
 30
0.0
 11
-21.5899363068
 21
-36.4307143535
 31
0.0
  0
LINE
  5
281
330
235
100
AcDbEntity
  8
0
  6
Continuous
 62
     7
370
    15
100
AcDbLine
 10
-28.0347749929
 20
58.7660396306
 30
0.0
 11
-169.6986676844
 21
76.6140124702
 31
0.0
  0
LINE
  5
282
330
235
100
AcDbEntity
  8
0
  6
Continuous
 62
     7
370
    15
100
AcDbLine
 10
-169.6986676844
 20
76.6140124702
 30
0.0
 11
-223.6155597375
 21
29.0637831897
 31
0.0
  0
LINE
  5
283
330
235
100
AcDbEntity
  8
0
  6
Continuous
 62
     7
370
    15
100
AcDbLine
 10
-81.951667046
 20
11.2158103501
 30
0.0
 11
-223.6155597375
 21
29.0637831897
 31
0.0
  0
LINE
  5
284
330
235
100
AcDbEntity
  8
0
  6
Continuous
 62
     7
370
    15
100
AcDbLine
 10
-28.0347749929
 20
58.7660396306
 30
0.0
 11
-81.951667046
 21
11.2158103501
 31
0.0
  0
LINE
  5
285
330
235
100
AcDbEntity
  8
0
  6
Continuous
 62
     7
370
    15
100
AcDbLine
 10
-225.3833266901
 20
27.5047592788
 30
0.0
 11
-279.3002187432
 21
-20.0454700017
 31
0.0
  0
LINE
  5
286
330
235
100
AcDbEntity
  8
0
  6
Continuous
 62
     7
370
    15
100
AcDbLine
 10
-83.7194339986
 20
9.6567864392
 30
0.0
 11
-137.6363260517
 21
-37.8934428413
 31
0.0
  0
LINE
  5
287
330
235
100
AcDbEntity
  8
0
  6
Continuous
 62
     7
370
    15
100
AcDbLine
 10
-225.3833266901
 20
27.5047592788
 30
0.0
 11
-83.7194339986
 21
9.6567864392
 31
0.0
  0
LINE
  5
288
330
235
100
AcDbEntity
  8
0
  6
Continuous
 62
     7
370
    15
100
AcDbLine
 10
-172.6079724655
 20
78.7622920317
 30
0.0
 11
-285.7450574294
 21
-21.0152382618
 31
0.0
  0
LINE
  5
289
330
235
100
AcDbEntity
  8
0
  6
Continuous
 62
     7
370
    15
100
AcDbLine
 10
-21.5899363068
 20
59.7358078907
 30
0.0
 11
-172.6079724655
 21
78.7622920317
 31
0.0
  0
LINE
  5
28A
330
235
100
AcDbEntity
  8
0
  6
Continuous
 62
     7
370
    15
100
AcDbLine
 10
-21.5899363068
 20
59.7358078907
 30
0.0
 11
-134.7270212706
 21
-40.0417224028
 31
0.0
  0
LINE
  5
28B
330
235
100
AcDbEntity
  8
0
  6
Continuous
 62
     7
370
    15
100
AcDbLine
 10
-279.3002187432
 20
-20.0454700017
 30
0.0
 11
-137.6363260517
 21
-37.8934428413
 31
0.0
  0
LINE
  5
28C
330
235
100
AcDbEntity
  8
0
  6
Continuous
 62
     7
370
    15
100
AcDbLine
 10
-21.5899363068
 20
-36.4307143535
 30
0.0
 11
-21.5899363068
 21
59.7358078907
 31
0.0
  0
LINE
  5
28D
330
235
100
AcDbEntity
  8
0
  6
Continuous
 62
     7
370
    15
100
AcDbLine
 10
-225.3833266901
 20
27.5047592788
 30
0.0
 11
-225.3833266901
 21
-26.8383598953
 31
0.0
  0
LINE
  5
28E
330
235
100
AcDbEntity
  8
0
  6
Continuous
 62
     7
370
    15
100
AcDbLine
 10
144.0814648043
 20
-17.2616874898
 30
0.0
 11
144.0814648043
 21
37.0814316843
 31
0.0
  0
LINE
  5
28F
330
235
100
AcDbEntity
  8
0
  6
Continuous
 62
     7
370
    15
100
AcDbLine
 10
-169.6986676844
 20
22.270893296
 30
0.0
 11
-169.6986676844
 21
76.6140124702
 31
0.0
  0
ARC
  5
290
330
235
100
AcDbEntity
  8
0
  6
Continuous
 62
     7
370
    15
100
AcDbCircle
 10
-2.0861323994
 20
-168.9913307133
 30
0.0
 40
136.8213626282798
100
AcDbArc
 50
259.0581975527
 51
266.5802908915
  0
VIEWPORT
  5
2A3
330
235
100
AcDbEntity
  8
0
100
AcDbViewport
 10
0.0
 20
0.0
 30
0.0
 40
205.6
 41
156.0
 68
     1
 69
     1
 12
29.1486086684
 22
124.6032253361
 13
0.0
 23
0.0
 14
10.0
 24
10.0
 15
10.0
 25
10.0
 16
0.0
 26
0.0
 36
1.0
 17
0.0
 27
0.0
 37
0.0
 42
50.0
 43
0.0
 44
0.0
 45
468.5495880949
 50
0.0
 51
0.0
 72
   100
 90
   557152
  1

281
     0
 71
     1
 74
     0
110
0.0
120
0.0
130
0.0
111
1.0
121
0.0
131
0.0
112
0.0
122
1.0
132
0.0
 79
     0
146
0.0
  0
ENDBLK
  5
238
330
235
100
AcDbEntity
  8
0
100
AcDbBlockEnd
  0
ENDSEC
  0
SECTION
  2
ENTITIES
  0
LWPOLYLINE
  5
83
330
1F
100
AcDbEntity
  8
0
  6
Continuous
 62
     7
370
    15
100
AcDbPolyline
 90
       41
 70
   128
 43
0.0
 10
4.7430471256
 20
261.7344534253
 10
4.6458897129
 20
260.9718374287
 10
4.789862147
 20
259.7637321163
 10
5.2808503119
 20
258.4871587826
 10
6.115669961
 20
257.1503964955
 10
7.2889069685
 20
255.7621146714
 10
8.7929524423
 20
254.3313168506
 10
10.6180520703
 20
252.8672823061
 10
12.752369381
 20
251.3795058637
 10
15.1820625077
 20
249.8776363245
 10
17.8913739581
 20
248.3714138888
 10
20.8627328079
 20
246.870606987
 10
24.0768686546
 20
245.3849489279
 10
27.5129365939
 20
243.9240747741
 10
31.1486524068
 20
242.4974588549
 10
34.960437081
 20
241.1143533221
 10
38.9235697302
 20
239.7837281459
 10
43.0123479184
 20
238.514212941
 10
47.2002543501
 20
237.3140410007
 10
51.460128845
 20
236.1909959007
 10
55.7643444824
 20
235.1523610193
 10
60.0849867722
 20
234.2048723023
 10
64.3940346912
 20
233.3546745776
 10
68.6635424101
 20
232.6072817037
 10
72.865820533
 20
231.9675408102
 10
76.9736156737
 20
231.4396008623
 10
80.9602872045
 20
231.0268857531
 10
84.7999800307
 20
230.7320720984
 10
88.4677922709
 20
230.557071878
 10
91.9399367552
 20
230.5030200355
 10
95.1938952943
 20
230.5702671177
 10
98.2085647185
 20
230.7583770016
 10
100.9643937396
 20
231.0661297223
 10
103.443509749
 20
231.4915293854
 10
105.6298347281
 20
232.0318171108
 10
107.5091895203
 20
232.6834889253
 10
109.0693857888
 20
233.4423184871
 10
110.300305062
 20
234.3033844954
 10
111.193964356
 20
235.2611026066
 10
111.7445679475
 20
236.3092616512
 10
111.8513875482
 20
236.6784479191
  0
LWPOLYLINE
  5
8C
330
1F
100
AcDbEntity
  8
0
  6
Continuous
 62
     7
370
    15
100
AcDbPolyline
 90
       17
 70
   128
 43
0.0
 10
-84.9452413938
 20
29.9506814021
 10
-85.039789315
 20
29.433064398
 10
-85.0564800048
 20
29.0386443343
 10
-84.9927724568
 20
28.8274680903
 10
-84.8583655678
 20
28.8316853347
 10
-84.6737215681
 20
29.0506540303
 10
-84.466950833
 20
29.4510381783
 10
-84.2695323325
 20
29.9718829215
 10
-84.1115212437
 20
30.5338943692
 10
-84.0169733224
 20
31.0515113733
 10
-84.0002826326
 20
31.445931437
 10
-84.0639901806
 20
31.657107681
 10
-84.1983970696
 20
31.6528904366
 10
-84.3830410693
 20
31.433921741
 10
-84.5898118044
 20
31.033537593
 10
-84.7872303049
 20
30.5126928498
 10
-84.9452413938
 20
29.9506814021
  0
LWPOLYLINE
  5
8D
330
1F
100
AcDbEntity
  8
0
  6
Continuous
 62
     7
370
    15
100
AcDbPolyline
 90
       17
 70
   128
 43
0.0
 10
-109.5399858216
 20
12.7458988709
 10
-109.6345337429
 20
12.2282818669
 10
-109.6512244327
 20
11.8338618032
 10
-109.5875168847
 20
11.6226855591
 10
-109.4531099957
 20
11.6269028035
 10
-109.268465996
 20
11.8458714992
 10
-109.0616952609
 20
12.2462556471
 10
-108.8642767604
 20
12.7671003903
 10
-108.7062656715
 20
13.3291118381
 10
-108.6117177503
 20
13.8467288422
 10
-108.5950270605
 20
14.2411489058
 10
-108.6587346085
 20
14.4523251499
 10
-108.7931414975
 20
14.4481079055
 10
-108.9777854972
 20
14.2291392098
 10
-109.1845562323
 20
13.8287550619
 10
-109.3819747328
 20
13.3079103187
 10
-109.5399858216
 20
12.7458988709
  0
LWPOLYLINE
  5
8E
330
1F
100
AcDbEntity
  8
0
  6
Continuous
 62
     7
370
    15
100
AcDbPolyline
 90
       79
 70
   128
 43
0.0
 10
51.8119278938
 20
276.130280967
 10
55.9998343255
 20
274.9301090267
 10
60.2597088204
 20
273.8070639267
 10
64.5639244578
 20
272.7684290453
 10
68.8845667476
 20
271.8209403283
 10
73.1936146665
 20
270.9707426036
 10
77.4631223854
 20
270.2233497297
 10
81.6654005083
 20
269.5836088362
 10
85.7731956491
 20
269.0556688883
 10
89.7598671799
 20
268.6429537791
 10
93.5995600061
 20
268.3481401244
 10
97.2673722463
 20
268.173139904
 10
100.7395167306
 20
268.1190880615
 10
103.9934752697
 20
268.1863351437
 10
107.0081446938
 20
268.3744450275
 10
109.763973715
 20
268.6821977483
 10
112.2430897244
 20
269.1075974114
 10
114.4294147034
 20
269.6478851368
 10
116.3087694957
 20
270.2995569513
 10
117.8689657642
 20
271.0583865131
 10
119.0998850373
 20
271.9194525214
 10
119.9935443314
 20
272.8771706325
 10
120.5441479228
 20
273.9253296772
 10
120.7481249362
 20
275.0571319417
 10
120.6041525022
 20
276.2652372541
 10
120.1131643373
 20
277.5418105878
 10
119.2783446882
 20
278.8785728749
 10
118.1051076806
 20
280.266854699
 10
116.6010622068
 20
281.6976525197
 10
114.7759625789
 20
283.1616870642
 10
112.6416452681
 20
284.6494635067
 10
110.2119521414
 20
286.1513330459
 10
107.502640691
 20
287.6575554816
 10
104.5312818412
 20
289.1583623833
 10
101.3171459945
 20
290.6440204424
 10
97.8810780552
 20
292.1048945963
 10
94.2453622423
 20
293.5315105155
 10
90.4335775681
 20
294.9146160482
 10
86.4704449189
 20
296.2452412245
 10
82.3816667307
 20
297.5147564294
 10
78.193760299
 20
298.7149283696
 10
73.9338858041
 20
299.8379734697
 10
69.6296701667
 20
300.876608351
 10
65.3090278769
 20
301.824097068
 10
60.999979958
 20
302.6742947927
 10
56.7304722391
 20
303.4216876666
 10
52.5281941162
 20
304.0614285601
 10
48.4203989754
 20
304.5893685081
 10
44.4337274446
 20
305.0020836173
 10
40.5940346184
 20
305.2968972719
 10
36.9262223782
 20
305.4718974923
 10
33.4540778939
 20
305.5259493349
 10
30.2001193548
 20
305.4587022527
 10
27.1854499307
 20
305.2705923688
 10
24.4296209095
 20
304.9628396481
 10
21.9505049001
 20
304.537439985
 10
19.7641799211
 20
303.9971522596
 10
17.8848251288
 20
303.3454804451
 10
16.3246288603
 20
302.5866508832
 10
15.0937095872
 20
301.725584875
 10
14.2000502931
 20
300.7678667638
 10
13.6494467017
 20
299.7197077192
 10
13.4454696883
 20
298.5879054547
 10
13.5894421223
 20
297.3798001423
 10
14.0804302872
 20
296.1032268086
 10
14.9152499363
 20
294.7664645215
 10
16.0884869439
 20
293.3781826974
 10
17.5925324177
 20
291.9473848766
 10
19.4176320456
 20
290.4833503321
 10
21.5519493564
 20
288.9955738897
 10
23.9816424831
 20
287.4937043505
 10
26.6909539335
 20
285.9874819148
 10
29.6623127833
 20
284.486675013
 10
32.87644863
 20
283.0010169539
 10
36.3125165693
 20
281.5401428
 10
39.9482323822
 20
280.1135268809
 10
43.7600170564
 20
278.7304213481
 10
47.7231497056
 20
277.3997961719
 10
51.8119278938
 20
276.130280967
  0
LWPOLYLINE
  5
8F
330
1F
100
AcDbEntity
  8
0
  6
Continuous
 62
     7
370
    15
100
AcDbPolyline
 90
       77
 70
   128
 43
0.0
 10
52.5066946855
 20
276.6162917729
 10
56.6104828008
 20
275.4414878884
 10
60.7859030771
 20
274.3444279845
 10
65.0044331602
 20
273.3326060928
 10
69.2372562121
 20
272.4129339828
 10
73.4554577593
 20
271.5916939475
 10
77.6302232081
 20
270.8744958891
 10
81.7330346772
 20
270.2662389976
 10
85.7358658042
 20
269.7710782842
 10
89.6113731937
 20
269.3923961989
 10
93.3330832003
 20
269.1327795241
 10
96.8755727712
 20
268.994001705
 10
100.2146431103
 20
268.9770107349
 10
103.3274849816
 20
269.0819226793
 10
106.1928345187
 20
269.3080208832
 10
108.7911184788
 20
269.6537608667
 10
111.1045879478
 20
270.116780875
 10
113.1174395835
 20
270.6939180121
 10
114.8159235682
 20
271.381229846
 10
116.188437534
 20
272.1740213401
 10
117.2256058188
 20
273.0668769245
 10
117.9203435115
 20
274.0536974902
 10
118.2679048493
 20
275.1277420522
 10
118.2659156359
 20
276.2816737971
 10
117.9143894594
 20
277.5076102009
 10
117.2157276003
 20
278.7971768749
 10
116.1747026273
 20
280.1415647712
 10
114.7984257967
 20
281.5315903572
 10
113.0962984747
 20
282.9577583487
 10
111.079947917
 20
284.4103265722
 10
108.7631478422
 20
285.8793725138
 10
106.1617243442
 20
287.3548611002
 10
103.2934477833
 20
288.8267132483
 10
100.1779113967
 20
290.2848747153
 10
96.8363974572
 20
291.7193847799
 10
93.291731893
 20
293.1204442839
 10
89.5681283644
 20
294.4784825701
 10
85.6910228591
 20
295.78422286
 10
81.686899939
 20
297.0287456234
 10
77.5831118237
 20
298.203549508
 10
73.4076915474
 20
299.3006094119
 10
69.1891614643
 20
300.3124313036
 10
64.9563384124
 20
301.2321034136
 10
60.7381368652
 20
302.0533434489
 10
56.5633714164
 20
302.7705415073
 10
52.4605599473
 20
303.3787983988
 10
48.4577288203
 20
303.8739591121
 10
44.5822214308
 20
304.2526411975
 10
40.8605114242
 20
304.5122578723
 10
37.3180218533
 20
304.6510356913
 10
33.9789515142
 20
304.6680266614
 10
30.8661096429
 20
304.5631147171
 10
28.0007601058
 20
304.3370165132
 10
25.4024761457
 20
303.9912765297
 10
23.0890066767
 20
303.5282565214
 10
21.076155041
 20
302.9511193843
 10
19.3776710563
 20
302.2638075504
 10
18.0051570905
 20
301.4710160563
 10
16.9679888057
 20
300.5781604719
 10
16.273251113
 20
299.5913399062
 10
15.9256897752
 20
298.5172953441
 10
15.9276789886
 20
297.3633635993
 10
16.2792051651
 20
296.1374271955
 10
16.9778670242
 20
294.8478605215
 10
18.0188919972
 20
293.5034726252
 10
19.3951688278
 20
292.1134470392
 10
21.0972961498
 20
290.6872790477
 10
23.1136467075
 20
289.2347108242
 10
25.4304467823
 20
287.7656648825
 10
28.0318702803
 20
286.2901762961
 10
30.9001468412
 20
284.8183241481
 10
34.0156832278
 20
283.3601626811
 10
37.3571971673
 20
281.9256526164
 10
40.9018627315
 20
280.5245931125
 10
44.6254662601
 20
279.1665548263
 10
48.5025717654
 20
277.8608145364
 10
52.5066946855
 20
276.6162917729
  0
LINE
  5
90
330
1F
100
AcDbEntity
  8
0
  6
Continuous
 62
     7
370
    15
100
AcDbLine
 10
111.8513875482
 20
236.6784479191
 30
0.0
 11
120.6509675235
 21
274.2945159451
 31
0.0
  0
LINE
  5
91
330
1F
100
AcDbEntity
  8
0
  6
Continuous
 62
     7
370
    15
100
AcDbLine
 10
13.542627101
 20
299.3505214512
 30
0.0
 11
4.7430471256
 21
261.7344534253
 31
0.0
  0
LINE
  5
92
330
1F
100
AcDbEntity
  8
0
  6
Continuous
 62
     7
370
    15
100
AcDbLine
 10
11.5850133505
 20
208.209595184
 30
0.0
 11
-99.0566455714
 21
92.8317027364
 31
0.0
  0
LINE
  5
93
330
1F
100
AcDbEntity
  8
0
  6
Continuous
 62
     7
370
    15
100
AcDbLine
 10
63.6470763063
 20
44.2823972066
 30
0.0
 11
-99.0566455714
 21
92.8317027364
 31
0.0
  0
LINE
  5
94
330
1F
100
AcDbEntity
  8
0
  6
Continuous
 62
     7
370
    15
100
AcDbLine
 10
63.6470763063
 20
44.2823972066
 30
0.0
 11
11.5850133505
 21
208.209595184
 31
0.0
  0
LINE
  5
95
330
1F
100
AcDbEntity
  8
0
  6
Continuous
 62
     7
370
    15
100
AcDbLine
 10
242.9264636997
 20
149.7421047526
 30
0.0
 11
-215.2621783698
 21
286.4614134284
 31
0.0
  0
LINE
  5
96
330
1F
100
AcDbEntity
  8
0
  6
Continuous
 62
     7
370
    15
100
AcDbLine
 10
242.9264636997
 20
149.7421047526
 30
0.0
 11
184.6292463628
 21
-99.4643459195
 31
0.0
  0
LINE
  5
97
330
1F
100
AcDbEntity
  8
0
  6
Continuous
 62
     7
370
    15
100
AcDbLine
 10
184.6292463628
 20
-99.4643459195
 30
0.0
 11
40.1081998722
 21
-56.3405847629
 31
0.0
  0
LINE
  5
98
330
1F
100
AcDbEntity
  8
0
  6
Continuous
 62
     7
370
    15
100
AcDbLine
 10
40.1081998722
 20
-56.3405847629
 30
0.0
 11
62.5471288094
 21
39.5803887034
 31
0.0
  0
LINE
  5
99
330
1F
100
AcDbEntity
  8
0
  6
Continuous
 62
     7
370
    15
100
AcDbLine
 10
62.5471288094
 20
39.5803887034
 30
0.0
 11
-100.1565930683
 21
88.1296942332
 31
0.0
  0
LINE
  5
9A
330
1F
100
AcDbEntity
  8
0
  6
Continuous
 62
     7
370
    15
100
AcDbLine
 10
-100.1565930683
 20
88.1296942332
 30
0.0
 11
-122.5955220055
 21
-7.7912792331
 31
0.0
  0
LINE
  5
9B
330
1F
100
AcDbEntity
  8
0
  6
Continuous
 62
     7
370
    15
100
AcDbLine
 10
-122.5955220055
 20
-7.7912792331
 30
0.0
 11
-273.5593957066
 21
37.2549627562
 31
0.0
  0
LINE
  5
9C
330
1F
100
AcDbEntity
  8
0
  6
Continuous
 62
     7
370
    15
100
AcDbLine
 10
-215.2621783698
 20
286.4614134284
 30
0.0
 11
-273.5593957066
 21
37.2549627562
 31
0.0
  0
LINE
  5
9D
330
1F
100
AcDbEntity
  8
0
  6
Continuous
 62
     7
370
    15
100
AcDbLine
 10
331.8566130435
 20
211.951487916
 30
0.0
 11
242.9264636997
 21
149.7421047526
 31
0.0
  0
LINE
  5
9E
330
1F
100
AcDbEntity
  8
0
  6
Continuous
 62
     7
370
    15
100
AcDbLine
 10
331.8566130435
 20
211.951487916
 30
0.0
 11
273.5593957066
 21
-37.2549627562
 31
0.0
  0
LINE
  5
9F
330
1F
100
AcDbEntity
  8
0
  6
Continuous
 62
     7
370
    15
100
AcDbLine
 10
273.5593957066
 20
-37.2549627562
 30
0.0
 11
184.6292463628
 21
-99.4643459195
 31
0.0
  0
LINE
  5
A0
330
1F
100
AcDbEntity
  8
0
  6
Continuous
 62
     7
370
    15
100
AcDbLine
 10
-215.2621783698
 20
286.4614134284
 30
0.0
 11
-126.332029026
 21
348.6707965917
 31
0.0
  0
LINE
  5
A1
330
1F
100
AcDbEntity
  8
0
  6
Continuous
 62
     7
370
    15
100
AcDbLine
 10
-126.332029026
 20
348.6707965917
 30
0.0
 11
21.7288929649
 21
304.490768896
 31
0.0
  0
LINE
  5
A2
330
1F
100
AcDbEntity
  8
0
  6
Continuous
 62
     7
370
    15
100
AcDbLine
 10
120.7436709088
 20
274.9456629152
 30
0.0
 11
331.8566130435
 21
211.951487916
 31
0.0
  0
LINE
  5
A3
330
1F
100
AcDbEntity
  8
0
  6
Continuous
 62
     7
370
    15
100
AcDbLine
 10
-10.1264962276
 20
155.0410858997
 30
0.0
 11
18.8682369839
 21
185.276995616
 31
0.0
  0
LINE
  5
A4
330
1F
100
AcDbEntity
  8
0
  6
Continuous
 62
     7
370
    15
100
AcDbLine
 10
-99.0566455714
 20
92.8317027364
 30
0.0
 11
-10.1264962276
 21
155.0410858997
 31
0.0
  0
LINE
  5
A5
330
1F
100
AcDbEntity
  8
0
  6
Continuous
 62
     7
370
    15
100
AcDbLine
 10
32.5116118261
 20
142.3182636359
 30
0.0
 11
-10.1264962276
 21
155.0410858997
 31
0.0
  0
LINE
  5
A6
330
1F
100
AcDbEntity
  8
0
  6
Continuous
 62
     7
370
    15
100
AcDbLine
 10
-33.6653726617
 20
54.4181039302
 30
0.0
 11
-30.6321848545
 21
67.3842454063
 31
0.0
  0
LINE
  5
A7
330
1F
100
AcDbEntity
  8
0
  6
Continuous
 62
     7
370
    15
100
AcDbLine
 10
-122.5955220055
 20
-7.7912792331
 30
0.0
 11
-33.6653726617
 21
54.4181039302
 31
0.0
  0
LINE
  5
B6
330
1B
100
AcDbEntity
 67
     1
  8
0
  6
Continuous
 62
     7
370
    15
100
AcDbLine
 10
-55.0
 20
-265.0
 30
0.0
 11
-55.0
 21
-305.0
 31
0.0
  0
LINE
  5
B7
330
1B
100
AcDbEntity
 67
     1
  8
0
  6
Continuous
 62
     7
370
    15
100
AcDbLine
 10
55.0
 20
-305.0
 30
0.0
 11
55.0
 21
-265.0
 31
0.0
  0
LINE
  5
B8
330
1B
100
AcDbEntity
 67
     1
  8
0
  6
Continuous
 62
     7
370
    15
100
AcDbLine
 10
90.4450715745
 20
0.0
 30
0.0
 11
245.0
 21
0.0
 31
0.0
  0
LINE
  5
B9
330
1B
100
AcDbEntity
 67
     1
  8
0
  6
Continuous
 62
     7
370
    15
100
AcDbLine
 10
-245.0
 20
-265.0
 30
0.0
 11
245.0
 21
-265.0
 31
0.0
  0
LINE
  5
BA
330
1B
100
AcDbEntity
 67
     1
  8
0
  6
Continuous
 62
     7
370
    15
100
AcDbLine
 10
-245.0
 20
-265.0
 30
0.0
 11
-245.0
 21
0.0
 31
0.0
  0
LINE
  5
BB
330
1B
100
AcDbEntity
 67
     1
  8
0
  6
Continuous
 62
     7
370
    15
100
AcDbLine
 10
-245.0
 20
0.0
 30
0.0
 11
-83.5549284255
 21
0.0
 31
0.0
  0
LINE
  5
BC
330
1B
100
AcDbEntity
 67
     1
  8
0
  6
Continuous
 62
     7
370
    15
100
AcDbLine
 10
-83.5549284255
 20
-102.0
 30
0.0
 11
90.4450715745
 21
-102.0
 31
0.0
  0
LINE
  5
BD
330
1B
100
AcDbEntity
 67
     1
  8
0
  6
Continuous
 62
     7
370
    15
100
AcDbLine
 10
90.4450715745
 20
0.0
 30
0.0
 11
90.4450715745
 21
-102.0
 31
0.0
  0
LINE
  5
BE
330
1B
100
AcDbEntity
 67
     1
  8
0
  6
Continuous
 62
     7
370
    15
100
AcDbLine
 10
-83.5549284255
 20
-107.0
 30
0.0
 11
0.0669351352
 21
-254.5007763965
 31
0.0
  0
LINE
  5
BF
330
1B
100
AcDbEntity
 67
     1
  8
0
  6
Continuous
 62
     7
370
    15
100
AcDbLine
 10
245.0
 20
-265.0
 30
0.0
 11
245.0
 21
0.0
 31
0.0
  0
LINE
  5
C0
330
1B
100
AcDbEntity
 67
     1
  8
0
  6
Continuous
 62
     7
370
    15
100
AcDbLine
 10
0.0669351352
 20
-254.5007763965
 30
0.0
 11
90.4450715745
 21
-107.0
 31
0.0
  0
LINE
  5
C1
330
1B
100
AcDbEntity
 67
     1
  8
0
  6
Continuous
 62
     7
370
    15
100
AcDbLine
 10
90.4450715745
 20
-107.0
 30
0.0
 11
-83.5549284255
 21
-107.0
 31
0.0
  0
LINE
  5
C2
330
1B
100
AcDbEntity
 67
     1
  8
0
  6
Continuous
 62
     7
370
    15
100
AcDbLine
 10
-83.5549284255
 20
0.0
 30
0.0
 11
-83.5549284255
 21
-102.0
 31
0.0
  0
LINE
  5
C3
330
1B
100
AcDbEntity
 67
     1
  8
0
  6
Continuous
 62
     7
370
    15
100
AcDbLine
 10
55.0
 20
-305.0
 30
0.0
 11
-55.0
 21
-305.0
 31
0.0
  0
VIEWPORT
  5
291
330
1B
100
AcDbEntity
 67
     1
  8
0
100
AcDbViewport
 10
0.0
 20
0.0
 30
0.0
 40
205.6
 41
156.0
 68
     1
 69
     1
 12
29.1486086684
 22
124.6032253361
 13
0.0
 23
0.0
 14
10.0
 24
10.0
 15
10.0
 25
10.0
 16
0.0
 26
0.0
 36
1.0
 17
0.0
 27
0.0
 37
0.0
 42
50.0
 43
0.0
 44
0.0
 45
468.5495880949
 50
0.0
 51
0.0
 72
   100
 90
   557152
  1

281
     0
 71
     1
 74
     0
110
0.0
120
0.0
130
0.0
111
1.0
121
0.0
131
0.0
112
0.0
122
1.0
132
0.0
 79
     0
146
0.0
  0
ENDSEC
  0
SECTION
  2
OBJECTS
  0
DICTIONARY
  5
C
330
0
100
AcDbDictionary
281
     1
  3
ACAD_GROUP
350
D
  3
ACAD_LAYOUT
350
1A
  3
ACAD_MLINESTYLE
350
17
  3
ACAD_PLOTSETTINGS
350
19
  3
ACAD_PLOTSTYLENAME
350
E
  3
ACAD_SCALELIST
350
47
  0
DICTIONARY
  5
D
102
{ACAD_REACTORS
330
C
102
}
330
C
100
AcDbDictionary
281
     1
  0
DICTIONARY
  5
1A
102
{ACAD_REACTORS
330
C
102
}
330
C
100
AcDbDictionary
281
     1
  3
_Back
350
115
  3
_Bottom
350
15A
  3
_Dimetric
350
236
  3
_Front
350
F5
  3
_Isometric
350
17A
  3
_Left
350
136
  3
_Right
350
148
  3
_Top
350
26
  3
_Trimetric
350
1DC
  3
Model
350
22
  3
Notes Area
350
1E
  0
DICTIONARY
  5
17
102
{ACAD_REACTORS
330
C
102
}
330
C
100
AcDbDictionary
281
     1
  3
Standard
350
18
  0
DICTIONARY
  5
19
102
{ACAD_REACTORS
330
C
102
}
330
C
100
AcDbDictionary
281
     1
  0
ACDBDICTIONARYWDFLT
  5
E
102
{ACAD_REACTORS
330
C
102
}
330
C
100
AcDbDictionary
281
     1
  3
Normal
350
F
100
AcDbDictionaryWithDefault
340
F
  0
DICTIONARY
  5
47
102
{ACAD_REACTORS
330
C
102
}
330
C
100
AcDbDictionary
281
     1
  3
A0
350
48
  3
A1
350
49
  3
A2
350
4A
  3
A3
350
4B
  3
A4
350
4C
  3
A5
350
4D
  3
A6
350
4E
  3
A7
350
4F
  3
A8
350
50
  3
A9
350
51
  3
B0
350
52
  3
B1
350
53
  3
B2
350
54
  3
B3
350
55
  3
B4
350
56
  3
B5
350
57
  3
B6
350
58
  3
B7
350
59
  3
B8
350
5A
  3
B9
350
5B
  3
C0
350
5C
  3
C1
350
5D
  3
C2
350
5E
  3
C3
350
5F
  3
C4
350
60
  3
C5
350
61
  3
C6
350
62
  3
C7
350
63
  3
C8
350
64
  3
C9
350
65
  3
D0
350
66
  3
D1
350
67
  3
D2
350
68
  0
LAYOUT
  5
115
102
{ACAD_REACTORS
330
1A
102
}
330
1A
100
AcDbPlotSettings
  1

  2
none_device
  4
ISO_A4_(210.00_x_297.00_MM)
  6

 40
7.5
 41
20.0
 42
7.5
 43
20.0
 44
210.0
 45
297.0
 46
0.0
 47
0.0
 48
0.0
 49
0.0
140
0.0
141
0.0
142
1.0
143
1.906614786
 70
   688
 72
     1
 73
     1
 74
     1
  7

 75
     0
147
0.5244897959
148
245.0
149
305.0
100
AcDbLayout
  1
_Back
 70
     1
 71
     4
 10
0.0
 20
0.0
 11
0.0
 21
0.0
 12
0.0
 22
0.0
 32
0.0
 14
0.0
 24
0.0
 34
0.0
 15
0.0
 25
0.0
 35
0.0
146
0.0
 13
0.0
 23
0.0
 33
0.0
 16
1.0
 26
0.0
 36
0.0
 17
0.0
 27
1.0
 37
0.0
 76
     0
330
114
331
297
  0
LAYOUT
  5
15A
102
{ACAD_REACTORS
330
1A
102
}
330
1A
100
AcDbPlotSettings
  1

  2
none_device
  4
ISO_A4_(210.00_x_297.00_MM)
  6

 40
7.5
 41
20.0
 42
7.5
 43
20.0
 44
210.0
 45
297.0
 46
0.0
 47
0.0
 48
0.0
 49
0.0
140
0.0
141
0.0
142
1.0
143
1.906614786
 70
   688
 72
     1
 73
     1
 74
     1
  7

 75
     0
147
0.5244897959
148
245.0
149
305.0
100
AcDbLayout
  1
_Bottom
 70
     1
 71
     7
 10
0.0
 20
0.0
 11
0.0
 21
0.0
 12
0.0
 22
0.0
 32
0.0
 14
0.0
 24
0.0
 34
0.0
 15
0.0
 25
0.0
 35
0.0
146
0.0
 13
0.0
 23
0.0
 33
0.0
 16
1.0
 26
0.0
 36
0.0
 17
0.0
 27
1.0
 37
0.0
 76
     0
330
159
331
29D
  0
LAYOUT
  5
236
102
{ACAD_REACTORS
330
1A
102
}
330
1A
100
AcDbPlotSettings
  1

  2
none_device
  4
ISO_A4_(210.00_x_297.00_MM)
  6

 40
7.5
 41
20.0
 42
7.5
 43
20.0
 44
210.0
 45
297.0
 46
0.0
 47
0.0
 48
0.0
 49
0.0
140
0.0
141
0.0
142
1.0
143
1.906614786
 70
   688
 72
     1
 73
     1
 74
     1
  7

 75
     0
147
0.5244897959
148
245.0
149
305.0
100
AcDbLayout
  1
_Dimetric
 70
     1
 71
    10
 10
0.0
 20
0.0
 11
0.0
 21
0.0
 12
0.0
 22
0.0
 32
0.0
 14
0.0
 24
0.0
 34
0.0
 15
0.0
 25
0.0
 35
0.0
146
0.0
 13
0.0
 23
0.0
 33
0.0
 16
1.0
 26
0.0
 36
0.0
 17
0.0
 27
1.0
 37
0.0
 76
     0
330
235
331
2A3
  0
LAYOUT
  5
F5
102
{ACAD_REACTORS
330
1A
102
}
330
1A
100
AcDbPlotSettings
  1

  2
none_device
  4
ISO_A4_(210.00_x_297.00_MM)
  6

 40
7.5
 41
20.0
 42
7.5
 43
20.0
 44
210.0
 45
297.0
 46
0.0
 47
0.0
 48
0.0
 49
0.0
140
0.0
141
0.0
142
1.0
143
1.906614786
 70
   688
 72
     1
 73
     1
 74
     1
  7

 75
     0
147
0.5244897959
148
245.0
149
305.0
100
AcDbLayout
  1
_Front
 70
     1
 71
     3
 10
0.0
 20
0.0
 11
0.0
 21
0.0
 12
0.0
 22
0.0
 32
0.0
 14
0.0
 24
0.0
 34
0.0
 15
0.0
 25
0.0
 35
0.0
146
0.0
 13
0.0
 23
0.0
 33
0.0
 16
1.0
 26
0.0
 36
0.0
 17
0.0
 27
1.0
 37
0.0
 76
     0
330
F4
331
295
  0
LAYOUT
  5
17A
102
{ACAD_REACTORS
330
1A
102
}
330
1A
100
AcDbPlotSettings
  1

  2
none_device
  4
ISO_A4_(210.00_x_297.00_MM)
  6

 40
7.5
 41
20.0
 42
7.5
 43
20.0
 44
210.0
 45
297.0
 46
0.0
 47
0.0
 48
0.0
 49
0.0
140
0.0
141
0.0
142
1.0
143
1.906614786
 70
   688
 72
     1
 73
     1
 74
     1
  7

 75
     0
147
0.5244897959
148
245.0
149
305.0
100
AcDbLayout
  1
_Isometric
 70
     1
 71
     8
 10
0.0
 20
0.0
 11
0.0
 21
0.0
 12
0.0
 22
0.0
 32
0.0
 14
0.0
 24
0.0
 34
0.0
 15
0.0
 25
0.0
 35
0.0
146
0.0
 13
0.0
 23
0.0
 33
0.0
 16
1.0
 26
0.0
 36
0.0
 17
0.0
 27
1.0
 37
0.0
 76
     0
330
179
331
29F
  0
LAYOUT
  5
136
102
{ACAD_REACTORS
330
1A
102
}
330
1A
100
AcDbPlotSettings
  1

  2
none_device
  4
ISO_A4_(210.00_x_297.00_MM)
  6

 40
7.5
 41
20.0
 42
7.5
 43
20.0
 44
210.0
 45
297.0
 46
0.0
 47
0.0
 48
0.0
 49
0.0
140
0.0
141
0.0
142
1.0
143
1.906614786
 70
   688
 72
     1
 73
     1
 74
     1
  7

 75
     0
147
0.5244897959
148
245.0
149
305.0
100
AcDbLayout
  1
_Left
 70
     1
 71
     5
 10
0.0
 20
0.0
 11
0.0
 21
0.0
 12
0.0
 22
0.0
 32
0.0
 14
0.0
 24
0.0
 34
0.0
 15
0.0
 25
0.0
 35
0.0
146
0.0
 13
0.0
 23
0.0
 33
0.0
 16
1.0
 26
0.0
 36
0.0
 17
0.0
 27
1.0
 37
0.0
 76
     0
330
135
331
299
  0
LAYOUT
  5
148
102
{ACAD_REACTORS
330
1A
102
}
330
1A
100
AcDbPlotSettings
  1

  2
none_device
  4
ISO_A4_(210.00_x_297.00_MM)
  6

 40
7.5
 41
20.0
 42
7.5
 43
20.0
 44
210.0
 45
297.0
 46
0.0
 47
0.0
 48
0.0
 49
0.0
140
0.0
141
0.0
142
1.0
143
1.906614786
 70
   688
 72
     1
 73
     1
 74
     1
  7

 75
     0
147
0.5244897959
148
245.0
149
305.0
100
AcDbLayout
  1
_Right
 70
     1
 71
     6
 10
0.0
 20
0.0
 11
0.0
 21
0.0
 12
0.0
 22
0.0
 32
0.0
 14
0.0
 24
0.0
 34
0.0
 15
0.0
 25
0.0
 35
0.0
146
0.0
 13
0.0
 23
0.0
 33
0.0
 16
1.0
 26
0.0
 36
0.0
 17
0.0
 27
1.0
 37
0.0
 76
     0
330
147
331
29B
  0
LAYOUT
  5
26
102
{ACAD_REACTORS
330
1A
102
}
330
1A
100
AcDbPlotSettings
  1

  2
none_device
  4
ISO_A4_(210.00_x_297.00_MM)
  6

 40
7.5
 41
20.0
 42
7.5
 43
20.0
 44
210.0
 45
297.0
 46
0.0
 47
0.0
 48
0.0
 49
0.0
140
0.0
141
0.0
142
1.0
143
1.906614786
 70
   688
 72
     1
 73
     1
 74
     1
  7

 75
     0
147
0.5244897959
148
245.0
149
305.0
100
AcDbLayout
  1
_Top
 70
     1
 71
     2
 10
0.0
 20
0.0
 11
0.0
 21
0.0
 12
0.0
 22
0.0
 32
0.0
 14
0.0
 24
0.0
 34
0.0
 15
0.0
 25
0.0
 35
0.0
146
0.0
 13
0.0
 23
0.0
 33
0.0
 16
1.0
 26
0.0
 36
0.0
 17
0.0
 27
1.0
 37
0.0
 76
     0
330
23
331
293
  0
LAYOUT
  5
1DC
102
{ACAD_REACTORS
330
1A
102
}
330
1A
100
AcDbPlotSettings
  1

  2
none_device
  4
ISO_A4_(210.00_x_297.00_MM)
  6

 40
7.5
 41
20.0
 42
7.5
 43
20.0
 44
210.0
 45
297.0
 46
0.0
 47
0.0
 48
0.0
 49
0.0
140
0.0
141
0.0
142
1.0
143
1.906614786
 70
   688
 72
     1
 73
     1
 74
     1
  7

 75
     0
147
0.5244897959
148
245.0
149
305.0
100
AcDbLayout
  1
_Trimetric
 70
     1
 71
     9
 10
0.0
 20
0.0
 11
0.0
 21
0.0
 12
0.0
 22
0.0
 32
0.0
 14
0.0
 24
0.0
 34
0.0
 15
0.0
 25
0.0
 35
0.0
146
0.0
 13
0.0
 23
0.0
 33
0.0
 16
1.0
 26
0.0
 36
0.0
 17
0.0
 27
1.0
 37
0.0
 76
     0
330
1DB
331
2A1
  0
LAYOUT
  5
22
102
{ACAD_REACTORS
330
1A
102
}
330
1A
100
AcDbPlotSettings
  1

  2
none_device
  4
ANSI_A_(11.00_x_8.50_Inches)
  6

 40
6.35
 41
19.05
 42
6.35000508
 43
19.05000254
 44
279.4
 45
215.9
 46
120.0324109859
 47
31.970549807
 48
0.0
 49
0.0
140
0.0
141
0.0
142
0.0179876314
143
1.0
 70
  1696
 72
     0
 73
     0
 74
     0
  7

 75
     0
147
0.0179189148
148
-1300.4909072572
149
0.0
100
AcDbLayout
  1
Model
 70
     1
 71
     0
 10
0.0
 20
0.0
 11
420.0
 21
297.0
 12
0.0
 22
0.0
 32
0.0
 14
-273.5593957066
 24
-99.4643459195
 34
0.0
 15
331.8566130435
 25
348.6707965917
 35
0.0
146
0.0
 13
0.0
 23
0.0
 33
0.0
 16
1.0
 26
0.0
 36
0.0
 17
0.0
 27
1.0
 37
0.0
 76
     0
330
1F
331
29
  0
LAYOUT
  5
1E
102
{ACAD_REACTORS
330
1A
102
}
330
1A
100
AcDbPlotSettings
  1

  2
none_device
  4
ISO_A4_(210.00_x_297.00_MM)
  6

 40
7.5
 41
20.0
 42
7.5
 43
20.0
 44
210.0
 45
297.0
 46
0.0
 47
0.0
 48
0.0
 49
0.0
140
0.0
141
0.0
142
1.0
143
1.906614786
 70
   688
 72
     1
 73
     1
 74
     1
  7

 75
     0
147
0.5244897959
148
245.0
149
305.0
100
AcDbLayout
  1
Notes Area
 70
     1
 71
     1
 10
-283.1322957198
 20
-319.2996108949
 11
283.1322957198
 21
81.0894941634
 12
0.0
 22
0.0
 32
0.0
 14
-245.0
 24
-305.0
 34
0.0
 15
245.0
 25
0.0
 35
0.0
146
0.0
 13
0.0
 23
0.0
 33
0.0
 16
1.0
 26
0.0
 36
0.0
 17
0.0
 27
1.0
 37
0.0
 76
     0
330
1B
331
291
  0
MLINESTYLE
  5
18
102
{ACAD_REACTORS
330
17
102
}
330
17
100
AcDbMlineStyle
  2
Standard
 70
     0
  3

 62
   256
 51
90.0
 52
90.0
 71
     2
 49
0.5
 62
   256
  6
BYLAYER
 49
-0.5
 62
   256
  6
BYLAYER
  0
ACDBPLACEHOLDER
  5
F
102
{ACAD_REACTORS
330
E
102
}
330
E
  0
SCALE
  5
48
102
{ACAD_REACTORS
330
47
102
}
330
47
100
AcDbScale
 70
     0
300
1:1
140
1.0
141
1.0
290
     1
  0
SCALE
  5
49
102
{ACAD_REACTORS
330
47
102
}
330
47
100
AcDbScale
 70
     0
300
1:2
140
1.0
141
2.0
290
     0
  0
SCALE
  5
4A
102
{ACAD_REACTORS
330
47
102
}
330
47
100
AcDbScale
 70
     0
300
1:4
140
1.0
141
4.0
290
     0
  0
SCALE
  5
4B
102
{ACAD_REACTORS
330
47
102
}
330
47
100
AcDbScale
 70
     0
300
1:5
140
1.0
141
5.0
290
     0
  0
SCALE
  5
4C
102
{ACAD_REACTORS
330
47
102
}
330
47
100
AcDbScale
 70
     0
300
1:8
140
1.0
141
8.0
290
     0
  0
SCALE
  5
4D
102
{ACAD_REACTORS
330
47
102
}
330
47
100
AcDbScale
 70
     0
300
1:10
140
1.0
141
10.0
290
     0
  0
SCALE
  5
4E
102
{ACAD_REACTORS
330
47
102
}
330
47
100
AcDbScale
 70
     0
300
1:16
140
1.0
141
16.0
290
     0
  0
SCALE
  5
4F
102
{ACAD_REACTORS
330
47
102
}
330
47
100
AcDbScale
 70
     0
300
1:20
140
1.0
141
20.0
290
     0
  0
SCALE
  5
50
102
{ACAD_REACTORS
330
47
102
}
330
47
100
AcDbScale
 70
     0
300
1:30
140
1.0
141
30.0
290
     0
  0
SCALE
  5
51
102
{ACAD_REACTORS
330
47
102
}
330
47
100
AcDbScale
 70
     0
300
1:40
140
1.0
141
40.0
290
     0
  0
SCALE
  5
52
102
{ACAD_REACTORS
330
47
102
}
330
47
100
AcDbScale
 70
     0
300
1:50
140
1.0
141
50.0
290
     0
  0
SCALE
  5
53
102
{ACAD_REACTORS
330
47
102
}
330
47
100
AcDbScale
 70
     0
300
1:100
140
1.0
141
100.0
290
     0
  0
SCALE
  5
54
102
{ACAD_REACTORS
330
47
102
}
330
47
100
AcDbScale
 70
     0
300
2:1
140
2.0
141
1.0
290
     0
  0
SCALE
  5
55
102
{ACAD_REACTORS
330
47
102
}
330
47
100
AcDbScale
 70
     0
300
4:1
140
4.0
141
1.0
290
     0
  0
SCALE
  5
56
102
{ACAD_REACTORS
330
47
102
}
330
47
100
AcDbScale
 70
     0
300
8:1
140
8.0
141
1.0
290
     0
  0
SCALE
  5
57
102
{ACAD_REACTORS
330
47
102
}
330
47
100
AcDbScale
 70
     0
300
10:1
140
10.0
141
1.0
290
     0
  0
SCALE
  5
58
102
{ACAD_REACTORS
330
47
102
}
330
47
100
AcDbScale
 70
     0
300
100:1
140
100.0
141
1.0
290
     0
  0
SCALE
  5
59
102
{ACAD_REACTORS
330
47
102
}
330
47
100
AcDbScale
 70
     0
300
1/128" = 1'-0"
140
0.0078125
141
12.0
290
     0
  0
SCALE
  5
5A
102
{ACAD_REACTORS
330
47
102
}
330
47
100
AcDbScale
 70
     0
300
1/64" = 1'-0"
140
0.015625
141
12.0
290
     0
  0
SCALE
  5
5B
102
{ACAD_REACTORS
330
47
102
}
330
47
100
AcDbScale
 70
     0
300
1/32" = 1'-0"
140
0.03125
141
12.0
290
     0
  0
SCALE
  5
5C
102
{ACAD_REACTORS
330
47
102
}
330
47
100
AcDbScale
 70
     0
300
1/16" = 1'-0"
140
0.0625
141
12.0
290
     0
  0
SCALE
  5
5D
102
{ACAD_REACTORS
330
47
102
}
330
47
100
AcDbScale
 70
     0
300
3/32" = 1'-0"
140
0.09375
141
12.0
290
     0
  0
SCALE
  5
5E
102
{ACAD_REACTORS
330
47
102
}
330
47
100
AcDbScale
 70
     0
300
1/8" = 1'-0"
140
0.125
141
12.0
290
     0
  0
SCALE
  5
5F
102
{ACAD_REACTORS
330
47
102
}
330
47
100
AcDbScale
 70
     0
300
3/16" = 1'-0"
140
0.1875
141
12.0
290
     0
  0
SCALE
  5
60
102
{ACAD_REACTORS
330
47
102
}
330
47
100
AcDbScale
 70
     0
300
1/4" = 1'-0"
140
0.25
141
12.0
290
     0
  0
SCALE
  5
61
102
{ACAD_REACTORS
330
47
102
}
330
47
100
AcDbScale
 70
     0
300
3/8" = 1'-0"
140
0.375
141
12.0
290
     0
  0
SCALE
  5
62
102
{ACAD_REACTORS
330
47
102
}
330
47
100
AcDbScale
 70
     0
300
1/2" = 1'-0"
140
0.5
141
12.0
290
     0
  0
SCALE
  5
63
102
{ACAD_REACTORS
330
47
102
}
330
47
100
AcDbScale
 70
     0
300
3/4" = 1'-0"
140
0.75
141
12.0
290
     0
  0
SCALE
  5
64
102
{ACAD_REACTORS
330
47
102
}
330
47
100
AcDbScale
 70
     0
300
1" = 1'-0"
140
1.0
141
12.0
290
     0
  0
SCALE
  5
65
102
{ACAD_REACTORS
330
47
102
}
330
47
100
AcDbScale
 70
     0
300
1-1/2" = 1'-0"
140
1.5
141
12.0
290
     0
  0
SCALE
  5
66
102
{ACAD_REACTORS
330
47
102
}
330
47
100
AcDbScale
 70
     0
300
3" = 1'-0"
140
3.0
141
12.0
290
     0
  0
SCALE
  5
67
102
{ACAD_REACTORS
330
47
102
}
330
47
100
AcDbScale
 70
     0
300
6" = 1'-0"
140
6.0
141
12.0
290
     0
  0
SCALE
  5
68
102
{ACAD_REACTORS
330
47
102
}
330
47
100
AcDbScale
 70
     0
300
1'-0" = 1'-0"
140
12.0
141
12.0
290
     0
  0
ENDSEC
  0
EOF
